<svg id="Слой_1" xmlns="http://www.w3.org/2000/svg" xmlns:xlink="http://www.w3.org/1999/xlink" fill="#47a364" viewBox="427 258.9 231.8 326"><style>.st0{clip-path:url(#SVGID_2_)}</style><defs><path id="SVGID_1_" d="M427 258.9h231.8v326H427z"/></defs><clipPath id="SVGID_2_"><use xlink:href="#SVGID_1_" overflow="visible"/></clipPath><path class="st0" d="M545.9 442.9c0 4.4-3.6 8-8 8H483c-4.4 0-8-3.6-8-8s3.6-8 8-8h54.9c4.4 0 8 3.6 8 8zm-8 22.7H483c-4.4 0-8 3.6-8 8s3.6 8 8 8h54.9c4.4 0 8-3.6 8-8 0-4.5-3.6-8-8-8zm-55.5-125.5h13.9V354c0 4.4 3.6 8 8 8s8-3.6 8-8v-13.9h13.8c4.4 0 8-3.6 8-8s-3.6-8-8-8h-13.8v-13.9c0-4.4-3.6-8-8-8s-8 3.6-8 8v13.9h-13.9c-4.4 0-8 3.6-8 8s3.6 8 8 8zm-7.4 72.1c0 4.4 3.6 8 8 8h119.9c4.4 0 8-3.6 8-8s-3.6-8-8-8H483c-4.4 0-8 3.6-8 8zm183.9-90.4v254.6c0 4.4-3.6 8-8 8H435c-4.4 0-8-3.6-8-8V266.9c0-4.4 3.6-8 8-8h161.9c.3 0 .7.1 1 .2 1.3.3 2.6 1 3.6 2l54.9 54.9c1 1 1.6 2.2 2 3.4.1.4.2.8.2 1.2.3.6.3.9.3 1.2zm-54.8-8.1h27.5l-27.5-27.5v27.5zm38.8 16H596c-4.4 0-8-3.6-8-8v-46.9H443v293.5h199.9V329.7zm-40 105.2h-30.3c-4.4 0-8 3.6-8 8s3.6 8 8 8h30.3c4.4 0 8-3.6 8-8s-3.5-8-8-8zm0 86.9h-30.3c-4.4 0-8 3.6-8 8s3.6 8 8 8h30.3c4.4 0 8-3.6 8-8s-3.5-8-8-8zm0-56.2h-30.3c-4.4 0-8 3.6-8 8s3.6 8 8 8h30.3c4.4 0 8-3.6 8-8 0-4.5-3.5-8-8-8z"/></svg>