<svg xmlns="http://www.w3.org/2000/svg" width="128" height="128" viewBox="-16.948 -23.26 128 128"><path d="M60.493 21.926a4.397 4.397 0 1 0 0 8.794c.112 0 .221-.026.328-.032 1.061 7.815-7.139 14.96-14.904 15.38-8.747.473-12.374-7.999-13.098-15.472a4.39 4.39 0 0 0-1.003-8.669 4.397 4.397 0 0 0-4.396 4.397c0 1.346.617 2.535 1.569 3.342.643 10.283 6.503 21.664 18.56 20.031 10.093-1.367 19.114-11.094 16.669-21.055a4.356 4.356 0 0 0 .673-2.318 4.4 4.4 0 0 0-4.398-4.398z"/><path fill="none" d="M9.632 0h-.56v5.66h1.72l.01-.02h.33c.09-.39.23-.77.41-1.12.1-1.15.45-2.27 1.1-3.23A5.65 5.65 0 0 1 9.632 0zm52.38 12.04l-.12.18"/><path d="M83.954.661a4.358 4.358 0 0 1-.486-.494c-.251-.046-.506-.088-.733-.167H9.632c.847.68 1.87 1.15 3.109 1.29-.671.96-1.033 2.08-1.136 3.23a4.7 4.7 0 0 0-.423 1.12h-.342l-.01.02h74.472V2.39c-.6-.456-1.038-1.059-1.348-1.729z"/><path d="M93.861 100.41c-3.229-12.729-12.8-56.42-.17-84.21.011-.03.011-.06.03-.08.061-.17.11-.33.15-.5l.029-.12c.04-.22.051-.43.04-.64-.01-.04-.02-.08-.02-.12-.021-.17-.05-.34-.101-.51-.02-.06-.039-.12-.069-.18-.05-.15-.12-.29-.2-.43-.02-.03-.03-.07-.05-.11-.021-.02-.04-.03-.05-.06a.877.877 0 0 1-.061-.1l-9.08-12.21c-.319-.44-.77-.74-1.26-.93 1.04 2.54.87 5.62-.53 7.97l3 4.04h-78.1l3.37-6.56h-1.72V0c-1.06 0-2.03.59-2.51 1.53L.299 13.75c-.03.05-.04.11-.06.16-.04.07-.07.15-.09.22-.05.14-.08.27-.1.41-.02.07-.03.13-.04.2-.01.18-.02.36 0 .54v.07c.02.21.08.41.14.61.01.01.01.03.01.05 13.35 36.3 3.95 74.01.76 84.71-.19.609-.53 1.76.34 2.899a2.79 2.79 0 0 0 2.24 1.12h.04c.77-.01 1.32-.27 1.74-.64h84.4c.4.3.92.5 1.61.5.87 0 1.689-.4 2.229-1.091.854-1.088.593-2.117.343-3.098zM7.402 98.46c3.73-14.09 10.19-47.46-.63-80.61h80.15c-10.08 27.19-2.99 65.1.66 80.61H7.402z"/><path d="M12.642 1.29c-.65.96-1 2.08-1.1 3.23-.18.35-.32.73-.41 1.12h-.33l-.01.02h-1.72V0h.56a5.65 5.65 0 0 0 3.01 1.29zm72.643 5.012l-2.673 2.014-2.276-3.02 2.672-2.014z"/></svg>