<svg xmlns="http://www.w3.org/2000/svg" viewBox="-16.948 0 128 128" stroke="#fff" fill="#fff"><path d="M82.236 9.445l-8.145 5.275-.742 4.211 8.146-5.276zm-1.523 8.631l-8.142 5.274-.857 4.844 8.145-5.276zm2.973-16.843L76.689 0l-1.817 10.299 8.143-5.275zM60.493 45.186a4.397 4.397 0 1 0 0 8.794c.112 0 .221-.026.328-.032 1.061 7.815-7.139 14.96-14.904 15.38-8.747.473-12.374-7.999-13.098-15.472a4.39 4.39 0 0 0-1.003-8.669 4.397 4.397 0 0 0-4.396 4.397c0 1.346.617 2.535 1.569 3.342.643 10.283 6.503 21.664 18.56 20.031 10.093-1.367 19.114-11.094 16.669-21.055a4.356 4.356 0 0 0 .673-2.318 4.4 4.4 0 0 0-4.398-4.398z"/><path d="M93.86 123.665c-3.232-12.728-12.801-56.416-.17-84.206.014-.027.016-.056.027-.084.068-.163.117-.327.154-.497.01-.042.023-.083.031-.123.034-.211.045-.426.034-.64-.001-.039-.015-.079-.017-.116a2.769 2.769 0 0 0-.372-1.119c-.02-.034-.029-.074-.053-.112-.012-.021-.033-.034-.045-.056-.023-.032-.036-.068-.06-.101L84.309 24.4a2.773 2.773 0 0 0-1.259-.932c1.047 2.538.871 5.622-.529 7.974l3 4.036h-12.67l5.412-3.506.818-4.632-8.144 5.275-.507 2.863h-8.535l4.171-6.577.95-1.542-6.434-4.095-15.48-9.814-4.661 7.35 4.523 14.681h-2.339L33.149 4.72 8.322 12.369l3.354 10.892H9.073c-1.057 0-2.027.59-2.508 1.533L.302 37.007c-.028.054-.039.11-.065.166a2.563 2.563 0 0 0-.188.629c-.013.064-.027.128-.034.194a2.779 2.779 0 0 0-.003.547c.002.024-.001.048 0 .072.025.205.076.408.144.604.007.017.007.033.011.049 13.343 36.305 3.951 74.016.753 84.709-.183.615-.523 1.763.338 2.904A2.818 2.818 0 0 0 3.506 128h.037c.764-.01 1.323-.271 1.738-.64H89.68c.401.296.925.502 1.613.502.871 0 1.691-.402 2.227-1.089.851-1.094.592-2.119.34-3.108zM10.798 28.899h2.616l2.025 6.576H7.422l3.376-6.576zm-3.392 92.824c3.723-14.092 10.182-47.463-.637-80.608h80.153c-10.075 27.19-2.994 65.092.66 80.608H7.406z"/></svg>