<svg xmlns="http://www.w3.org/2000/svg" width="1024" height="1024" viewBox="0 0 1024 1024"><path d="M941.219 117.922C890.567 67.804 817.57 35.675 740.772 35.675c-45.214 0-87.697 10.342-128.542 31.05-40.858 20.694-74.079 49.012-100.224 84.965-26.144-35.953-59.368-64.27-100.223-84.966-40.857-20.706-83.34-31.05-128.542-31.05-76.798 0-149.783 32.131-200.447 82.247C32.141 168.029 0 241.015 0 317.824c0 52.825 11.224 104.105 25.053 142.707 6.867 19.138 17.244 39.88 31.048 61.006 13.968 21.369 26.691 39.217 37.579 53.369 10.899 14.167 26.424 31.873 47.387 52.292 20.974 20.438 38.126 36.496 50.652 47.931 12.526 11.448 31.584 28.343 56.649 50.118 28.853 25.065 49.432 43.726 62.644 55.556 12.932 11.585 31.595 29.409 56.101 52.837 49.571 47.372 85.942 91.03 120.373 141.068 6.425 9.343 14.711 13.618 24.506 13.618 10.354 0 19.312-4.183 25.599-13.618 22.045-33.06 47.526-66.874 77.345-100.223 30.096-33.65 55.149-59.762 75.171-78.436 20.289-18.919 49.455-45.318 87.151-78.971 23.31-20.823 41.936-36.496 54.475-47.931 12.526-11.445 28.865-27.238 49.025-47.386 20.151-20.161 36.08-37.487 47.387-51.756 11.574-14.596 23.798-32.248 37.579-53.372 28.155-43.146 40.484-77.308 50.652-125.276 5.065-23.937 7.623-48.48 7.623-73.531.012-76.811-32.129-149.797-82.781-199.903zm17.43 255.456c-10.493 60.437-42.065 119.711-94.775 178.113-23.007 25.483-65.234 66.05-126.916 120.92-32.002 28.472-57.728 51.756-77.89 70.269-19.603 17.987-43.715 42.344-72.439 72.984-28.47 30.362-53.382 60.459-74.626 89.87-22.334-28.863-48.072-58.148-77.343-88.242-29.551-30.362-52.29-53.372-69.174-68.629-16.884-15.245-42.61-37.987-77.89-69.174l-37.579-33.222-34.314-31.05c-14.862-13.444-26.296-24.379-33.769-32.676-7.227-8.04-16.883-18.523-28.863-31.595s-21.195-24.539-27.238-33.769c-12.479-19.091-33.699-47.583-41.39-71.358l-12.527-38.672c-9.132-28.19-11.98-57.194-11.98-89.323 0-61.006 21.787-113.296 65.363-156.326 44.121-43.574 96.413-65.363 157.952-65.363 43.029 0 82.793 11.433 119.292 34.86 36.498 23.413 64.63 54.289 82.793 93.135 5.264 11.271 14.165 16.884 26.691 16.884s22.205-5.229 27.784-16.884c18.394-38.474 44.667-69.721 81.155-93.135 36.488-23.427 76.796-34.86 119.826-34.86 61.551 0 113.843 21.787 157.418 64.817s65.361 95.32 65.361 156.871c-.018 19.056-1.795 37.555-4.921 55.554z"/></svg>