<svg xmlns="http://www.w3.org/2000/svg" width="374.003" height="374.003" viewBox="0 0 374.003 374.003"><path d="M170.944 165.64H60a9.998 9.998 0 0 0-9.607 7.225l-21.289 73.714 149.265 16.332 11.713-56.059c-7.29-13.017-13.997-26.953-19.138-41.212zm139.41 111.713l44.828 4.904-13.385-46.347a442.286 442.286 0 0 1-5.349 7.702c-9.056 12.752-18.106 24.198-26.094 33.741zm-97.211-34.189l-4.812 23.026 24.23 2.649a528.722 528.722 0 0 1-19.047-25.146 73.944 73.944 0 0 0-.371-.529zM.393 345.998A10 10 0 0 0 10 358.773h148.34l13.864-66.355-151.549-16.583L.393 345.998zm363.789-32.577l-162.015-17.729-13.181 63.079h175.017c5.523 0 10-4.479 10-10 0-1.197-.21-2.346-.595-3.406l-9.226-31.944zm-93.356-23.357a5.649 5.649 0 0 0 4.126 1.785 5.681 5.681 0 0 0 4.133-1.785c9.111-9.693 27.104-29.752 45.135-55.137 22.714-31.978 49.783-78.865 49.783-120.65 0-54.617-44.433-99.047-99.051-99.047-54.612 0-99.046 44.43-99.046 99.047 0 41.814 27.104 88.732 49.841 120.732 18.026 25.383 35.977 45.383 45.079 55.055zm4.126-237.565c33.35 0 60.479 27.137 60.479 60.486 0 33.336-27.13 60.486-60.479 60.486-33.344 0-60.477-27.15-60.477-60.486.002-33.349 27.132-60.486 60.477-60.486z"/></svg>