<svg xmlns="http://www.w3.org/2000/svg" viewBox="264 150.2 311.4 296.1"><path fill="#FFF" d="M363.9 361.3h29.8V391c0 4.4 3.6 8 8 8h36.1c4.4 0 8-3.6 8-8v-29.8h29.8c4.4 0 8-3.6 8-8v-36.1c0-4.4-3.6-8-8-8h-29.8v-29.8c0-4.4-3.6-8-8-8h-36.1c-4.4 0-8 3.6-8 8v29.8h-29.8c-4.4 0-8 3.6-8 8v36.1c0 4.5 3.6 8.1 8 8.1zm8-36.1h29.8c4.4 0 8-3.6 8-8v-29.8h20.1v29.8c0 4.4 3.6 8 8 8h29.8v20.1h-29.8c-4.4 0-8 3.6-8 8V383h-20.1v-29.8c0-4.4-3.6-8-8-8h-29.8v-20zm195.5-101.1h-65.9v-65.9c0-4.4-3.6-8-8-8H345.9c-4.4 0-8 3.6-8 8v65.9H272c-4.4 0-8 3.6-8 8v206.2c0 4.4 3.6 8 8 8h295.4c4.4 0 8-3.6 8-8V232.1c0-4.4-3.5-8-8-8zm-213.5-57.8h131.7v13.2H353.9v-13.2zm0 29.2h131.7v28.6H353.9v-28.6zm205.5 234.8H280V240.1h279.4v190.2z"/></svg>