<svg xmlns="http://www.w3.org/2000/svg" viewBox="297 121.3 246.4 349.6"><g fill="#47a364"><path d="M533.8 170.1h-54.4c-5.3 0-9.6 4.3-9.6 9.6s4.3 9.6 9.6 9.6h44.8v262.4h-208V189.3H361c5.3 0 9.6-4.3 9.6-9.6s-4.3-9.6-9.6-9.6h-54.4c-5.3 0-9.6 4.3-9.6 9.6v281.6c0 5.3 4.3 9.6 9.6 9.6h227.2c5.3 0 9.6-4.3 9.6-9.6V179.7c0-5.3-4.3-9.6-9.6-9.6z"/><path d="M505 198.9H335.4c-3.5 0-6.4 2.9-6.4 6.4v227.2c0 3.5 2.9 6.4 6.4 6.4h104.4c1.6 0 3.2-.6 4.4-1.7l65.2-60.8c1.3-1.2 2-2.9 2-4.7V205.3c0-3.6-2.9-6.4-6.4-6.4zm-6.4 170l-61.3 57.2h-95.5V211.7h156.8v157.2z"/><path d="M498.6 358.9h-60.8c-3.5 0-6.4 2.9-6.4 6.4v60.8c0 3.5 2.9 6.4 6.4 6.4 3.5 0 6.4-2.9 6.4-6.4v-54.4h54.4c3.5 0 6.4-2.9 6.4-6.4 0-3.6-2.9-6.4-6.4-6.4zm-22.4-204.8h-112c-5.3 0-9.6 4.3-9.6 9.6v35.2c0 5.3 4.3 9.6 9.6 9.6s9.6-4.3 9.6-9.6v-25.6h92.8v25.6c0 5.3 4.3 9.6 9.6 9.6s9.6-4.3 9.6-9.6v-35.2c0-5.3-4.3-9.6-9.6-9.6z"/><path d="M473.3 170.1c-3.5 0-6.4 2.9-6.4 6.4v22.4h-93.5v-22.4c0-3.5-2.9-6.4-6.4-6.4s-6.4 2.9-6.4 6.4v28.8c0 3.5 2.9 6.4 6.4 6.4h106.3c3.5 0 6.4-2.9 6.4-6.4v-28.8c0-3.6-2.8-6.4-6.4-6.4z"/><path d="M420.2 125.3c-20.3 0-36.8 16.5-36.8 36.8 0 5.3 4.3 9.6 9.6 9.6s9.6-4.3 9.6-9.6c0-9.7 7.9-17.6 17.6-17.6 9.7 0 17.6 7.9 17.6 17.6 0 5.3 4.3 9.6 9.6 9.6s9.6-4.3 9.6-9.6c0-20.3-16.5-36.8-36.8-36.8zm-1.6 118.4c-5.3 0-9.6 4.3-9.6 9.6v38.4c0 5.3 4.3 9.6 9.6 9.6s9.6-4.3 9.6-9.6v-38.4c0-5.3-4.3-9.6-9.6-9.6z"/><path d="M437.8 262.9h-38.4c-5.3 0-9.6 4.3-9.6 9.6s4.3 9.6 9.6 9.6h38.4c5.3 0 9.6-4.3 9.6-9.6s-4.3-9.6-9.6-9.6zm-9.6 67.2h-60.8c-3.5 0-6.4 2.9-6.4 6.4 0 3.5 2.9 6.4 6.4 6.4h60.8c3.5 0 6.4-2.9 6.4-6.4 0-3.6-2.9-6.4-6.4-6.4zm41.6 0h-16c-3.5 0-6.4 2.9-6.4 6.4 0 3.5 2.9 6.4 6.4 6.4h16c3.5 0 6.4-2.9 6.4-6.4 0-3.6-2.9-6.4-6.4-6.4zm-61.9 28.8h-40.5c-3.5 0-6.4 2.9-6.4 6.4s2.9 6.4 6.4 6.4h40.5c3.5 0 6.4-2.9 6.4-6.4 0-3.6-2.8-6.4-6.4-6.4z"/></g></svg>