<svg xmlns="http://www.w3.org/2000/svg" viewBox="295.9 147.8 250.1 299.7"><path fill="#FFF" d="M545.1 260.3c0 53.9-51.3 97.8-114.3 97.8h-21.5c-54.2 0-98.3 36.7-98.3 81.8 0 4.4-3.6 8-8 8s-8-3.6-8-8c0-53.9 51.3-97.8 114.3-97.8h21.5c54.2 0 98.3-36.7 98.3-81.8 0-4.4 3.6-8 8-8s8 3.6 8 8zM303 343.8c4.4 0 8-3.6 8-8 0-45.1 44.1-81.8 98.3-81.8h21.5c63 0 114.3-43.9 114.3-97.8 0-4.4-3.6-8-8-8s-8 3.6-8 8c0 45.1-44.1 81.8-98.3 81.8h-21.5c-63 0-114.3 43.9-114.3 97.8 0 4.4 3.6 8 8 8zm109-70.3v49.2c0 4.4 3.6 8 8 8s8-3.6 8-8v-49.2c0-4.4-3.6-8-8-8s-8 3.5-8 8zm76.8-12.7v21.1c0 4.4 3.6 8 8 8s8-3.6 8-8v-21.1c0-4.4-3.6-8-8-8s-8 3.6-8 8zm-38.4 12.9v36.2c0 4.4 3.6 8 8 8s8-3.6 8-8v-36.2c0-4.4-3.6-8-8-8s-8 3.6-8 8zm-115.1 40.5v21.1c0 4.4 3.6 8 8 8s8-3.6 8-8v-21.1c0-4.4-3.6-8-8-8s-8 3.6-8 8zm38.4-28v36.2c0 4.4 3.6 8 8 8s8-3.6 8-8v-36.2c0-4.4-3.6-8-8-8-4.5 0-8 3.5-8 8zM303 374.5c4.4 0 8-3.6 8-8V362c0-4.4-3.6-8-8-8s-8 3.6-8 8v4.6c0 4.4 3.6 7.9 8 7.9zm225.1-147v4.6c0 4.4 3.6 8 8 8s8-3.6 8-8v-4.6c0-4.4-3.6-8-8-8s-8 3.6-8 8z"/></svg>