<svg xmlns="http://www.w3.org/2000/svg" viewBox="258.2 148.9 325.5 297.5"><path fill="#FFF" d="M372.8 315.6h193.7v-12.1c0-4.4 3.6-8 8-8s8 3.6 8 8v20.1c0 4.4-3.6 8-8 8H372.8c-4.4 0-8-3.6-8-8s3.6-8 8-8zm76.4-10.5c3.9 2 8.8.4 10.8-3.5 6.7-13.3 14.3-18.8 26.1-18.8h16.6c11.8 0 19.4 5.4 26.1 18.8 1.4 2.8 4.2 4.4 7.1 4.4 1.2 0 2.4-.3 3.6-.9 3.9-2 5.5-6.8 3.5-10.7-6-11.8-16.6-27.5-40.4-27.5H486c-23.7 0-34.4 15.7-40.4 27.5-2 3.9-.4 8.7 3.6 10.7zm4.6-86.7c0-16 10-30.1 24.6-35.6 2.3-18.8 18.4-33.4 37.8-33.4 21 0 38.1 17.1 38.1 38.1 0 16.3-10.2 30.2-24.6 35.6-2.3 18.8-18.4 33.5-37.8 33.5-21-.2-38.1-17.2-38.1-38.2zm40.4-31v1.1c.6 11.6 10.2 20.8 22 20.9h.1c.9 0 1.8-.1 2.6-.2 10.9-1.4 19.3-10.7 19.3-21.9 0-12.2-9.9-22.1-22.1-22.1-12 .1-21.9 10-21.9 22.2zm-24.4 31c0 12.2 9.9 22.1 22.1 22.1 9.8 0 18.1-6.4 21-15.1-15.2-1.3-27.9-11.6-32.7-25.7-6.3 3.9-10.4 10.9-10.4 18.7zm-147.1 43c19.3 0 35.1 15.7 35.1 35.1 0 19.3-15.7 35.1-35.1 35.1-19.3 0-35.1-15.7-35.1-35.1 0-19.3 15.7-35.1 35.1-35.1zm0 16c-10.5 0-19.1 8.6-19.1 19.1 0 10.5 8.6 19.1 19.1 19.1 10.5 0 19.1-8.6 19.1-19.1 0-10.5-8.6-19.1-19.1-19.1zm259.8 161.5c0 4.4-3.6 8-8 8H265c-4.4 0-8-3.6-8-8s3.6-8 8-8h30.7v-67.6H265c-4.4 0-8-3.6-8-8V209.9c0-25.7 20.9-46.7 46.7-46.7H331c29.3 0 53.6 21.8 57.5 50.1h31.2c4.4 0 8 3.6 8 8s-3.6 8-8 8h-77.4c-4.4 0-8-3.6-8-8s3.6-8 8-8h29.9c-3.7-19.4-20.8-34.1-41.3-34.1h-27.3c-16.9 0-30.7 13.8-30.7 30.7v137.3h301.4c4.4 0 8 3.6 8 8s-3.6 8-8 8h-30.7v67.6h30.7c4.6.1 8.2 3.7 8.2 8.1zm-54.7-75.6H311.7v67.6h216.1v-67.6zm-11.5-167.1c4.9 0 8.8-4 8.8-8.8 0-4.9-4-8.8-8.8-8.8-4.9 0-8.8 4-8.8 8.8-.1 4.8 3.9 8.8 8.8 8.8z"/></svg>