<svg xmlns="http://www.w3.org/2000/svg" viewBox="468.2 1.9 416.6 595.3"><path fill="#FFF" d="M855.1 1.9H497.9c-16.4 0-29.7 13.4-29.7 29.7v535.8c0 16.4 13.4 29.7 29.7 29.7h357.2c16.4 0 29.7-13.4 29.7-29.7V31.6c0-16.3-13.4-29.7-29.7-29.7zM587.2 525.6c0 6.6-5.3 12-12 12h-35.8c-6.6 0-12-5.3-12-12v-35.8c0-6.6 5.3-12 12-12h35.8c6.6 0 12 5.3 12 12v35.8zm0-119c0 6.6-5.3 12-12 12h-35.8c-6.6 0-12-5.3-12-12v-35.7c0-6.6 5.3-12 12-12h35.8c6.6 0 12 5.3 12 12v35.7zm0-119.1c0 6.6-5.3 12-12 12h-35.8c-6.6 0-12-5.3-12-12v-35.8c0-6.6 5.3-12 12-12h35.8c6.6 0 12 5.3 12 12v35.8zm119.1 238.1c0 6.6-5.3 12-12 12h-35.8c-6.6 0-12-5.3-12-12v-35.8c0-6.6 5.3-12 12-12h35.8c6.6 0 12 5.3 12 12v35.8zm0-119c0 6.6-5.3 12-12 12h-35.8c-6.6 0-12-5.3-12-12v-35.7c0-6.6 5.3-12 12-12h35.8c6.6 0 12 5.3 12 12v35.7zm0-119.1c0 6.6-5.3 12-12 12h-35.8c-6.6 0-12-5.3-12-12v-35.8c0-6.6 5.3-12 12-12h35.8c6.6 0 12 5.3 12 12v35.8zm119 238.1c0 6.6-5.3 12-12 12h-35.8c-6.6 0-12-5.3-12-12V370.9c0-6.6 5.3-12 12-12h35.8c6.6 0 12 5.3 12 12v154.7zm0-238.1c0 6.6-5.3 12-12 12h-35.8c-6.6 0-12-5.3-12-12v-35.8c0-6.6 5.3-12 12-12h35.8c6.6 0 12 5.3 12 12v35.8zm0-119c0 6.6-5.3 12-12 12H539.6c-6.6 0-12-5.3-12-12V73.3c0-6.6 5.3-12 12-12h273.9c6.6 0 12 5.3 12 12l-.2 95.2z"/></svg>