<svg xmlns="http://www.w3.org/2000/svg" xmlns:xlink="http://www.w3.org/1999/xlink" viewBox="268.6 132.6 304.8 330"><defs><path id="a" d="M268 133.3h304.8v330H268z"/></defs><clipPath id="b"><use xlink:href="#a" overflow="visible"/></clipPath><path clip-path="url(#b)" fill="#FFF" d="M572.7 187.5c-2.2-12-7.7-23.1-15.8-32.2v-.1c-4.2-4.7-11.1-11.2-20.4-15.3l-.2-.1c-8.9-4.3-18.6-6.5-28.5-6.5-14.8 0-28.8 4.8-40.4 13.8l-.1.1c-10 7.8-16.6 19-17.5 20.4 0 .1-.1.1-.1.2-5.3 9.6-8 20.6-8 31.6 0 2.3.1 4.6.4 6.9.2 2.1 1.5 4 3.4 5 1.2.6 2.5 1.2 3.8 1.6 5.2 15.8 16.4 28.4 30.7 35.5-6.1 3.1-11.6 7.3-16.4 12.3-2.4 2.6-2.3 6.6.3 9 2.6 2.4 6.6 2.3 9-.3 2.3-2.4 4.8-4.6 7.5-6.5 3.9 11 13.9 19 25.2 19h1c11.4 0 21.4-8.6 25-20.3 13.5 8.5 22.2 23.6 22.2 39.7v66.5l-58.2 37.8c-3 1.9-3.8 5.9-1.9 8.9 1.2 1.9 3.3 2.9 5.4 2.9 1.2 0 2.4-.3 3.5-1l61.1-39.7c1.8-1.2 2.9-3.2 2.9-5.4v-70c0-22.7-12.7-43-32.6-53.1 18.9-9.4 32.3-28.5 33.6-50.7 1.8-1.6 3.4-3.6 4.6-5.7.5-1.3.8-2.8.5-4.3zm-66.3 81.7h-1c-7.7 0-14.1-7.4-14.1-16.2v-.3c5 1.3 10.2 2 15.5 2 4.6 0 9-.5 13.3-1.5-.6 8.6-6.8 16-13.7 16zm.3-27.4c-19.3 0-36.4-11.5-43.9-28.7 8.9-2.5 15.7-10.1 17.1-19.3 3.8.5 7.7.7 11.6.7 13 0 25.6-2.7 36.8-8 2.9 9.9 12.1 17.2 23 17.2.8 0 1.6 0 2.4-.1-4.6 21.8-24 38.2-47 38.2zm44.6-50.8c-6.1 0-11.1-5-11.1-11.1v-3.6c0-2.3-1.3-4.5-3.3-5.6-2-1.1-4.5-1.1-6.5.2-11.3 7.1-24.7 10.8-38.8 10.8-5.5 0-11-.6-16.3-1.7-1.9-.4-3.9.1-5.4 1.3-1.5 1.2-2.4 3-2.4 5v3.9c0 6.1-5 11.1-11.1 11.1-.4 0-.8 0-1.2-.1h-.3c-.1 0-.3 0-.4-.1v-1.6c0-8.9 2.2-17.7 6.4-25.4v-.1c.1-.1 5.8-10.1 14.2-16.6 9.4-7.3 20.7-11.1 32.6-11.1 8.1 0 15.8 1.8 23 5.2.1.1.3.1.6.3 7.1 3.2 12.6 8.3 15.9 12l.1.1c6 6.7 10.3 14.8 12.3 23.5-2.1 2.2-5.1 3.6-8.3 3.6zm-99.1 163.7c14.5-8.5 24.3-24.3 24.3-42.3 0-8.1-2-15.8-5.5-22.5-.1-.3-.3-.6-.4-.8-8.3-15.3-24.5-25.8-43.2-25.8-18.6 0-34.9 10.4-43.2 25.8-.2.2-.3.5-.4.8a48.6 48.6 0 0 0-5.5 22.5c0 18 9.8 33.8 24.3 42.3-17.9 9.3-29.3 27.7-29.3 48.1v23.3c0 2.2 1.1 4.2 3 5.4l47.7 30.4c1.1.7 2.2 1 3.4 1s2.4-.3 3.4-1l47.8-30.2c1.9-1.2 3-3.2 3-5.4l-.1-23.5c0-20.5-11.4-38.8-29.3-48.1zm-24.8-78.6c11.1 0 21.1 5 27.8 13-8.6 2.5-18.1 3.8-27.8 3.8s-19.2-1.3-27.8-3.8c6.7-7.9 16.7-13 27.8-13zm-36.2 36.3c0-4.2.7-8.2 2-11.9 10.6 3.4 22.3 5.2 34.3 5.2 12 0 23.7-1.8 34.3-5.2 1.3 3.7 2 7.7 2 11.9 0 20-16.3 36.3-36.3 36.3-20.1 0-36.3-16.3-36.3-36.3zm47.6 47.7c-.8 6.1-6.1 10.1-10.9 10.1h-.8c-5.1 0-10.7-4.3-11.5-10.3 3.8.9 7.7 1.4 11.8 1.4 3.9.2 7.7-.3 11.4-1.2zm-11.4 88.8l-41.3-26.3v-19.8c0-14.1 7.1-26.9 18.6-34.5 4 9.1 13.4 14.8 22.4 14.8h.8c9.7 0 18.2-6.3 21.9-15 11.7 7.5 18.9 20.5 19 34.8l.1 20-41.5 26zm-45.9-171.7c1.9-3 .9-6.9-2.1-8.8-1.9-1.2-4-2.3-6-3.3 7.9-4 14.9-9.8 20.5-17.1 2.3.8 4.7 1.2 7.3 1.2 12.3 0 22.3-10 22.3-22.3V211c0-20.2-7.7-39.4-21.7-53.9s-32.8-22.9-52.9-23.7c-1.7-.1-3.4-.1-5 0-20 .5-38.9 8.6-53.2 22.8-14.6 14.5-22.7 34-22.7 54.8v15.9c0 12.3 10 22.3 22.3 22.3 2.6 0 5-.4 7.3-1.2 6.1 8 14 14.2 22.9 18.3-19.7 10.4-32 30.5-32 52.8v52.4c0 2.2 1.1 4.2 2.9 5.4l58.1 37.7c1.1.7 2.3 1 3.5 1 2.1 0 4.1-1 5.4-2.9 1.9-3 1.1-6.9-1.9-8.9L301.4 368v-49c0-14.8 6.9-28.4 18.4-37.2 4 11.5 14.1 20.1 25.4 20.1h1c12.2 0 22-11.1 25.4-23.4.4.2.8.5 1.1.7 3 1.9 6.9 1 8.8-2zm-75.4-89.5c-4.1 7-6.3 15.1-6.3 23.3v15.9c0 3-1.4 5.7-3.6 7.5-.2.1-.4.3-.5.4-1.5 1-3.3 1.6-5.3 1.6-5.2 0-9.5-4.3-9.5-9.5V211c0-35.5 27.8-64 63.3-64.9h4.2c34.9 1.4 62.3 29.9 62.3 64.9v15.9c0 5.2-4.3 9.5-9.5 9.5-2 0-3.8-.6-5.3-1.6-.2-.1-.4-.3-.5-.4-2.2-1.7-3.6-4.4-3.6-7.5V211c0-22.6-16.8-42.1-39.1-45.4-1.8-.3-3.5.2-4.9 1.3-1.4 1.1-2.3 2.7-2.4 4.5-.4 4.5-1.2 8.9-2.4 13.2h-31.1c-2.5 0-4.6 1.2-5.8 3.1zm40 101.4h-1c-7.2 0-14.3-8.8-14.3-17.7 0-.6-.1-1.1-.2-1.6 4.9 1.2 9.9 1.9 15.1 1.9 4.9 0 9.7-.6 14.3-1.7-.4 9.3-7.4 19.1-13.9 19.1zm-.4-30.2c-14.9 0-28.7-6.8-37.7-18.4 2.9-3.8 4.6-8.5 4.6-13.6V211c0-4.7 1-9.4 2.9-13.6h31.8c2.7 0 5.1-1.7 6-4.2 1.6-4.3 2.8-8.8 3.6-13.3 12.8 4.7 21.8 17.1 21.8 31.1v15.9c0 5.1 1.7 9.8 4.6 13.6-8.9 11.6-22.7 18.4-37.6 18.4z"/></svg>