<svg xmlns="http://www.w3.org/2000/svg" xmlns:xlink="http://www.w3.org/1999/xlink" viewBox="270 106.3 294 384"><defs><path id="a" d="M276 106.3h288v384H276z"/></defs><clipPath id="b"><use xlink:href="#a" overflow="visible"/></clipPath><path clip-path="url(#b)" fill="#FFF" d="M446.4 186.3c0 4.4-3.6 8-8 8h-1.6c-4.4 0-8-3.6-8-8s3.6-8 8-8h1.6c4.4 0 8 3.6 8 8zm11 206.8c8.6 8.9 8.4 23.2-.3 32L437 445.3c-4.5 4.5-10.6 7-17 7s-12.4-2.5-17-7l-20.1-20.1c-8.7-8.7-8.9-23.1-.3-32 4.2-4.4 9.9-6.8 16.1-6.9 6.3-.1 12.4 2.4 16.8 6.8l4.6 4.6 4.6-4.6c4.4-4.4 10.5-6.9 16.8-6.8 6 0 11.7 2.5 15.9 6.8zm-11.5 11.1c-1.2-1.3-2.9-1.9-4.7-2h-.1c-2 0-3.9.8-5.2 2.1l-10.2 10.2c-1.5 1.5-3.5 2.3-5.7 2.3-2.1 0-4.2-.8-5.7-2.3l-10.2-10.2c-1.4-1.4-3.3-2.1-5.2-2.1h-.1c-1.8 0-3.5.7-4.7 2-2.6 2.7-2.5 6.9.1 9.6l20.1 20.1c1.5 1.5 3.5 2.3 5.7 2.3 2.1 0 4.1-.8 5.7-2.3l20.1-20.1c2.6-2.6 2.7-6.9.1-9.6zm-42.7-225.9h-1.6c-4.4 0-8 3.6-8 8s3.6 8 8 8h1.6c4.4 0 8-3.6 8-8s-3.6-8-8-8zM387.1 328c9.1-8.9 20.8-13.7 32.9-13.7s23.7 4.9 32.9 13.7c3.2 3.1 8.2 3 11.3-.2 3.1-3.2 3-8.2-.2-11.3-12.1-11.8-27.8-18.3-44-18.3s-31.9 6.5-44 18.3c-3.2 3.1-3.3 8.1-.2 11.3 1.6 1.6 3.7 2.4 5.7 2.4 2.1.1 4.1-.7 5.6-2.2zm170.6 142.3c-8.4 12.5-23.6 20-40.5 20H322.7c-16.9 0-32-7.5-40.5-20-6.8-10-8.1-22.1-3.7-33.1l29.4-72.9v-42c0-14.2 3.6-27.8 10.2-39.9-.3-.3-.5-.5-.7-.9-11.4-16.2-17.4-35.3-17.4-55.2 0-66.2 53.8-120 120-120s120 53.8 120 120c0 19.9-6 39-17.5 55.2-.2.3-.4.6-.7.9 6.5 12.2 10.2 25.7 10.2 39.9v42l29.4 72.9c4.5 11 3.1 23.1-3.7 33.1zM327.7 268c13.4-16.7 32.9-29.6 55.7-36.4-18.9-12.1-31.4-33.3-31.4-57.3v-.1c0-7.5 4.5-14.2 11.5-17.1 16.8-7.1 36.4-10.8 56.6-10.8s39.8 3.7 56.6 10.8c6.9 2.9 11.4 9.6 11.5 17.1v.1c0 24-12.5 45.2-31.4 57.3 22.8 6.8 42.2 19.7 55.7 36.4 7.7-12.5 11.7-26.8 11.7-41.7 0-57.3-46.7-104-104-104-57.4 0-104 46.7-104 104-.2 14.8 3.8 29.1 11.5 41.7zM472 174.3c0-1.1-.7-2.1-1.6-2.5-14.9-6.2-32.3-9.5-50.4-9.5s-35.5 3.3-50.4 9.5c-1 .4-1.6 1.4-1.6 2.4 0 28.7 23.3 52.1 52 52.1s52-23.3 52-52zm-52 68c-5.4 0-10.8.4-16 1.1.6 8.3 7.5 14.9 16 14.9s15.4-6.6 16-14.9c-5.2-.7-10.6-1.1-16-1.1zm126.6 200.9l-25.4-63.1-6.8 6.8c-6 6-14.1 9.4-22.6 9.4-8.5 0-16.6-3.3-22.6-9.4-6-6-9.4-14.1-9.4-22.6s3.3-16.6 9.4-22.6l13.8-13.8-6.7-27.6a8.1 8.1 0 0 1 5.9-9.7c4.3-1 8.6 1.6 9.7 5.9l7.2 29.8 17 17v-21c0-34.9-26.9-64.6-64.3-75.5-2.2 15.5-15.6 27.5-31.7 27.5s-29.5-12-31.7-27.5c-37.4 10.9-64.3 40.7-64.3 75.5v21l17-17 7.2-29.8c1-4.3 5.4-6.9 9.7-5.9 4.3 1 6.9 5.4 5.9 9.7l-6.7 27.6 13.8 13.8c6 6 9.4 14.1 9.4 22.6s-3.3 16.6-9.4 22.6c-6 6-14.1 9.4-22.6 9.4-8.5 0-16.6-3.3-22.6-9.4l-6.8-6.8-25.4 63.1c-2.5 6.1-1.7 12.6 2.1 18.2 5.4 8 15.8 12.9 27.2 12.9h194.6c11.4 0 21.8-4.9 27.2-12.9 3.6-5.7 4.3-12.2 1.9-18.2zM337 375.5c3 3 7 4.7 11.3 4.7 4.3 0 8.3-1.7 11.3-4.7s4.7-7 4.7-11.3-1.7-8.3-4.7-11.3l-11.3-11.3-22.6 22.6 11.3 11.3zm154.7-33.9l-11.3 11.3c-3 3-4.7 7-4.7 11.3s1.7 8.3 4.7 11.3 7 4.7 11.3 4.7c4.3 0 8.3-1.7 11.3-4.7l11.3-11.3-22.6-22.6z"/></svg>