<?xml version="1.0" encoding="utf-8"?>
<!-- Generator: Adobe Illustrator 18.1.1, SVG Export Plug-In . SVG Version: 6.00 Build 0)  -->
<svg version="1.1" id="Слой_1" xmlns="http://www.w3.org/2000/svg" xmlns:xlink="http://www.w3.org/1999/xlink" x="0px" y="0px"
	 viewBox="304 135.4 231.9 325.9" enable-background="new 304 135.4 231.9 325.9" xml:space="preserve">
<g>
	<g>
		<g>
			<defs>
				<rect id="SVGID_1_" x="304" y="135.3" width="231.8" height="326"/>
			</defs>
			<clipPath id="SVGID_2_">
				<use xlink:href="#SVGID_1_"  overflow="visible"/>
			</clipPath>
			<path fill="#47a364" clip-path="url(#SVGID_2_)" d="M443.3,287.3c0-4.4,3.6-8,8-8h11.4c4.4,0,8,3.6,8,8s-3.6,8-8,8h-11.4
				C446.9,295.3,443.3,291.7,443.3,287.3L443.3,287.3z M451.3,328.8h11.4c4.4,0,8-3.6,8-8s-3.6-8-8-8h-11.4c-4.4,0-8,3.6-8,8
				S446.9,328.8,451.3,328.8L451.3,328.8z M377.2,261.4h47.1c4.4,0,8-3.6,8-8s-3.6-8-8-8h-47.1c-4.4,0-8,3.6-8,8
				S372.8,261.4,377.2,261.4L377.2,261.4z M451.3,261.4h11.4c4.4,0,8-3.6,8-8s-3.6-8-8-8h-11.4c-4.4,0-8,3.6-8,8
				S446.9,261.4,451.3,261.4L451.3,261.4z M535.9,182v270.8c0,4.4-3.6,8-8,8H312c-4.4,0-8-3.6-8-8V182c0-4.4,3.6-8,8-8h41.1v-11.3
				c0-4.4,3.6-8,8-8h30.4c3.4-11.2,13.9-19.3,26.1-19.3c12.3,0,22.7,8.2,26.1,19.3h30.4c4.4,0,8,3.6,8,8V174h45.7
				C532.4,174,535.9,177.5,535.9,182L535.9,182z M369.1,193.3h97.2v-22.7H437c-4.4,0-8-3.6-8-8c0-6.2-5.1-11.3-11.3-11.3
				c-6.3,0-11.3,5.1-11.3,11.3c0,4.4-3.6,8-8,8h-29.2L369.1,193.3L369.1,193.3z M519.9,190h-37.7v11.3c0,4.4-3.6,8-8,8H361.1
				c-4.4,0-8-3.6-8-8V190H320v254.8h199.9V190z M441.5,354.5h46.9v-124c0-4.4,3.6-8,8-8s8,3.6,8,8v131.9c0,0.4,0,0.7-0.1,1.1l0,0
				l0,0l0,0l0,0l0,0l0,0l0,0l0,0c0,0.3-0.1,0.5-0.2,0.8l0,0l0,0l0,0l0,0l0,0l0,0l0,0l0,0c-0.3,1.3-1,2.6-2,3.6l0,0l0,0l0,0l0,0l0,0
				l0,0L447.2,423l0,0l0,0l0,0l0,0l0,0c-1,1-2.2,1.7-3.5,2l0,0l0,0l0,0c-0.3,0.1-0.5,0.1-0.8,0.2l0,0l0,0l0,0l0,0
				c-0.4,0.1-0.8,0.1-1.1,0.1h-97.9c-4.4,0-8-3.6-8-8V230.5c0-4.4,3.6-8,8-8s8,3.6,8,8v178.8h81.9v-46.9
				C433.5,358,437.1,354.5,441.5,354.5L441.5,354.5z M449.5,398l27.5-27.5h-27.5V398z M377.2,295.3h47.1c4.4,0,8-3.6,8-8s-3.6-8-8-8
				h-47.1c-4.4,0-8,3.6-8,8S372.8,295.3,377.2,295.3L377.2,295.3z M377.2,379.5h6.5v6.5c0,4.4,3.6,8,8,8s8-3.6,8-8v-6.5h6.5
				c4.4,0,8-3.6,8-8c0-4.4-3.6-8-8-8h-6.5V357c0-4.4-3.6-8-8-8s-8,3.6-8,8v6.5h-6.5c-4.4,0-8,3.6-8,8
				C369.2,375.9,372.8,379.5,377.2,379.5L377.2,379.5z M377.2,328.8h47.1c4.4,0,8-3.6,8-8s-3.6-8-8-8h-47.1c-4.4,0-8,3.6-8,8
				S372.8,328.8,377.2,328.8L377.2,328.8z"/>
		</g>
	</g>
</g>
</svg>
