<?xml version="1.0" encoding="utf-8"?>
<!-- Generator: Adobe Illustrator 19.0.0, SVG Export Plug-In . SVG Version: 6.00 Build 0)  -->
<svg version="1.1" id="Слой_1" xmlns="http://www.w3.org/2000/svg" xmlns:xlink="http://www.w3.org/1999/xlink" x="0px" y="0px"
	 viewBox="123 393.3 231.9 326" style="enable-background:new 123 393.3 231.9 326;" xml:space="preserve">
<style type="text/css">
	.st0{clip-path:url(#SVGID_2_);fill:#FFFFFF;}
</style>
<g>
	<g>
		<g>
			<g>
				<defs>
					<rect id="SVGID_1_" x="123" y="393.3" width="231.8" height="326"/>
				</defs>
				<clipPath id="SVGID_2_">
					<use xlink:href="#SVGID_1_"  style="overflow:visible;"/>
				</clipPath>
				<path class="st0" d="M262.3,545.3c0-4.4,3.6-8,8-8h11.4c4.4,0,8,3.6,8,8c0,4.4-3.6,8-8,8h-11.4
					C265.9,553.3,262.3,549.7,262.3,545.3L262.3,545.3z M270.3,586.8h11.4c4.4,0,8-3.6,8-8c0-4.4-3.6-8-8-8h-11.4c-4.4,0-8,3.6-8,8
					C262.3,583.2,265.9,586.8,270.3,586.8L270.3,586.8z M196.2,519.4h47.1c4.4,0,8-3.6,8-8c0-4.4-3.6-8-8-8h-47.1c-4.4,0-8,3.6-8,8
					C188.2,515.8,191.8,519.4,196.2,519.4L196.2,519.4z M270.3,519.4h11.4c4.4,0,8-3.6,8-8c0-4.4-3.6-8-8-8h-11.4c-4.4,0-8,3.6-8,8
					C262.3,515.8,265.9,519.4,270.3,519.4L270.3,519.4z M354.9,440v270.8c0,4.4-3.6,8-8,8H131c-4.4,0-8-3.6-8-8V440c0-4.4,3.6-8,8-8
					h41.1v-11.3c0-4.4,3.6-8,8-8h30.4c3.4-11.2,13.9-19.3,26.1-19.3c12.3,0,22.7,8.2,26.1,19.3h30.4c4.4,0,8,3.6,8,8V432h45.7
					C351.4,432,354.9,435.5,354.9,440L354.9,440z M188.1,451.3h97.2v-22.7H256c-4.4,0-8-3.6-8-8c0-6.2-5.1-11.3-11.3-11.3
					c-6.3,0-11.3,5.1-11.3,11.3c0,4.4-3.6,8-8,8h-29.2L188.1,451.3L188.1,451.3z M338.9,448h-37.7v11.3c0,4.4-3.6,8-8,8H180.1
					c-4.4,0-8-3.6-8-8V448H139v254.8h199.9V448z M260.5,612.5h46.9v-124c0-4.4,3.6-8,8-8s8,3.6,8,8v131.9c0,0.4,0,0.7-0.1,1.1l0,0
					l0,0l0,0l0,0l0,0l0,0l0,0l0,0c0,0.3-0.1,0.5-0.2,0.8l0,0l0,0l0,0l0,0l0,0l0,0l0,0l0,0c-0.3,1.3-1,2.6-2,3.6l0,0l0,0l0,0l0,0l0,0
					l0,0L266.2,681l0,0l0,0l0,0l0,0l0,0c-1,1-2.2,1.7-3.5,2l0,0l0,0l0,0c-0.3,0.1-0.5,0.1-0.8,0.2l0,0l0,0l0,0l0,0
					c-0.4,0.1-0.8,0.1-1.1,0.1h-97.9c-4.4,0-8-3.6-8-8V488.5c0-4.4,3.6-8,8-8s8,3.6,8,8v178.8h81.9v-46.9
					C252.5,616,256.1,612.5,260.5,612.5L260.5,612.5z M268.5,656l27.5-27.5h-27.5V656z M196.2,553.3h47.1c4.4,0,8-3.6,8-8
					c0-4.4-3.6-8-8-8h-47.1c-4.4,0-8,3.6-8,8C188.2,549.7,191.8,553.3,196.2,553.3L196.2,553.3z M196.2,637.5h6.5v6.5
					c0,4.4,3.6,8,8,8s8-3.6,8-8v-6.5h6.5c4.4,0,8-3.6,8-8c0-4.4-3.6-8-8-8h-6.5V615c0-4.4-3.6-8-8-8s-8,3.6-8,8v6.5h-6.5
					c-4.4,0-8,3.6-8,8C188.2,633.9,191.8,637.5,196.2,637.5L196.2,637.5z M196.2,586.8h47.1c4.4,0,8-3.6,8-8c0-4.4-3.6-8-8-8h-47.1
					c-4.4,0-8,3.6-8,8C188.2,583.2,191.8,586.8,196.2,586.8L196.2,586.8z"/>
			</g>
		</g>
	</g>
</g>
</svg>
