<?xml version="1.0" encoding="utf-8"?>
<!-- Generator: Adobe Illustrator 18.1.1, SVG Export Plug-In . SVG Version: 6.00 Build 0)  -->
<svg version="1.1" id="Слой_1" xmlns="http://www.w3.org/2000/svg" xmlns:xlink="http://www.w3.org/1999/xlink" x="0px" y="0px"
	 viewBox="258 150.1 325.9 295" enable-background="new 258 150.1 325.9 295" xml:space="preserve">
<g>
	<g>
		<g>
			<defs>
				<rect id="SVGID_1_" x="257" y="150.3" width="325.9" height="295"/>
			</defs>
			<clipPath id="SVGID_2_">
				<use xlink:href="#SVGID_1_"  overflow="visible"/>
			</clipPath>
			<path clip-path="url(#SVGID_2_)" fill="#FFFFFF" d="M461.6,197.8c-3.1-3.1-3.1-8.2,0-11.3l14-14c3.1-3.1,8.2-3.1,11.3,0
				c3.1,3.1,3.1,8.2,0,11.3l-14,14c-1.6,1.6-3.6,2.3-5.7,2.3C465.2,200.2,463.2,199.4,461.6,197.8L461.6,197.8z M398.8,197.8
				c1.6,1.6,3.6,2.3,5.7,2.3s4.1-0.8,5.7-2.3c3.1-3.1,3.1-8.2,0-11.3l-14-14c-3.1-3.1-8.2-3.1-11.3,0c-3.1,3.1-3.1,8.2,0,11.3
				L398.8,197.8z M436.8,186.1c4.4,0,8-3.6,8-8v-19.9c0-4.4-3.6-8-8-8c-4.4,0-8,3.6-8,8v19.9C428.8,182.6,432.4,186.1,436.8,186.1
				L436.8,186.1z M513.1,316c1.7,2.4,2,5.6,0.6,8.3c-1.4,2.7-4.1,4.3-7.1,4.3h-74.8c-4.4,0-8-3.6-8-8v-42.7c0-4.4,3.6-8,8-8h44.5
				c2.6,0,5,1.3,6.5,3.4L513.1,316z M491,312.6l-19-26.7h-32.4v26.7H491z M366.7,290.8h-13.8v-13.9c0-4.4-3.6-8-8-8
				c-4.4,0-8,3.6-8,8v13.9H323c-4.4,0-8,3.6-8,8s3.6,8,8,8h13.9v13.8c0,4.4,3.6,8,8,8c4.4,0,8-3.6,8-8v-13.8h13.8c4.4,0,8-3.6,8-8
				S371.1,290.8,366.7,290.8L366.7,290.8z M543.6,406c-1.5,8.6-5.3,16.4-10.8,22.7H575c4.4,0,8,3.6,8,8s-3.6,8-8,8H265.5
				c-4.4,0-8-3.6-8-8s3.6-8,8-8h42.2c-5.5-6.3-9.4-14.1-10.8-22.7H265c-4.4,0-8-3.6-8-8V243.3c0-4.4,3.6-8,8-8h145.1v-10.6
				c0-14.7,11.9-26.6,26.6-26.6h0.3c14.7,0,26.6,11.9,26.6,26.6v10.6h34c2.6,0,5,1.3,6.5,3.4l77.4,109c1,1.4,1.5,3,1.5,4.6V398
				c0,4.4-3.6,8-8,8H543.6z M426.1,235.3h21.4v-10.6c0-5.8-4.7-10.6-10.6-10.6h-0.3c-5.8,0-10.6,4.7-10.6,10.6v10.6H426.1z
				 M373.5,398c0-16.9-13.8-30.7-30.7-30.7c-16.9,0-30.7,13.8-30.7,30.7s13.8,30.7,30.7,30.7C359.7,428.7,373.5,414.9,373.5,398
				L373.5,398z M462.4,428.7c-5.5-6.3-9.4-14.1-10.8-22.7h-62.7c-1.5,8.6-5.3,16.4-10.8,22.7H462.4z M528.3,398
				c0-16.9-13.8-30.7-30.7-30.7c-16.9,0-30.7,13.8-30.7,30.7s13.8,30.7,30.7,30.7S528.3,414.9,528.3,398L528.3,398z M543.6,390H567
				v-35.2l-73.5-103.5H273V390h23.9c3.8-21.9,23-38.7,46-38.7c23,0,42.2,16.7,46,38.7h62.7c3.8-21.9,23-38.7,46-38.7
				C520.6,351.3,539.8,368.1,543.6,390L543.6,390z M497.6,389.2c-4.9,0-8.8,4-8.8,8.8c0,4.9,4,8.8,8.8,8.8c4.9,0,8.8-4,8.8-8.8
				C506.4,393.1,502.5,389.2,497.6,389.2L497.6,389.2z M342.9,389.2c-4.9,0-8.8,4-8.8,8.8c0,4.9,4,8.8,8.8,8.8c4.9,0,8.8-4,8.8-8.8
				C351.7,393.1,347.7,389.2,342.9,389.2L342.9,389.2z"/>
		</g>
	</g>
</g>
</svg>
