<?xml version="1.0" encoding="utf-8"?>
<!-- Generator: Adobe Illustrator 18.1.1, SVG Export Plug-In . SVG Version: 6.00 Build 0)  -->
<svg version="1.1" id="Слой_1" xmlns="http://www.w3.org/2000/svg" xmlns:xlink="http://www.w3.org/1999/xlink" x="0px" y="0px"
	 viewBox="342.2 218.9 157.4 157.4" enable-background="new 342.2 218.9 157.4 157.4" xml:space="preserve">
<g>
	<path fill="#FFFFFF" d="M493.6,228.2h-31.5v-4.5c0-2.6-2.1-4.6-4.8-4.6c-2.6,0-4.8,2-4.8,4.6v4.5h-28v-4.5c0-2.6-2.1-4.6-4.8-4.6
		c-2.7,0-4.8,2-4.8,4.6v4.5H388v-4.5c0-2.6-2.1-4.6-4.8-4.6c-2.6,0-4.8,2-4.8,4.6v4.5h-32.6c-2.7,0-4.8,2-4.8,4.6v104.9
		c0,2.5,2.1,4.6,4.8,4.6h29.5c4.7,19.5,22.8,34,44.4,34c21.6,0,39.7-14.6,44.4-34h29.5c2.7,0,4.8-2.1,4.8-4.6V232.8
		C498.4,230.3,496.2,228.2,493.6,228.2L493.6,228.2z M378.4,237.5v4.2c0,2.5,2.2,4.6,4.8,4.6c2.7,0,4.8-2.1,4.8-4.6v-4.2h26.9v4.2
		c0,2.5,2.1,4.6,4.8,4.6c2.6,0,4.8-2.1,4.8-4.6v-4.2h28v4.2c0,2.5,2.2,4.6,4.8,4.6c2.7,0,4.8-2.1,4.8-4.6v-4.2h26.7v18.9H350.6
		v-18.9H378.4z M419.7,367.1c-19.9,0-36-15.7-36-34.8c0-19.2,16.2-34.8,36-34.8c19.9,0,36,15.7,36,34.8
		C455.7,351.4,439.6,367.1,419.7,367.1L419.7,367.1z M465.3,333.1c0-0.3,0-0.5,0-0.8c0-24.4-20.5-44.1-45.6-44.1
		c-25.2,0-45.6,19.8-45.6,44.1c0,0.3,0,0.5,0,0.8h-23.5v-67.3h138.2v67.3H465.3z"/>
	<path fill="#FFFFFF" d="M424.5,333.5V311c0-2.6-2.1-4.6-4.8-4.6c-2.7,0-4.8,2-4.8,4.6v24.4c0,1.3,0.5,2.4,1.4,3.3l11,10.6
		c0.9,0.9,2.2,1.4,3.4,1.4s2.5-0.5,3.4-1.4c1.9-1.8,1.9-4.7,0-6.6L424.5,333.5z"/>
</g>
</svg>
