<?xml version="1.0" encoding="utf-8"?>
<!-- Generator: Adobe Illustrator 18.1.1, SVG Export Plug-In . SVG Version: 6.00 Build 0)  -->
<svg version="1.1" id="Слой_1" xmlns="http://www.w3.org/2000/svg" xmlns:xlink="http://www.w3.org/1999/xlink" x="0px" y="0px"
	 viewBox="295.9 147.8 250.1 299.7" enable-background="new 295.9 147.8 250.1 299.7" xml:space="preserve">
<g>
	<path fill="#FFFFFF" d="M545.1,260.3c0,53.9-51.3,97.8-114.3,97.8h-21.5c-54.2,0-98.3,36.7-98.3,81.8c0,4.4-3.6,8-8,8
		c-4.4,0-8-3.6-8-8c0-53.9,51.3-97.8,114.3-97.8h21.5c54.2,0,98.3-36.7,98.3-81.8c0-4.4,3.6-8,8-8
		C541.5,252.3,545.1,255.9,545.1,260.3L545.1,260.3z M303,343.8c4.4,0,8-3.6,8-8c0-45.1,44.1-81.8,98.3-81.8h21.5
		c63,0,114.3-43.9,114.3-97.8c0-4.4-3.6-8-8-8c-4.4,0-8,3.6-8,8c0,45.1-44.1,81.8-98.3,81.8h-21.5c-63,0-114.3,43.9-114.3,97.8
		C295,340.2,298.6,343.8,303,343.8L303,343.8z M412,273.5v49.2c0,4.4,3.6,8,8,8s8-3.6,8-8v-49.2c0-4.4-3.6-8-8-8S412,269,412,273.5
		L412,273.5z M488.8,260.8v21.1c0,4.4,3.6,8,8,8c4.4,0,8-3.6,8-8v-21.1c0-4.4-3.6-8-8-8C492.4,252.8,488.8,256.4,488.8,260.8
		L488.8,260.8z M450.4,273.7v36.2c0,4.4,3.6,8,8,8s8-3.6,8-8v-36.2c0-4.4-3.6-8-8-8S450.4,269.3,450.4,273.7L450.4,273.7z
		 M335.3,314.2v21.1c0,4.4,3.6,8,8,8s8-3.6,8-8v-21.1c0-4.4-3.6-8-8-8S335.3,309.8,335.3,314.2L335.3,314.2z M373.7,286.2v36.2
		c0,4.4,3.6,8,8,8s8-3.6,8-8v-36.2c0-4.4-3.6-8-8-8C377.2,278.2,373.7,281.7,373.7,286.2L373.7,286.2z M303,374.5c4.4,0,8-3.6,8-8
		V362c0-4.4-3.6-8-8-8c-4.4,0-8,3.6-8,8v4.6C295,371,298.6,374.5,303,374.5L303,374.5z M528.1,227.5v4.6c0,4.4,3.6,8,8,8
		c4.4,0,8-3.6,8-8v-4.6c0-4.4-3.6-8-8-8S528.1,223.1,528.1,227.5L528.1,227.5z"/>
</g>
</svg>
