<?xml version="1.0" encoding="utf-8"?>
<!-- Generator: Adobe Illustrator 18.1.1, SVG Export Plug-In . SVG Version: 6.00 Build 0)  -->
<svg version="1.1" id="Слой_1" xmlns="http://www.w3.org/2000/svg" xmlns:xlink="http://www.w3.org/1999/xlink" x="0px" y="0px"
	 viewBox="296 134.3 248.9 328" enable-background="new 296 134.3 248.9 328" xml:space="preserve">
<g>
	<g>
		<g>
			<defs>
				<rect id="SVGID_1_" x="296" y="134.3" width="248.9" height="328"/>
			</defs>
			<clipPath id="SVGID_2_">
				<use xlink:href="#SVGID_1_"  overflow="visible"/>
			</clipPath>
			<path clip-path="url(#SVGID_2_)" fill="#FFFFFF" d="M439,177.2c0,4.4-3.6,8-8,8h-2.9v2.9c0,4.4-3.6,8-8,8s-8-3.6-8-8v-2.9h-2.9
				c-4.4,0-8-3.6-8-8c0-4.4,3.6-8,8-8h2.9v-2.9c0-4.4,3.6-8,8-8s8,3.6,8,8v2.9h2.9C435.4,169.2,439,172.8,439,177.2L439,177.2z
				 M374.1,214c0-0.3,0-0.6,0.1-0.9c0-0.3-0.1-0.6-0.1-0.9v-69.9c0-4.4,3.6-8,8-8H458c4.4,0,8,3.6,8,8v69.9c0,0.3,0,0.6-0.1,0.9
				c0,0.3,0.1,0.6,0.1,0.9c0,25.3-20.6,46-46,46C394.7,260,374.1,239.4,374.1,214L374.1,214z M449.4,220.1h-58.7
				c2.8,13.6,14.9,23.8,29.3,23.8C434.5,244,446.6,233.7,449.4,220.1L449.4,220.1z M390.1,204.1H450v-53.9h-59.9V204.1z
				 M476.5,356.7c-4.4,0-8,3.6-8,8v81.1h-96.8v-81.1c0-4.4-3.6-8-8-8s-8,3.6-8,8v89.1c0,4.4,3.6,8,8,8h112.8c4.4,0,8-3.6,8-8v-89.1
				C484.5,360.3,480.9,356.7,476.5,356.7L476.5,356.7z M539.7,416.7c-1.2,0.6-2.4,0.9-3.6,0.9c-2.9,0-5.7-1.6-7.1-4.4l-39.8-78.9
				c-8.1-16.1-19.4-32.5-41.4-36.9v61c7.3,3.1,12.5,10.4,12.5,18.8c0,11.3-9.2,20.5-20.5,20.5c-11.3,0-20.5-9.2-20.5-20.5
				c0-8.4,5.1-15.7,12.5-18.8v-62.2h-25.9v13.2c7.3,2.7,12.5,9.1,12.5,16.4v15c0,4.4-3.6,8-8,8c-4.4,0-8-3.6-8-8v-15
				c-0.1-0.4-1.7-1.9-4.5-1.9s-4.3,1.4-4.5,1.9v15c0,4.4-3.6,8-8,8s-8-3.6-8-8v-15c0-7.4,5.1-13.7,12.5-16.5v-11.4
				c-20.4,5.2-31.1,20.9-38.9,36.3l-39.8,78.9c-2,3.9-6.8,5.5-10.7,3.5c-3.9-2-5.5-6.8-3.5-10.7l39.8-78.9
				c10.2-20.1,28.3-46.9,68.2-46.9h30.4c39.9,0,58,26.8,68.2,46.9l39.8,78.9C545.2,409.9,543.7,414.7,539.7,416.7L539.7,416.7z
				 M444.2,377.1c0-2.4-1.9-4.4-4.3-4.5c-0.1,0-0.2,0-0.2,0c-2.4,0.1-4.3,2-4.3,4.5s2,4.5,4.5,4.5S444.2,379.6,444.2,377.1
				L444.2,377.1z"/>
		</g>
	</g>
</g>
</svg>
