<?xml version="1.0" encoding="utf-8"?>
<!-- Generator: Adobe Illustrator 18.1.1, SVG Export Plug-In . SVG Version: 6.00 Build 0)  -->
<svg version="1.1" id="Слой_1" xmlns="http://www.w3.org/2000/svg" xmlns:xlink="http://www.w3.org/1999/xlink" x="0px" y="0px"
	 viewBox="268.6 132.6 304.8 330" enable-background="new 268.6 132.6 304.8 330" xml:space="preserve">
<g>
	<g>
		<g>
			<defs>
				<rect id="SVGID_1_" x="268" y="133.3" width="304.8" height="330"/>
			</defs>
			<clipPath id="SVGID_2_">
				<use xlink:href="#SVGID_1_"  overflow="visible"/>
			</clipPath>
			<path clip-path="url(#SVGID_2_)" fill="#FFFFFF" d="M572.7,187.5c-2.2-12-7.7-23.1-15.8-32.2c0,0,0,0,0-0.1
				c-4.2-4.7-11.1-11.2-20.4-15.3l-0.2-0.1c-8.9-4.3-18.6-6.5-28.5-6.5c-14.8,0-28.8,4.8-40.4,13.8l-0.1,0.1
				c-10,7.8-16.6,19-17.5,20.4c0,0.1-0.1,0.1-0.1,0.2c-5.3,9.6-8,20.6-8,31.6c0,2.3,0.1,4.6,0.4,6.9c0.2,2.1,1.5,4,3.4,5
				c1.2,0.6,2.5,1.2,3.8,1.6c5.2,15.8,16.4,28.4,30.7,35.5c-6.1,3.1-11.6,7.3-16.4,12.3c-2.4,2.6-2.3,6.6,0.3,9
				c2.6,2.4,6.6,2.3,9-0.3c2.3-2.4,4.8-4.6,7.5-6.5c3.9,11,13.9,19,25.2,19h1c11.4,0,21.4-8.6,25-20.3c13.5,8.5,22.2,23.6,22.2,39.7
				v66.5l-58.2,37.8c-3,1.9-3.8,5.9-1.9,8.9c1.2,1.9,3.3,2.9,5.4,2.9c1.2,0,2.4-0.3,3.5-1l61.1-39.7c1.8-1.2,2.9-3.2,2.9-5.4v-70
				c0-22.7-12.7-43-32.6-53.1c18.9-9.4,32.3-28.5,33.6-50.7c1.8-1.6,3.4-3.6,4.6-5.7C572.7,190.5,573,189,572.7,187.5L572.7,187.5z
				 M506.4,269.2h-1c-7.7,0-14.1-7.4-14.1-16.2c0-0.1,0-0.2,0-0.3c5,1.3,10.2,2,15.5,2c4.6,0,9-0.5,13.3-1.5
				C519.5,261.8,513.3,269.2,506.4,269.2L506.4,269.2z M506.7,241.8c-19.3,0-36.4-11.5-43.9-28.7c8.9-2.5,15.7-10.1,17.1-19.3
				c3.8,0.5,7.7,0.7,11.6,0.7c13,0,25.6-2.7,36.8-8c2.9,9.9,12.1,17.2,23,17.2c0.8,0,1.6,0,2.4-0.1
				C549.1,225.4,529.7,241.8,506.7,241.8L506.7,241.8z M551.3,191c-6.1,0-11.1-5-11.1-11.1v-3.6c0-2.3-1.3-4.5-3.3-5.6
				c-2-1.1-4.5-1.1-6.5,0.2c-11.3,7.1-24.7,10.8-38.8,10.8c-5.5,0-11-0.6-16.3-1.7c-1.9-0.4-3.9,0.1-5.4,1.3c-1.5,1.2-2.4,3-2.4,5
				v3.9c0,6.1-5,11.1-11.1,11.1c-0.4,0-0.8,0-1.2-0.1c-0.1,0-0.2,0-0.3,0c-0.1,0-0.3,0-0.4-0.1c0-0.5,0-1.1,0-1.6
				c0-8.9,2.2-17.7,6.4-25.4V174c0.1-0.1,5.8-10.1,14.2-16.6l0,0c9.4-7.3,20.7-11.1,32.6-11.1c8.1,0,15.8,1.8,23,5.2
				c0.1,0.1,0.3,0.1,0.6,0.3c7.1,3.2,12.6,8.3,15.9,12l0.1,0.1c6,6.7,10.3,14.8,12.3,23.5C557.5,189.6,554.5,191,551.3,191
				L551.3,191z M452.2,354.7c14.5-8.5,24.3-24.3,24.3-42.3c0-8.1-2-15.8-5.5-22.5c-0.1-0.3-0.3-0.6-0.4-0.8
				c-8.3-15.3-24.5-25.8-43.2-25.8c-18.6,0-34.9,10.4-43.2,25.8c-0.2,0.2-0.3,0.5-0.4,0.8c-3.5,6.7-5.5,14.4-5.5,22.5
				c0,18,9.8,33.8,24.3,42.3c-17.9,9.3-29.3,27.7-29.3,48.1v23.3c0,2.2,1.1,4.2,3,5.4l47.7,30.4c1.1,0.7,2.2,1,3.4,1s2.4-0.3,3.4-1
				l47.8-30.2c1.9-1.2,3-3.2,3-5.4l-0.1-23.5C481.5,382.3,470.1,364,452.2,354.7L452.2,354.7z M427.4,276.1c11.1,0,21.1,5,27.8,13
				c-8.6,2.5-18.1,3.8-27.8,3.8c-9.7,0-19.2-1.3-27.8-3.8C406.3,281.2,416.3,276.1,427.4,276.1L427.4,276.1z M391.2,312.4
				c0-4.2,0.7-8.2,2-11.9c10.6,3.4,22.3,5.2,34.3,5.2c12,0,23.7-1.8,34.3-5.2c1.3,3.7,2,7.7,2,11.9c0,20-16.3,36.3-36.3,36.3
				C407.4,348.7,391.2,332.4,391.2,312.4L391.2,312.4z M438.8,360.1c-0.8,6.1-6.1,10.1-10.9,10.1h-0.8c-5.1,0-10.7-4.3-11.5-10.3
				c3.8,0.9,7.7,1.4,11.8,1.4C431.3,361.5,435.1,361,438.8,360.1L438.8,360.1z M427.4,448.9l-41.3-26.3v-19.8
				c0-14.1,7.1-26.9,18.6-34.5c4,9.1,13.4,14.8,22.4,14.8h0.8c9.7,0,18.2-6.3,21.9-15c11.7,7.5,18.9,20.5,19,34.8l0.1,20
				L427.4,448.9z M381.5,277.2c1.9-3,0.9-6.9-2.1-8.8c-1.9-1.2-4-2.3-6-3.3c7.9-4,14.9-9.8,20.5-17.1c2.3,0.8,4.7,1.2,7.3,1.2
				c12.3,0,22.3-10,22.3-22.3V211c0-20.2-7.7-39.4-21.7-53.9c-14-14.5-32.8-22.9-52.9-23.7l0,0c-1.7-0.1-3.4-0.1-5,0
				c-20,0.5-38.9,8.6-53.2,22.8c-14.6,14.5-22.7,34-22.7,54.8v15.9c0,12.3,10,22.3,22.3,22.3c2.6,0,5-0.4,7.3-1.2
				c6.1,8,14,14.2,22.9,18.3c-19.7,10.4-32,30.5-32,52.8v52.4c0,2.2,1.1,4.2,2.9,5.4l58.1,37.7c1.1,0.7,2.3,1,3.5,1
				c2.1,0,4.1-1,5.4-2.9c1.9-3,1.1-6.9-1.9-8.9L301.4,368v-49c0-14.8,6.9-28.4,18.4-37.2c4,11.5,14.1,20.1,25.4,20.1h1
				c12.2,0,22-11.1,25.4-23.4c0.4,0.2,0.8,0.5,1.1,0.7C375.7,281.1,379.6,280.2,381.5,277.2L381.5,277.2z M306.1,187.7
				c-4.1,7-6.3,15.1-6.3,23.3v15.9c0,3-1.4,5.7-3.6,7.5c-0.2,0.1-0.4,0.3-0.5,0.4c-1.5,1-3.3,1.6-5.3,1.6c-5.2,0-9.5-4.3-9.5-9.5
				V211c0-35.5,27.8-64,63.3-64.9c1.3,0,2.7,0,4.2,0c34.9,1.4,62.3,29.9,62.3,64.9v15.9c0,5.2-4.3,9.5-9.5,9.5c-2,0-3.8-0.6-5.3-1.6
				c-0.2-0.1-0.4-0.3-0.5-0.4c-2.2-1.7-3.6-4.4-3.6-7.5V211c0-22.6-16.8-42.1-39.1-45.4c-1.8-0.3-3.5,0.2-4.9,1.3
				c-1.4,1.1-2.3,2.7-2.4,4.5c-0.4,4.5-1.2,8.9-2.4,13.2h-31.1C309.4,184.6,307.3,185.8,306.1,187.7L306.1,187.7z M346.1,289.1h-1
				c-7.2,0-14.3-8.8-14.3-17.7c0-0.6-0.1-1.1-0.2-1.6c4.9,1.2,9.9,1.9,15.1,1.9c4.9,0,9.7-0.6,14.3-1.7
				C359.6,279.3,352.6,289.1,346.1,289.1L346.1,289.1z M345.7,258.9c-14.9,0-28.7-6.8-37.7-18.4c2.9-3.8,4.6-8.5,4.6-13.6V211
				c0-4.7,1-9.4,2.9-13.6h31.8c2.7,0,5.1-1.7,6-4.2c1.6-4.3,2.8-8.8,3.6-13.3c12.8,4.7,21.8,17.1,21.8,31.1v15.9
				c0,5.1,1.7,9.8,4.6,13.6C374.4,252.1,360.6,258.9,345.7,258.9L345.7,258.9z"/>
		</g>
	</g>
</g>
</svg>
