<?xml version="1.0" encoding="utf-8"?>
<!-- Generator: Adobe Illustrator 18.1.1, SVG Export Plug-In . SVG Version: 6.00 Build 0)  -->
<svg version="1.1" id="Слой_1" xmlns="http://www.w3.org/2000/svg" xmlns:xlink="http://www.w3.org/1999/xlink" x="0px" y="0px"
	 viewBox="264 150.2 311.4 296.1" enable-background="new 264 150.2 311.4 296.1" xml:space="preserve">
<g>
	<path fill="#FFFFFF" d="M363.9,361.3h29.8V391c0,4.4,3.6,8,8,8h36.1c4.4,0,8-3.6,8-8v-29.8h29.8c4.4,0,8-3.6,8-8v-36.1
		c0-4.4-3.6-8-8-8h-29.8v-29.8c0-4.4-3.6-8-8-8h-36.1c-4.4,0-8,3.6-8,8v29.8h-29.8c-4.4,0-8,3.6-8,8v36.1
		C355.9,357.7,359.5,361.3,363.9,361.3L363.9,361.3z M371.9,325.2h29.8c4.4,0,8-3.6,8-8v-29.8h20.1v29.8c0,4.4,3.6,8,8,8h29.8v20.1
		h-29.8c-4.4,0-8,3.6-8,8V383h-20.1v-29.8c0-4.4-3.6-8-8-8h-29.8V325.2z M567.4,224.1h-65.9v-65.9c0-4.4-3.6-8-8-8H345.9
		c-4.4,0-8,3.6-8,8v65.9H272c-4.4,0-8,3.6-8,8v206.2c0,4.4,3.6,8,8,8h295.4c4.4,0,8-3.6,8-8V232.1
		C575.4,227.7,571.9,224.1,567.4,224.1L567.4,224.1z M353.9,166.3h131.7v13.2H353.9V166.3z M353.9,195.5h131.7v28.6H353.9V195.5z
		 M559.4,430.3H280V240.1h279.4V430.3z"/>
</g>
</svg>
