<?xml version="1.0" encoding="utf-8"?>
<!-- Generator: Adobe Illustrator 19.0.0, SVG Export Plug-In . SVG Version: 6.00 Build 0)  -->
<svg version="1.1" id="Слой_1" xmlns="http://www.w3.org/2000/svg" xmlns:xlink="http://www.w3.org/1999/xlink" x="0px" y="0px"
	 viewBox="107.8 493.7 564.2 431.6" style="enable-background:new 107.8 493.7 564.2 431.6;" xml:space="preserve">
<style type="text/css">
	.st0{fill:#FFFFFF;}
</style>
<g>
	<circle class="st0" cx="141" cy="531.3" r="30.4"/>
	<circle class="st0" cx="491.8" cy="806.6" r="30.4"/>
	<path class="st0" d="M672,504.2c-0.2-5.9-4.8-10.5-10.7-10.5H351.6c-5.7,0-10.3,4.4-10.7,9.9l0,0v73.1c0,5.7,4.8,10.5,10.7,10.5
		c5.9,0,10.7-4.6,10.7-10.5v-61.3h288.1v205.4H476.3c-5.9,0-10.7,4.8-10.7,10.7s4.8,10.7,10.7,10.7h184.8c5.9,0,10.7-4.8,10.7-10.7
		v-226C672,505.1,672,504.7,672,504.2z"/>
	<path class="st0" d="M484.9,689.4h41.4H612c4.2,0,7.3-2.9,7.3-6.3v-90.9v-41.8v-1l0,0c-0.2-2.1-1.7-4-3.8-5c-0.2,0-0.2,0-0.4-0.2
		c-0.2-0.2-0.4-0.2-0.8-0.2c-0.2,0-0.4-0.2-0.8-0.2c-0.2,0-0.2,0-0.4,0c-0.4,0-0.8,0-1.3,0l0,0l0,0H399l0,0l0,0c-0.4,0-0.8,0-1.3,0
		c-0.2,0-0.2,0-0.4,0c-0.2,0-0.4,0.2-0.8,0.2c-0.2,0-0.6,0.2-0.8,0.2c-0.2,0-0.2,0-0.4,0.2c-2.1,1-3.6,2.9-3.8,5l0,0v1v41.8v90.9
		c0,3.6,3.4,6.3,7.3,6.3H484.9L484.9,689.4z M406.6,592.2L406.6,592.2v-36.1h198v36.1l0,0v84.6h-78.3h-41.4h-78.3L406.6,592.2
		L406.6,592.2z"/>
	<path class="st0" d="M172.3,703.9l76.6,76.4c12.6,12.6,33,12.6,45.6,0l0,0c12.6-12.6,12.6-33,0-45.6L162.8,603.3
		c-0.4-0.4-0.8-0.8-1-1s-0.4-0.4-0.6-0.4c-0.2-0.2-0.4-0.4-0.6-0.6c-0.2-0.2-0.4-0.4-0.8-0.6c-0.2-0.2-0.4-0.2-0.4-0.4
		c-0.2-0.2-0.6-0.4-0.8-0.6c-0.2,0-0.2-0.2-0.4-0.2c-0.2-0.2-0.6-0.4-0.8-0.6c-0.2,0-0.2-0.2-0.4-0.2c-0.2-0.2-0.6-0.4-0.8-0.4
		s-0.4-0.2-0.4-0.2c-0.2-0.2-0.6-0.2-0.8-0.4c-0.2,0-0.4-0.2-0.6-0.2c-0.2-0.2-0.4-0.2-0.8-0.4c-0.2,0-0.4-0.2-0.6-0.2
		c-0.2,0-0.4-0.2-0.6-0.2s-0.6-0.2-0.8-0.2s-0.4-0.2-0.6-0.2s-0.6-0.2-0.8-0.2s-0.4-0.2-0.6-0.2c-0.4,0-0.6-0.2-1-0.2
		c-0.2,0-0.4,0-0.4-0.2c-0.4,0-0.6-0.2-1-0.2c-0.2,0-0.4,0-0.6,0c-0.4,0-0.6-0.2-1-0.2c-0.2,0-0.4,0-0.6,0s-0.6,0-0.8-0.2
		c-0.2,0-0.6,0-0.8,0s-0.4,0-0.8,0c-1,0-2.1,0-3.1,0c-0.2,0-0.4,0-0.8,0c-0.2,0-0.6,0-0.8,0s-0.6,0-0.8,0.2c-0.2,0-0.4,0-0.6,0
		c-0.4,0-0.6,0.2-1,0.2c-0.2,0-0.4,0-0.6,0c-0.4,0-0.6,0.2-1,0.2c-0.2,0-0.4,0-0.4,0.2c-0.4,0-0.6,0.2-1,0.2c-0.2,0-0.4,0-0.6,0.2
		c-0.2,0-0.6,0.2-0.8,0.2s-0.4,0.2-0.6,0.2s-0.6,0.2-0.8,0.2s-0.4,0.2-0.6,0.2s-0.4,0.2-0.6,0.2c-0.2,0.2-0.4,0.2-0.8,0.4
		c-0.2,0-0.4,0.2-0.6,0.2c-0.2,0.2-0.6,0.2-0.8,0.4c-0.2,0-0.4,0.2-0.4,0.2c-0.2,0.2-0.6,0.4-0.8,0.4s-0.2,0.2-0.4,0.2
		c-0.2,0.2-0.6,0.4-0.8,0.6c-0.2,0-0.2,0.2-0.4,0.2c-0.2,0.2-0.6,0.4-0.8,0.6s-0.4,0.2-0.4,0.4c-0.2,0.2-0.4,0.4-0.8,0.6
		c-0.2,0.2-0.4,0.4-0.6,0.6c-0.2,0.2-0.4,0.4-0.6,0.4c-0.8,0.6-1.5,1.5-2.3,2.3c-0.2,0.2-0.4,0.4-0.4,0.6c-0.2,0.2-0.4,0.4-0.4,0.6
		c-0.2,0.2-0.4,0.4-0.6,0.8c-0.2,0.2-0.2,0.4-0.4,0.4c-0.2,0.2-0.4,0.6-0.6,0.8c0,0.2-0.2,0.2-0.2,0.4c-0.2,0.2-0.4,0.6-0.6,0.8
		c0,0.2-0.2,0.2-0.2,0.4c-0.2,0.2-0.4,0.6-0.4,0.8c0,0.2-0.2,0.4-0.2,0.4c-0.2,0.2-0.2,0.6-0.4,0.8c0,0.2-0.2,0.4-0.2,0.6
		c-0.2,0.2-0.2,0.4-0.4,0.8c0,0.2-0.2,0.4-0.2,0.6c-0.2,0.2-0.4,0.4-0.4,0.6c0,0.2-0.2,0.6-0.2,0.8c0,0.2-0.2,0.4-0.2,0.6
		s-0.2,0.6-0.2,0.8c0,0.2,0,0.4-0.2,0.6c0,0.4-0.2,0.6-0.2,1c0,0.2,0,0.4-0.2,0.4c0,0.4-0.2,0.6-0.2,1c0,0.2,0,0.4,0,0.6
		c0,0.4-0.2,0.6-0.2,1c0,0.2,0,0.4,0,0.6s0,0.6-0.2,0.8c0,0.2,0,0.6,0,0.8s0,0.4,0,0.8c0,0.6,0,1,0,1.7l0,0v174.9h64.3V703h-2.6
		L172.3,703.9L172.3,703.9z"/>
	<path class="st0" d="M268,684.4c6.5,0,12-5,12.4-11.5l0,0v-24.1c0-15.5,12.8-28.1,28.3-28.1s28.3,12.6,28.3,28.1v101.4h0.2v0.6
		c0,29,23.7,52.5,53.1,52.5c29.2,0,53.1-23.5,53.1-52.5v-23.7v-0.4v-1c0-6.7-5.5-12.4-12.4-12.4c-6.7,0-12.4,5.5-12.4,12.4v1l0,0
		v24.1c0,15.5-12.8,28.1-28.3,28.1S362,766.3,362,750.8V649.3h-0.2v-0.6c0-29-23.7-52.5-53.1-52.5c-29.2,0-53.1,23.5-53.1,52.5v21.8
		v1.5v0.8l0,0C256,679.4,261.5,684.4,268,684.4z"/>
	<path class="st0" d="M652.3,820.9c-41.8-14.7-91.5,2.7-93.6,3.6l0,0c-33.4,12-65.1,32.3-93.2,59.6c0.2-1.9,0.4-3.6,0.4-5.5l0,0
		c0-25.6-20.8-46.2-46.2-46.2h-33.2H246.8h-127c-6.5,0-12,5.2-12,12c0,6.8,5.2,12,12,12h127v44.9h-127c-6.5,0-12,5.2-12,12l0,0
		c0,6.5,5.2,12,12,12h266.5l0,0h33.2h198.2c2.1,0,4.2-0.2,5.7-1.5c1.5-1.3,4.4-4.6,5.2-5.7c8.2-12,35.7-58,39.5-69.1
		c1.3-3.8,2.7-9.2,0-14.7C664.2,825.9,655.8,822.1,652.3,820.9z M651,842.9c-2.3,6.5-19.9,36.3-33.4,58.2l0,0h-144
		c27.3-27.5,58.4-48.1,90.9-59.6c0.4-0.2,45.8-16.2,81.7-3.6c2.3,0.8,4.2,2.1,5.2,3.4C651.4,841.5,651.4,842.1,651,842.9z"/>
</g>
</svg>
