<?xml version="1.0" encoding="utf-8"?>
<!-- Generator: Adobe Illustrator 18.1.1, SVG Export Plug-In . SVG Version: 6.00 Build 0)  -->
<svg version="1.1" id="Слой_1" xmlns="http://www.w3.org/2000/svg" xmlns:xlink="http://www.w3.org/1999/xlink" x="0px" y="0px"
	 viewBox="163.2 0 515.6 595.3" enable-background="new 163.2 0 515.6 595.3" xml:space="preserve">
<g>
	<path fill="#FFFFFF" d="M193.8,15.3v563.8c0,8.4-6.9,15.3-15.3,15.3s-15.3-6.9-15.3-15.3V15.3C163.3,6.9,170.1,0,178.5,0
		S193.8,6.9,193.8,15.3L193.8,15.3z M505.2,86.8V268c0,8.4-6.9,15.3-15.3,15.3h-26.1c-0.2,0-0.2,0-0.4,0s-0.2,0-0.4,0H335.2
		c-0.2,0-0.4,0-0.6,0h-26.1c-8.4,0-15.3-6.9-15.3-15.3V86.8c0-8.4,6.9-15.3,15.3-15.3h181.2C498.3,71.5,505.2,78.4,505.2,86.8
		L505.2,86.8z M438.6,252.7c-7.8-15.1-15.6-20.6-28.8-20.6h-21.4c-13.2,0-21,5.5-28.8,20.6H438.6z M399.3,176.2
		c6.3,0,11.3-5.1,11.3-11.3c0-6.3-5.1-11.3-11.3-11.3c-6.3,0-11.3,5.1-11.3,11.3C387.9,171.1,393,176.2,399.3,176.2L399.3,176.2z
		 M474.6,102H324v150.7h1.7l6.5-13c4.4-8.8,17-33.8,47.9-37.6c-13.5-7.1-22.7-21-22.7-37.2c0-23.1,18.7-41.8,41.8-41.8
		c23.1,0,41.8,18.7,41.8,41.8c0,16.2-9.2,30.3-22.7,37.2c30.9,4,43.5,29,47.9,37.6l6.5,13h1.7L474.6,102L474.6,102z M678.7,16.2V580
		c0,8.4-6.9,15.3-15.3,15.3H231c-8.4,0-15.3-6.9-15.3-15.3V16.2c0-8.4,6.9-15.3,15.3-15.3h432.6C671.9,1,678.7,7.8,678.7,16.2
		L678.7,16.2z M558.8,511.5l33.2-22.9V363.7l-33.2-22.9c-4.2-2.9-6.5-7.6-6.5-12.6V31.5H246.2v533.3h306.1V524
		C552.3,519,554.7,514.4,558.8,511.5L558.8,511.5z M648.2,31.5h-65.4v288.6L616,343c4.2,2.9,6.5,7.6,6.5,12.6v141
		c0,5-2.5,9.7-6.5,12.6L582.8,532v32.8h65.4V31.5L648.2,31.5z"/>
</g>
</svg>
