<?xml version="1.0" encoding="utf-8"?>
<!-- Generator: Adobe Illustrator 18.1.1, SVG Export Plug-In . SVG Version: 6.00 Build 0)  -->
<svg version="1.1" id="Слой_1" xmlns="http://www.w3.org/2000/svg" xmlns:xlink="http://www.w3.org/1999/xlink" x="0px" y="0px"
	 viewBox="258 173.5 325.9 248.2" enable-background="new 258 173.5 325.9 248.2" xml:space="preserve">
<g>
	<path fill="#FFFFFF" d="M276.8,232.9v-50.7c0-4.4,3.6-8,8-8h270.8c4.4,0,8,3.6,8,8v193.4c0,4.4-3.6,8-8,8h-96.7c-4.4,0-8-3.6-8-8
		c0-4.4,3.6-8,8-8h88.7V190.3H292.8V233c0,4.4-3.6,8-8,8S276.8,237.4,276.8,232.9L276.8,232.9z M265,267.6h50.9l22,35
		c1.6,2.6,4.5,4,7.5,3.7c3-0.3,5.6-2.2,6.7-5l22-56.2l25.2,80.2c1,3.3,4.1,5.6,7.6,5.6c0.1,0,0.2,0,0.3,0c3.6-0.1,6.7-2.6,7.5-6.1
		l13.8-57h33.4c4.4,0,8-3.6,8-8c0-4.4-3.6-8-8-8h-39.7c-3.7,0-6.9,2.5-7.8,6.1l-8.5,35.1l-23.3-74.3c-1-3.2-4-5.5-7.4-5.6
		s-6.5,1.9-7.7,5.1L343,280.7l-15.9-25.3c-1.5-2.3-4-3.7-6.8-3.7H265c-4.4,0-8,3.6-8,8C257,264.1,260.6,267.6,265,267.6L265,267.6z
		 M574.9,406.4H265.4c-4.4,0-8,3.6-8,8s3.6,8,8,8h309.5c4.4,0,8-3.6,8-8S579.3,406.4,574.9,406.4L574.9,406.4z M284.8,279.2
		c-4.4,0-8,3.6-8,8v88.5c0,4.4,3.6,8,8,8h96.7c4.4,0,8-3.6,8-8c0-4.4-3.6-8-8-8h-88.7v-80.5C292.8,282.8,289.2,279.2,284.8,279.2
		L284.8,279.2z M420.2,366.9c4.9,0,8.8,4,8.8,8.8c0,4.9-4,8.8-8.8,8.8c-4.9,0-8.8-4-8.8-8.8C411.3,370.8,415.3,366.9,420.2,366.9
		L420.2,366.9z"/>
</g>
</svg>
