<?xml version="1.0" encoding="utf-8"?>
<!-- Generator: Adobe Illustrator 18.1.1, SVG Export Plug-In . SVG Version: 6.00 Build 0)  -->
<svg version="1.1" id="Слой_1" xmlns="http://www.w3.org/2000/svg" xmlns:xlink="http://www.w3.org/1999/xlink" x="0px" y="0px"
	 viewBox="273.5 136.9 294.8 321.4" enable-background="new 273.5 136.9 294.8 321.4" xml:space="preserve">
<g>
	<path fill="#FFFFFF" d="M373.8,171.7v-26.4c0-4.4,3.6-8,8-8h77.4c4.4,0,8,3.6,8,8v38.5c0,4.4-3.6,8-8,8s-8-3.6-8-8v-30.5h-61.4
		v18.4c0,4.4-3.6,8-8,8C377.3,179.7,373.8,176.1,373.8,171.7L373.8,171.7z M373.8,341.7c0,4.4,3.6,8,8,8s8-3.6,8-8v-18.3
		c0-4.4-3.6-8-8-8H289V254h92.8c4.4,0,8-3.6,8-8v-22.1c0-4.4-3.6-8-8-8s-8,3.6-8,8V238H281c-4.4,0-8,3.6-8,8v77.4c0,4.4,3.6,8,8,8
		h92.8V341.7z M459.1,377.4c-4.4,0-8,3.6-8,8v30.7h-61.4V401c0-4.4-3.6-8-8-8s-8,3.6-8,8v23.2c0,4.4,3.6,8,8,8h77.4c4.4,0,8-3.6,8-8
		v-38.7C467.1,381,463.5,377.4,459.1,377.4L459.1,377.4z M559.9,238h-45.4v-19c0-3.9-2.8-7.2-6.6-7.9l-149.1-26.5
		c-2.2-7.3-8.9-12.6-16.9-12.6c-6.9,0-12.8,3.9-15.8,9.7h-3.8c-4.4,0-8,3.6-8,8s3.6,8,8,8h3.8c2.9,5.7,8.9,9.7,15.8,9.7
		c5.8,0,10.9-2.8,14.1-7l142.5,25.4v12.3h-31.4v-0.2c0-4.4-3.6-8-8-8s-8,3.6-8,8v8.2c0,4.4,3.6,8,8,8h47.4l0,0h45.4v61.4h-92.8
		c-4.4,0-8,3.6-8,8v11.2c0,4.4,3.6,8,8,8s8-3.6,8-8v-3.2h31.4v12.9l-158,28.1c-3.8,0.7-6.6,4-6.6,7.9v43.3L321.6,447
		c-2.1,3.9-0.6,8.7,3.3,10.8c1.2,0.6,2.5,0.9,3.7,0.9c2.9,0,5.6-1.6,7.1-4.3l13.2-25c0.6-1.2,0.9-2.4,0.9-3.7V387l158-28.1
		c3.8-0.7,6.6-4,6.6-7.9v-19.7h45.4c4.4,0,8-3.6,8-8V246C567.9,241.6,564.3,238,559.9,238L559.9,238z"/>
</g>
</svg>
