<?xml version="1.0" encoding="utf-8"?>
<!-- Generator: Adobe Illustrator 18.1.1, SVG Export Plug-In . SVG Version: 6.00 Build 0)  -->
<svg version="1.1" id="Слой_1" xmlns="http://www.w3.org/2000/svg" xmlns:xlink="http://www.w3.org/1999/xlink" x="0px" y="0px"
	 viewBox="258.2 148.9 325.5 297.5" enable-background="new 258.2 148.9 325.5 297.5" xml:space="preserve">
<g>
	<path fill="#FFFFFF" d="M372.8,315.6h193.7v-12.1c0-4.4,3.6-8,8-8s8,3.6,8,8v20.1c0,4.4-3.6,8-8,8H372.8c-4.4,0-8-3.6-8-8
		S368.4,315.6,372.8,315.6L372.8,315.6z M449.2,305.1c3.9,2,8.8,0.4,10.8-3.5c6.7-13.3,14.3-18.8,26.1-18.8h16.6
		c11.8,0,19.4,5.4,26.1,18.8c1.4,2.8,4.2,4.4,7.1,4.4c1.2,0,2.4-0.3,3.6-0.9c3.9-2,5.5-6.8,3.5-10.7c-6-11.8-16.6-27.5-40.4-27.5
		H486c-23.7,0-34.4,15.7-40.4,27.5C443.6,298.3,445.2,303.1,449.2,305.1L449.2,305.1z M453.8,218.4c0-16,10-30.1,24.6-35.6
		c2.3-18.8,18.4-33.4,37.8-33.4c21,0,38.1,17.1,38.1,38.1c0,16.3-10.2,30.2-24.6,35.6c-2.3,18.8-18.4,33.5-37.8,33.5
		C470.9,256.4,453.8,239.4,453.8,218.4L453.8,218.4z M494.2,187.4c0,0.4,0,0.7,0,1l0,0v0.1c0.6,11.6,10.2,20.8,22,20.9l0,0h0.1l0,0
		l0,0c0.9,0,1.8-0.1,2.6-0.2l0,0c10.9-1.4,19.3-10.7,19.3-21.9c0-12.2-9.9-22.1-22.1-22.1C504.1,165.3,494.2,175.2,494.2,187.4
		L494.2,187.4z M469.8,218.4c0,12.2,9.9,22.1,22.1,22.1c9.8,0,18.1-6.4,21-15.1c-15.2-1.3-27.9-11.6-32.7-25.7
		C473.9,203.6,469.8,210.6,469.8,218.4L469.8,218.4z M322.7,261.4c19.3,0,35.1,15.7,35.1,35.1c0,19.3-15.7,35.1-35.1,35.1
		c-19.3,0-35.1-15.7-35.1-35.1C287.6,277.2,303.3,261.4,322.7,261.4L322.7,261.4z M322.7,277.4c-10.5,0-19.1,8.6-19.1,19.1
		c0,10.5,8.6,19.1,19.1,19.1c10.5,0,19.1-8.6,19.1-19.1C341.8,286,333.2,277.4,322.7,277.4L322.7,277.4z M582.5,438.9
		c0,4.4-3.6,8-8,8H265c-4.4,0-8-3.6-8-8c0-4.4,3.6-8,8-8h30.7v-67.6H265c-4.4,0-8-3.6-8-8c0-0.1,0-0.1,0-0.2V209.9
		c0-25.7,20.9-46.7,46.7-46.7H331c29.3,0,53.6,21.8,57.5,50.1h31.2c4.4,0,8,3.6,8,8c0,4.4-3.6,8-8,8h-77.4c-4.4,0-8-3.6-8-8
		c0-4.4,3.6-8,8-8h29.9c-3.7-19.4-20.8-34.1-41.3-34.1h-27.3c-16.9,0-30.7,13.8-30.7,30.7v137.3h262.6c0.1,0,0.2,0,0.3,0h38.5
		c4.4,0,8,3.6,8,8s-3.6,8-8,8h-30.7v67.6h30.7C578.9,430.9,582.5,434.5,582.5,438.9L582.5,438.9z M527.8,363.3H311.7v67.6h216.1
		L527.8,363.3L527.8,363.3z M516.3,196.2c4.9,0,8.8-4,8.8-8.8c0-4.9-4-8.8-8.8-8.8c-4.9,0-8.8,4-8.8,8.8
		C507.4,192.2,511.4,196.2,516.3,196.2L516.3,196.2z"/>
</g>
</svg>
