<?xml version="1.0" encoding="utf-8"?>
<!-- Generator: Adobe Illustrator 18.1.1, SVG Export Plug-In . SVG Version: 6.00 Build 0)  -->
<svg version="1.1" id="Слой_1" xmlns="http://www.w3.org/2000/svg" xmlns:xlink="http://www.w3.org/1999/xlink" x="0px" y="0px"
	 viewBox="359.5 218.2 122.8 158.9" enable-background="new 359.5 218.2 122.8 158.9" xml:space="preserve">
<path fill="#FFFFFF" d="M245.1,214.2"/>
<g>
	<path fill="#FFFFFF" d="M422,294.1h13c1.9,0,3.5-1.6,3.5-3.5s-1.6-3.5-3.5-3.5h-13c-1.9,0-3.5,1.6-3.5,3.5S420.1,294.1,422,294.1z"
		/>
	<path fill="#FFFFFF" d="M422,279.7h13c1.9,0,3.5-1.6,3.5-3.5s-1.6-3.5-3.5-3.5h-13c-1.9,0-3.5,1.6-3.5,3.5S420.1,279.7,422,279.7z"
		/>
	<path fill="#FFFFFF" d="M422,265.1h13c1.9,0,3.5-1.6,3.5-3.5s-1.6-3.5-3.5-3.5h-13c-1.9,0-3.5,1.6-3.5,3.5S420.1,265.1,422,265.1z"
		/>
	<path fill="#FFFFFF" d="M407.1,258.3h-23.5c-1.9,0-3.5,1.6-3.5,3.5s1.6,3.5,3.5,3.5h23.5c1.9,0,3.5-1.6,3.5-3.5
		S409,258.3,407.1,258.3z"/>
	<path fill="#FFFFFF" d="M406.9,312.2h-23.3c-1.9,0-3.5,1.6-3.5,3.5c0,1.9,1.6,3.5,3.5,3.5h23.3c1.9,0,3.5-1.6,3.5-3.5
		C410.4,313.8,408.8,312.2,406.9,312.2z"/>
	<path fill="#FFFFFF" d="M407.1,272.8h-23.5c-1.9,0-3.5,1.6-3.5,3.5s1.6,3.5,3.5,3.5h23.5c1.9,0,3.5-1.6,3.5-3.5
		S409,272.8,407.1,272.8z"/>
	<path fill="#FFFFFF" d="M407.1,287.2h-23.5c-1.9,0-3.5,1.6-3.5,3.5s1.6,3.5,3.5,3.5h23.5c1.9,0,3.5-1.6,3.5-3.5
		S409,287.2,407.1,287.2z"/>
	<path fill="#FFFFFF" d="M396.6,326.7h-13c-1.9,0-3.5,1.6-3.5,3.5s1.6,3.5,3.5,3.5h13c1.9,0,3.5-1.6,3.5-3.5
		S398.5,326.7,396.6,326.7z"/>
	<path fill="#FFFFFF" d="M459.2,308.4v-63.3c0-0.2,0-0.4-0.1-0.6l0,0l0,0l0,0l0,0l0,0c-0.1-0.6-0.4-1.3-0.9-1.8l0,0l0,0l0,0l0,0
		l-23.5-23.5l0,0l0,0l0,0l0,0l0,0c-0.6-0.6-1.6-1-2.4-1H363c-1.9,0-3.5,1.6-3.5,3.5v133c0,1.9,1.6,3.5,3.5,3.5h52.5
		c5.9,11.3,17.7,19,31.4,19c19.5,0,35.4-15.9,35.4-35.4C482.2,326.4,472.6,313.4,459.2,308.4z M435.5,229.8l11.8,11.8h-11.8V229.8z
		 M366.3,351.1V225h62.4v20.2c0,1.9,1.6,3.5,3.5,3.5h20.2v58.1c-1.8-0.3-3.6-0.4-5.5-0.4c-19.5,0-35.4,15.9-35.4,35.4
		c0,3.3,0.5,6.5,1.3,9.5H366.3z M446.8,370.6c-16,0-29.1-13-29.1-29.1s13-29.1,29.1-29.1c16.1,0,29.1,13,29.1,29.1
		S462.8,370.6,446.8,370.6z"/>
	<path fill="#FFFFFF" d="M438.2,339.9c1.1,0,2.1-0.1,3-0.4c0.9-0.3,1.7-0.6,2.4-1.3c0.7-0.6,1.2-1.3,1.6-2.3
		c0.4-0.9,0.6-2.1,0.6-3.4c0-1.3-0.2-2.5-0.6-3.4c-0.4-0.9-0.9-1.7-1.6-2.3c-0.7-0.6-1.5-1-2.4-1.3c-0.9-0.3-1.9-0.4-3-0.4
		s-2.1,0.1-3,0.4c-0.9,0.3-1.7,0.7-2.4,1.3c-0.6,0.6-1.2,1.3-1.6,2.3c-0.4,0.9-0.6,2-0.6,3.3s0.2,2.5,0.6,3.4s0.9,1.7,1.6,2.3
		c0.6,0.6,1.5,1,2.4,1.3C436.2,339.7,437.2,339.9,438.2,339.9z M436.3,329.7c0.4-0.6,1.1-0.8,1.9-0.8c0.9,0,1.6,0.3,1.9,0.8
		c0.4,0.6,0.6,1.5,0.6,2.9c0,1.4-0.2,2.3-0.6,2.9c-0.4,0.5-1,0.8-1.9,0.8c-1.7,0-2.5-1.2-2.5-3.7
		C435.8,331.2,435.9,330.2,436.3,329.7z"/>
	<polygon fill="#FFFFFF" points="457.6,325.2 432.9,353.4 436,356.4 460.8,328 	"/>
	<path fill="#FFFFFF" d="M461.1,342.8c-0.7-0.6-1.5-1-2.4-1.3c-0.9-0.3-1.9-0.4-3-0.4s-2.1,0.1-3,0.4c-0.9,0.3-1.7,0.7-2.4,1.3
		c-0.6,0.6-1.2,1.3-1.6,2.3c-0.4,0.9-0.6,2-0.6,3.3s0.2,2.5,0.6,3.4c0.4,0.9,0.9,1.7,1.6,2.3c0.6,0.6,1.5,1,2.4,1.3
		c0.9,0.3,1.9,0.4,3,0.4c1.1,0,2.1-0.1,3-0.4c0.9-0.3,1.7-0.6,2.4-1.3c0.7-0.6,1.2-1.3,1.6-2.3c0.4-0.9,0.6-2.1,0.6-3.4
		c0-1.3-0.2-2.5-0.6-3.4C462.3,344.1,461.8,343.3,461.1,342.8z M457.6,351.3c-0.4,0.5-1,0.8-1.9,0.8c-1.7,0-2.5-1.2-2.5-3.7
		c0-1.3,0.2-2.3,0.6-2.9c0.4-0.6,1.1-0.8,1.9-0.8c0.9,0,1.6,0.3,1.9,0.8c0.4,0.6,0.6,1.5,0.6,2.9C458.2,349.8,458,350.8,457.6,351.3
		z"/>
</g>
</svg>
