<?xml version="1.0" encoding="utf-8"?>
<!-- Generator: Adobe Illustrator 18.1.1, SVG Export Plug-In . SVG Version: 6.00 Build 0)  -->
<svg version="1.1" id="Слой_1" xmlns="http://www.w3.org/2000/svg" xmlns:xlink="http://www.w3.org/1999/xlink" x="0px" y="0px"
	 viewBox="383.9 257.3 72.4 81.7" enable-background="new 383.9 257.3 72.4 81.7" xml:space="preserve">
<g>
	<path fill="#53a160" d="M451.7,286.5h-2V277c0-0.1,0-0.1,0-0.2c0-0.4-0.1-0.7-0.4-1l-15.7-18l0,0c-0.1-0.1-0.2-0.2-0.3-0.3
		c0,0-0.1,0-0.1-0.1c-0.1-0.1-0.2-0.1-0.3-0.1h-0.1c-0.1,0-0.2,0-0.4,0h-38.7c-1.8,0-3.2,1.4-3.2,3.2v26h-2c-2.5,0-4.6,2-4.6,4.6
		v23.8c0,2.5,2,4.6,4.6,4.6h2v16.3c0,1.8,1.4,3.2,3.2,3.2h52.8c1.8,0,3.2-1.4,3.2-3.2v-16.3h2c2.5,0,4.6-2.1,4.6-4.6V291
		C456.3,288.5,454.2,286.5,451.7,286.5L451.7,286.5z M393.7,260.5h37.1v16.4c0,0.9,0.7,1.6,1.6,1.6h14.1v8h-52.8L393.7,260.5
		L393.7,260.5z M432.1,301.6c0,7.3-4.4,11.7-10.9,11.7c-6.6,0-10.4-5-10.4-11.3c0-6.6,4.2-11.6,10.8-11.6
		C428.4,290.4,432.1,295.5,432.1,301.6L432.1,301.6z M388.9,312.9v-21.8c1.8-0.3,4.2-0.5,6.8-0.5c4.2,0,6.9,0.8,9.1,2.4
		c2.3,1.7,3.8,4.4,3.8,8.4c0,4.2-1.5,7.2-3.7,9c-2.3,1.9-5.9,2.9-10.2,2.9C392,313.2,390.2,313,388.9,312.9L388.9,312.9z
		 M446.5,334.8h-52.8v-15.4h52.8V334.8z M446.8,309.1c1.5,0,3.2-0.3,4.2-0.7l0.8,3.9c-0.9,0.5-3,1-5.7,1c-7.7,0-11.6-4.8-11.6-11.1
		c0-7.6,5.4-11.8,12.1-11.8c2.6,0,4.6,0.5,5.5,1l-1,4c-1-0.4-2.4-0.8-4.2-0.8c-4,0-7.1,2.4-7.1,7.3
		C439.7,306.3,442.3,309.1,446.8,309.1L446.8,309.1z"/>
	<path fill="#53a160" d="M403.2,301.5c0-4.6-2.7-7-7-7c-1.1,0-1.8,0.1-2.3,0.2v14.5c0.4,0.1,1.1,0.1,1.7,0.1
		C400.2,309.3,403.2,306.8,403.2,301.5L403.2,301.5z"/>
	<path fill="#53a160" d="M416.1,301.9c0,4.3,2,7.4,5.4,7.4c3.4,0,5.3-3.2,5.3-7.5c0-4-1.9-7.4-5.4-7.4
		C418.1,294.4,416.1,297.6,416.1,301.9L416.1,301.9z"/>
</g>
</svg>
