<svg xmlns="http://www.w3.org/2000/svg" viewBox="123.3 0 595.3 595.3"><path fill="#FFF" d="M691.7 0H150.2c-14.8 0-26.9 12-26.9 26.8v541.6c0 14.8 12.1 26.8 26.9 26.8h541.5c14.8 0 26.9-12.1 26.9-26.8V26.8C718.6 12 706.5 0 691.7 0zM420.9 193.8c57.4 0 103.9 46.5 103.9 103.9s-46.5 103.9-103.9 103.9-103.8-46.6-103.8-104 46.5-103.8 103.8-103.8zm223.3 327.1H197.7V260.4h49c-2.6 12-4.1 24.4-4.1 37.2 0 98.3 80 178.3 178.3 178.3 98.3 0 178.3-80 178.3-178.3 0-12.8-1.5-25.2-4-37.2h49v260.5zm0-334.9H532.6V74.4h111.6V186z"/></svg>