<svg xmlns="http://www.w3.org/2000/svg" viewBox="163.2 0 515.6 595.3"><path fill="#FFF" d="M193.8 15.3v563.8c0 8.4-6.9 15.3-15.3 15.3s-15.3-6.9-15.3-15.3V15.3c.1-8.4 6.9-15.3 15.3-15.3s15.3 6.9 15.3 15.3zm311.4 71.5V268c0 8.4-6.9 15.3-15.3 15.3H308.5c-8.4 0-15.3-6.9-15.3-15.3V86.8c0-8.4 6.9-15.3 15.3-15.3h181.2c8.6 0 15.5 6.9 15.5 15.3zm-66.6 165.9c-7.8-15.1-15.6-20.6-28.8-20.6h-21.4c-13.2 0-21 5.5-28.8 20.6h79zm-39.3-76.5c6.3 0 11.3-5.1 11.3-11.3 0-6.3-5.1-11.3-11.3-11.3-6.3 0-11.3 5.1-11.3 11.3-.1 6.2 5 11.3 11.3 11.3zm75.3-74.2H324v150.7h1.7l6.5-13c4.4-8.8 17-33.8 47.9-37.6-13.5-7.1-22.7-21-22.7-37.2 0-23.1 18.7-41.8 41.8-41.8 23.1 0 41.8 18.7 41.8 41.8 0 16.2-9.2 30.3-22.7 37.2 30.9 4 43.5 29 47.9 37.6l6.5 13h1.7l.2-150.7zm204.1-85.8V580c0 8.4-6.9 15.3-15.3 15.3H231c-8.4 0-15.3-6.9-15.3-15.3V16.2c0-8.4 6.9-15.3 15.3-15.3h432.6c8.3.1 15.1 6.9 15.1 15.3zM558.8 511.5l33.2-22.9V363.7l-33.2-22.9c-4.2-2.9-6.5-7.6-6.5-12.6V31.5H246.2v533.3h306.1V524c0-5 2.4-9.6 6.5-12.5zm89.4-480h-65.4v288.6L616 343c4.2 2.9 6.5 7.6 6.5 12.6v141c0 5-2.5 9.7-6.5 12.6L582.8 532v32.8h65.4V31.5z"/></svg>