<svg xmlns="http://www.w3.org/2000/svg" viewBox="281.3 73.2 283.4 326.2"><g fill="#FFF"><path d="M551.3 112.3h-65.5V99.9c0-14.8-11.9-26.7-26.7-26.7h-72.9c-14.8 0-26.7 11.9-26.7 26.7v12.4h-66c-6.7 0-12.4 5.7-12.4 12.4s5.7 12.4 12.4 12.4h13.1v217.6c0 24.8 20 44.8 44.8 44.8h142.9c24.8 0 44.8-20 44.8-44.8V136.6h13.1c6.7 0 12.4-5.7 12.4-12.4s-5.7-11.9-13.3-11.9zm-165-15.2h72.9c1.4 0 2.9 1.4 2.9 2.9v12.4h-78.6V99.9c-.1-1.4 1.3-2.8 2.8-2.8zM331 354.2V136.6h182.9v217.6c0 11-9 20-20 20H351c-10.9-.5-20-9-20-20z"/><path d="M422.5 325.9c6.7 0 11.9-5.2 11.9-12.4V196.8c0-6.7-5.2-12.4-11.9-12.4s-12.4 5.7-12.4 12.4V314c0 6.6 5.7 11.9 12.4 11.9zm53.8 0c6.7 0 12.4-5.7 12.4-12.4V196.8c0-6.7-5.7-12.4-12.4-12.4s-12.4 5.7-12.4 12.4V314c1 7.1 6.2 11.9 12.4 11.9zm-107.2 0c6.7 0 12.4-5.7 12.4-12.4V196.8c0-6.7-5.7-12.4-12.4-12.4s-12.4 5.7-12.4 12.4V314c0 6.6 5.3 11.9 12.4 11.9z"/></g></svg>