<?xml version="1.0" encoding="utf-8"?>
<!-- Generator: Adobe Illustrator 18.1.1, SVG Export Plug-In . SVG Version: 6.00 Build 0)  -->
<svg version="1.1" id="Capa_1" xmlns="http://www.w3.org/2000/svg" xmlns:xlink="http://www.w3.org/1999/xlink" x="0px" y="0px"
	 viewBox="123.3 0 595.3 595.3" enable-background="new 123.3 0 595.3 595.3" xml:space="preserve">
<g>
	<path fill="#FFFFFF" d="M522,362.6L442,317.3V152.1c0-12-9.8-21.8-21.8-21.8c-12,0-21.8,9.8-21.8,21.8v178c0,0.3,0.1,0.5,0.1,0.8
		c0,0.8,0.1,1.5,0.2,2.3c0.1,0.7,0.2,1.4,0.4,2.1c0.2,0.7,0.4,1.3,0.6,2c0.2,0.7,0.5,1.4,0.8,2c0.3,0.6,0.6,1.2,1,1.8
		c0.4,0.6,0.7,1.2,1.1,1.8c0.4,0.6,0.9,1.1,1.4,1.7c0.5,0.5,0.9,1,1.4,1.5c0.5,0.5,1.1,0.9,1.6,1.3c0.6,0.5,1.2,0.9,1.8,1.3
		c0.2,0.1,0.4,0.3,0.7,0.5l91.1,51.5c3.4,1.9,7.1,2.8,10.7,2.8c7.6,0,15-4,19-11.1C536.2,381.8,532.5,368.5,522,362.6z"/>
	<path fill="#FFFFFF" d="M420.9,0C256.8,0,123.3,133.5,123.3,297.6c0,164.1,133.5,297.6,297.6,297.6
		c164.1,0,297.6-133.5,297.6-297.6C718.6,133.5,585.1,0,420.9,0z M439.9,547.1v-43.4H402v43.4c-117.3-8.8-212.3-98.9-228.8-214H218
		v-37.9h-47.3C172,164.7,273.6,57.8,402,48.2v43.4h37.9V48.2c128.4,9.7,230,116.6,231.3,247.1h-44.9v37.9h42.4
		C652.2,448.3,557.2,538.3,439.9,547.1z"/>
</g>
</svg>
