<?xml version="1.0" encoding="utf-8"?>
<!-- Generator: Adobe Illustrator 18.1.1, SVG Export Plug-In . SVG Version: 6.00 Build 0)  -->
<svg version="1.1" id="Capa_1" xmlns="http://www.w3.org/2000/svg" xmlns:xlink="http://www.w3.org/1999/xlink" x="0px" y="0px"
	 viewBox="-373 251.3 94 94" enable-background="new -373 251.3 94 94" xml:space="preserve">
<g>
	<path fill="#FFFFFF" d="M-284,251.3h-84c-2.8,0-5,2.2-5,5v84c0,2.8,2.2,5,5,5h84c2.8,0,5-2.2,5-5v-84
		C-279,253.5-281.2,251.3-284,251.3z M-306.1,272.6l-7.2,0c-5.7,0-6.8,2.7-6.8,6.6v8.7h13.5l0,13.6h-13.5v35h-14.1v-35h-11.8V288
		h11.8v-10.1c0-11.7,7.1-18,17.5-18l10.5,0V272.6z"/>
</g>
</svg>
