<?xml version="1.0" encoding="utf-8"?>
<!-- Generator: Adobe Illustrator 18.1.1, SVG Export Plug-In . SVG Version: 6.00 Build 0)  -->
<svg version="1.1" id="Capa_1" xmlns="http://www.w3.org/2000/svg" xmlns:xlink="http://www.w3.org/1999/xlink" x="0px" y="0px"
	 viewBox="123.3 0 595.3 595.3" enable-background="new 123.3 0 595.3 595.3" xml:space="preserve">
<g>
	<g>
		<path fill="#FFFFFF" d="M691.7,0H150.2c-14.8,0-26.9,12-26.9,26.8v541.6c0,14.8,12.1,26.8,26.9,26.8h541.5
			c14.8,0,26.9-12.1,26.9-26.8V26.8C718.6,12,706.5,0,691.7,0z M420.9,193.8c57.4,0,103.9,46.5,103.9,103.9s-46.5,103.9-103.9,103.9
			S317.1,355,317.1,297.6S363.6,193.8,420.9,193.8z M644.2,520.9H197.7V260.4h49c-2.6,12-4.1,24.4-4.1,37.2
			c0,98.3,80,178.3,178.3,178.3c98.3,0,178.3-80,178.3-178.3c0-12.8-1.5-25.2-4-37.2h49L644.2,520.9L644.2,520.9z M644.2,186H532.6
			V74.4h111.6V186z"/>
	</g>
</g>
</svg>
