<?xml version="1.0" encoding="utf-8"?>
<!-- Generator: Adobe Illustrator 19.0.0, SVG Export Plug-In . SVG Version: 6.00 Build 0)  -->
<svg version="1.1" id="Layer_1" xmlns="http://www.w3.org/2000/svg" xmlns:xlink="http://www.w3.org/1999/xlink" x="0px" y="0px"
	 viewBox="-45 269.7 504 302.4" style="enable-background:new -45 269.7 504 302.4;" xml:space="preserve">
<style type="text/css">
	.st0{fill:#FFB600;}
	.st1{fill:#F7981D;}
	.st2{fill:#FF8500;}
	.st3{fill:#FF5050;}
	.st4{fill:#E52836;}
	.st5{fill:#CB2026;}
	.st6{fill:#FFFFFF;}
	.st7{fill:#DCE5E5;}
</style>
<path class="st0" d="M459,420.9c0,83.2-67.2,151.2-151.2,151.2c-83.2,0-151.2-68-151.2-151.2l0,0c0-83.2,67.2-151.2,150.4-151.2
	C391.8,269.7,459,337.7,459,420.9L459,420.9z"/>
<path class="st1" d="M307.8,269.7c83.2,0,151.2,68,151.2,151.2l0,0c0,83.2-67.2,151.2-151.2,151.2c-83.2,0-151.2-68-151.2-151.2"/>
<path class="st2" d="M307.8,269.7c83.2,0,151.2,68,151.2,151.2l0,0c0,83.2-67.2,151.2-151.2,151.2"/>
<path class="st3" d="M104.6,269.7C22.2,270.5-45,337.7-45,420.9s67.2,151.2,151.2,151.2c39.2,0,74.4-15.2,101.6-39.2l0,0l0,0
	c5.6-4.8,10.4-10.4,15.2-16h-31.2c-4-4.8-8-10.4-11.2-15.2h53.6c3.2-4.8,6.4-10.4,8.8-16h-71.2c-2.4-4.8-4.8-10.4-6.4-16h83.2
	c4.8-15.2,8-31.2,8-48c0-11.2-1.6-21.6-3.2-32h-92.8c0.8-5.6,2.4-10.4,4-16h83.2c-1.6-5.6-4-11.2-6.4-16H171
	c2.4-5.6,5.6-10.4,8.8-16h53.6c-3.2-5.6-7.2-11.2-12-16h-29.6c4.8-5.6,9.6-10.4,15.2-15.2c-26.4-24.8-62.4-39.2-101.6-39.2
	C105.4,269.7,105.4,269.7,104.6,269.7z"/>
<path class="st4" d="M-45,420.9c0,83.2,67.2,151.2,151.2,151.2c39.2,0,74.4-15.2,101.6-39.2l0,0l0,0c5.6-4.8,10.4-10.4,15.2-16
	h-31.2c-4-4.8-8-10.4-11.2-15.2h53.6c3.2-4.8,6.4-10.4,8.8-16h-71.2c-2.4-4.8-4.8-10.4-6.4-16h83.2c4.8-15.2,8-31.2,8-48
	c0-11.2-1.6-21.6-3.2-32h-92.8c0.8-5.6,2.4-10.4,4-16h83.2c-1.6-5.6-4-11.2-6.4-16H171c2.4-5.6,5.6-10.4,8.8-16h53.6
	c-3.2-5.6-7.2-11.2-12-16h-29.6c4.8-5.6,9.6-10.4,15.2-15.2c-26.4-24.8-62.4-39.2-101.6-39.2h-0.8"/>
<path class="st5" d="M106.2,572.1c39.2,0,74.4-15.2,101.6-39.2l0,0l0,0c5.6-4.8,10.4-10.4,15.2-16h-31.2c-4-4.8-8-10.4-11.2-15.2
	h53.6c3.2-4.8,6.4-10.4,8.8-16h-71.2c-2.4-4.8-4.8-10.4-6.4-16h83.2c4.8-15.2,8-31.2,8-48c0-11.2-1.6-21.6-3.2-32h-92.8
	c0.8-5.6,2.4-10.4,4-16h83.2c-1.6-5.6-4-11.2-6.4-16H171c2.4-5.6,5.6-10.4,8.8-16h53.6c-3.2-5.6-7.2-11.2-12-16h-29.6
	c4.8-5.6,9.6-10.4,15.2-15.2c-26.4-24.8-62.4-39.2-101.6-39.2h-0.8"/>
<g>
	<path class="st6" d="M159.8,459.3l2.4-13.6c-0.8,0-2.4,0.8-4,0.8c-5.6,0-6.4-3.2-5.6-4.8l4.8-28h8.8l2.4-15.2h-8l1.6-9.6h-16
		c0,0-9.6,52.8-9.6,59.2c0,9.6,5.6,13.6,12.8,13.6C154.2,461.7,158.2,460.1,159.8,459.3z"/>
	<path class="st6" d="M165.4,433.7c0,22.4,15.2,28,28,28c12,0,16.8-2.4,16.8-2.4l3.2-15.2c0,0-8.8,4-16.8,4
		c-17.6,0-14.4-12.8-14.4-12.8H215c0,0,2.4-10.4,2.4-14.4c0-10.4-5.6-23.2-23.2-23.2C177.4,396.1,165.4,413.7,165.4,433.7z
		 M193.4,410.5c8.8,0,7.2,10.4,7.2,11.2H183C183,420.9,184.6,410.5,193.4,410.5z"/>
	<path class="st6" d="M295,459.3l3.2-17.6c0,0-8,4-13.6,4c-11.2,0-16-8.8-16-18.4c0-19.2,9.6-29.6,20.8-29.6c8,0,14.4,4.8,14.4,4.8
		l2.4-16.8c0,0-9.6-4-18.4-4c-18.4,0-36.8,16-36.8,46.4c0,20,9.6,33.6,28.8,33.6C286.2,461.7,295,459.3,295,459.3z"/>
	<path class="st6" d="M71.8,396.1c-11.2,0-19.2,3.2-19.2,3.2l-2.4,13.6c0,0,7.2-3.2,17.6-3.2c5.6,0,10.4,0.8,10.4,5.6
		c0,3.2-0.8,4-0.8,4s-4.8,0-7.2,0c-13.6,0-28.8,5.6-28.8,24c0,14.4,9.6,17.6,15.2,17.6c11.2,0,16-7.2,16.8-7.2l-0.8,6.4H87l6.4-44
		C93.4,396.9,77.4,396.1,71.8,396.1z M75,432.1c0,2.4-1.6,15.2-11.2,15.2c-4.8,0-6.4-4-6.4-6.4c0-4,2.4-9.6,14.4-9.6
		C74.2,432.1,75,432.1,75,432.1z"/>
	<path class="st6" d="M108.6,460.9c4,0,24,0.8,24-20.8c0-20-19.2-16-19.2-24c0-4,3.2-5.6,8.8-5.6c2.4,0,11.2,0.8,11.2,0.8l2.4-14.4
		c0,0-5.6-1.6-15.2-1.6c-12,0-24,4.8-24,20.8c0,18.4,20,16.8,20,24c0,4.8-5.6,5.6-9.6,5.6c-7.2,0-14.4-2.4-14.4-2.4l-2.4,14.4
		C91,459.3,95,460.9,108.6,460.9z"/>
	<path class="st6" d="M427.8,383.3l-3.2,21.6c0,0-6.4-8-15.2-8c-14.4,0-27.2,17.6-27.2,38.4c0,12.8,6.4,26.4,20,26.4
		c9.6,0,15.2-6.4,15.2-6.4l-0.8,5.6h16l12-76.8L427.8,383.3z M420.6,425.7c0,8.8-4,20-12.8,20c-5.6,0-8.8-4.8-8.8-12.8
		c0-12.8,5.6-20.8,12.8-20.8C417.4,412.1,420.6,416.1,420.6,425.7z"/>
	<path class="st6" d="M-15.4,460.1l9.6-57.6l1.6,57.6H7l20.8-57.6L19,460.1h16.8l12.8-76.8H22.2l-16,47.2l-0.8-47.2h-23.2
		l-12.8,76.8H-15.4z"/>
	<path class="st6" d="M232.6,460.1c4.8-26.4,5.6-48,16.8-44c1.6-10.4,4-14.4,5.6-18.4c0,0-0.8,0-3.2,0c-7.2,0-12.8,9.6-12.8,9.6
		l1.6-8.8h-15.2L215,460.9h17.6V460.1z"/>
	<path class="st6" d="M331.8,396.1c-11.2,0-19.2,3.2-19.2,3.2l-2.4,13.6c0,0,7.2-3.2,17.6-3.2c5.6,0,10.4,0.8,10.4,5.6
		c0,3.2-0.8,4-0.8,4s-4.8,0-7.2,0c-13.6,0-28.8,5.6-28.8,24c0,14.4,9.6,17.6,15.2,17.6c11.2,0,16-7.2,16.8-7.2l-0.8,6.4H347l6.4-44
		C354.2,396.9,337.4,396.1,331.8,396.1z M335.8,432.1c0,2.4-1.6,15.2-11.2,15.2c-4.8,0-6.4-4-6.4-6.4c0-4,2.4-9.6,14.4-9.6
		C335,432.1,335,432.1,335.8,432.1z"/>
	<path class="st6" d="M367,460.1c4.8-26.4,5.6-48,16.8-44c1.6-10.4,4-14.4,5.6-18.4c0,0-0.8,0-3.2,0c-7.2,0-12.8,9.6-12.8,9.6
		l1.6-8.8h-15.2l-10.4,62.4H367V460.1z"/>
</g>
<g>
	<path class="st7" d="M135,448.1c0,9.6,5.6,13.6,12.8,13.6c5.6,0,10.4-1.6,12-2.4l2.4-13.6c-0.8,0-2.4,0.8-4,0.8
		c-5.6,0-6.4-3.2-5.6-4.8l4.8-28h8.8l2.4-15.2h-8l1.6-9.6"/>
	<path class="st7" d="M173.4,433.7c0,22.4,7.2,28,20,28c12,0,16.8-2.4,16.8-2.4l3.2-15.2c0,0-8.8,4-16.8,4
		c-17.6,0-14.4-12.8-14.4-12.8H215c0,0,2.4-10.4,2.4-14.4c0-10.4-5.6-23.2-23.2-23.2C177.4,396.1,173.4,413.7,173.4,433.7z
		 M193.4,410.5c8.8,0,10.4,10.4,10.4,11.2H183C183,420.9,184.6,410.5,193.4,410.5z"/>
	<path class="st7" d="M295,459.3l3.2-17.6c0,0-8,4-13.6,4c-11.2,0-16-8.8-16-18.4c0-19.2,9.6-29.6,20.8-29.6c8,0,14.4,4.8,14.4,4.8
		l2.4-16.8c0,0-9.6-4-18.4-4c-18.4,0-28.8,16-28.8,46.4c0,20,1.6,33.6,20.8,33.6C286.2,461.7,295,459.3,295,459.3z"/>
	<path class="st7" d="M50.2,413.7c0,0,7.2-3.2,17.6-3.2c5.6,0,10.4,0.8,10.4,5.6c0,3.2-0.8,4-0.8,4s-4.8,0-7.2,0
		c-13.6,0-28.8,5.6-28.8,24c0,14.4,9.6,17.6,15.2,17.6c11.2,0,16-7.2,16.8-7.2l-0.8,6.4H87l6.4-44c0-18.4-16-19.2-22.4-19.2
		 M83,432.1c0,2.4-9.6,15.2-19.2,15.2c-4.8,0-6.4-4-6.4-6.4c0-4,2.4-9.6,14.4-9.6C74.2,432.1,83,432.1,83,432.1z"/>
	<path class="st7" d="M91,459.3c0,0,4.8,1.6,18.4,1.6c4,0,24,0.8,24-20.8c0-20-19.2-16-19.2-24c0-4,3.2-5.6,8.8-5.6
		c2.4,0,11.2,0.8,11.2,0.8l2.4-14.4c0,0-5.6-1.6-15.2-1.6c-12,0-16,4.8-16,20.8c0,18.4,12,16.8,12,24c0,4.8-5.6,5.6-9.6,5.6"/>
	<path class="st7" d="M424.6,404.9c0,0-6.4-8-15.2-8c-14.4,0-19.2,17.6-19.2,38.4c0,12.8-1.6,26.4,12,26.4c9.6,0,15.2-6.4,15.2-6.4
		l-0.8,5.6h16l12-76.8 M423.8,425.7c0,8.8-7.2,20-16,20c-5.6,0-8.8-4.8-8.8-12.8c0-12.8,5.6-20.8,12.8-20.8
		C417.4,412.1,423.8,416.1,423.8,425.7z"/>
	<path class="st7" d="M-15.4,460.1l9.6-57.6l1.6,57.6H7l20.8-57.6L19,460.1h16.8l12.8-76.8h-20L6.2,430.5l-0.8-47.2h-8.8l-27.2,76.8
		H-15.4z"/>
	<path class="st7" d="M215.8,460.1h16.8c4.8-26.4,5.6-48,16.8-44c1.6-10.4,4-14.4,5.6-18.4c0,0-0.8,0-3.2,0
		c-7.2,0-12.8,9.6-12.8,9.6l1.6-8.8"/>
	<path class="st7" d="M310.2,413.7c0,0,7.2-3.2,17.6-3.2c5.6,0,10.4,0.8,10.4,5.6c0,3.2-0.8,4-0.8,4s-4.8,0-7.2,0
		c-13.6,0-28.8,5.6-28.8,24c0,14.4,9.6,17.6,15.2,17.6c11.2,0,16-7.2,16.8-7.2l-0.8,6.4H347l6.4-44c0-18.4-16-19.2-22.4-19.2
		 M343,432.1c0,2.4-9.6,15.2-19.2,15.2c-4.8,0-6.4-4-6.4-6.4c0-4,2.4-9.6,14.4-9.6C335,432.1,343,432.1,343,432.1z"/>
	<path class="st7" d="M350.2,460.1H367c4.8-26.4,5.6-48,16.8-44c1.6-10.4,4-14.4,5.6-18.4c0,0-0.8,0-3.2,0c-7.2,0-12.8,9.6-12.8,9.6
		l1.6-8.8"/>
</g>
</svg>
