<?xml version="1.0" encoding="utf-8"?>
<!-- Generator: Adobe Illustrator 18.1.1, SVG Export Plug-In . SVG Version: 6.00 Build 0)  -->
<svg version="1.1" id="Слой_1" xmlns="http://www.w3.org/2000/svg" xmlns:xlink="http://www.w3.org/1999/xlink" x="0px" y="0px"
	 viewBox="297 121.3 246.4 349.6" enable-background="new 297 121.3 246.4 349.6" xml:space="preserve">
<g>
	<path fill="#FFFFFF" d="M533.8,170.1h-54.4c-5.3,0-9.6,4.3-9.6,9.6c0,5.3,4.3,9.6,9.6,9.6h44.8v262.4h-208V189.3H361
		c5.3,0,9.6-4.3,9.6-9.6c0-5.3-4.3-9.6-9.6-9.6h-54.4c-5.3,0-9.6,4.3-9.6,9.6v281.6c0,5.3,4.3,9.6,9.6,9.6h227.2
		c5.3,0,9.6-4.3,9.6-9.6V179.7C543.4,174.4,539.1,170.1,533.8,170.1L533.8,170.1z"/>
	<path fill="#FFFFFF" d="M505,198.9H335.4c-3.5,0-6.4,2.9-6.4,6.4v227.2c0,3.5,2.9,6.4,6.4,6.4h104.4c1.6,0,3.2-0.6,4.4-1.7
		l65.2-60.8c1.3-1.2,2-2.9,2-4.7V205.3C511.4,201.7,508.5,198.9,505,198.9L505,198.9z M498.6,368.9l-61.3,57.2h-95.5V211.7h156.8
		L498.6,368.9L498.6,368.9z"/>
	<path fill="#FFFFFF" d="M498.6,358.9h-60.8c-3.5,0-6.4,2.9-6.4,6.4v60.8c0,3.5,2.9,6.4,6.4,6.4c3.5,0,6.4-2.9,6.4-6.4v-54.4h54.4
		c3.5,0,6.4-2.9,6.4-6.4C505,361.7,502.1,358.9,498.6,358.9L498.6,358.9z"/>
	<path fill="#FFFFFF" d="M476.2,154.1h-112c-5.3,0-9.6,4.3-9.6,9.6v35.2c0,5.3,4.3,9.6,9.6,9.6c5.3,0,9.6-4.3,9.6-9.6v-25.6h92.8
		v25.6c0,5.3,4.3,9.6,9.6,9.6c5.3,0,9.6-4.3,9.6-9.6v-35.2C485.8,158.4,481.5,154.1,476.2,154.1L476.2,154.1z"/>
	<path fill="#FFFFFF" d="M473.3,170.1c-3.5,0-6.4,2.9-6.4,6.4v22.4h-93.5v-22.4c0-3.5-2.9-6.4-6.4-6.4s-6.4,2.9-6.4,6.4v28.8
		c0,3.5,2.9,6.4,6.4,6.4h106.3c3.5,0,6.4-2.9,6.4-6.4v-28.8C479.7,172.9,476.9,170.1,473.3,170.1L473.3,170.1z"/>
	<path fill="#FFFFFF" d="M420.2,125.3c-20.3,0-36.8,16.5-36.8,36.8c0,5.3,4.3,9.6,9.6,9.6c5.3,0,9.6-4.3,9.6-9.6
		c0-9.7,7.9-17.6,17.6-17.6c9.7,0,17.6,7.9,17.6,17.6c0,5.3,4.3,9.6,9.6,9.6c5.3,0,9.6-4.3,9.6-9.6
		C457,141.8,440.5,125.3,420.2,125.3L420.2,125.3z"/>
	<path fill="#FFFFFF" d="M418.6,243.7c-5.3,0-9.6,4.3-9.6,9.6v38.4c0,5.3,4.3,9.6,9.6,9.6c5.3,0,9.6-4.3,9.6-9.6v-38.4
		C428.2,248,423.9,243.7,418.6,243.7L418.6,243.7z"/>
	<path fill="#FFFFFF" d="M437.8,262.9h-38.4c-5.3,0-9.6,4.3-9.6,9.6c0,5.3,4.3,9.6,9.6,9.6h38.4c5.3,0,9.6-4.3,9.6-9.6
		C447.4,267.2,443.1,262.9,437.8,262.9L437.8,262.9z"/>
	<path fill="#FFFFFF" d="M428.2,330.1h-60.8c-3.5,0-6.4,2.9-6.4,6.4c0,3.5,2.9,6.4,6.4,6.4h60.8c3.5,0,6.4-2.9,6.4-6.4
		C434.6,332.9,431.7,330.1,428.2,330.1L428.2,330.1z"/>
	<path fill="#FFFFFF" d="M469.8,330.1h-16c-3.5,0-6.4,2.9-6.4,6.4c0,3.5,2.9,6.4,6.4,6.4h16c3.5,0,6.4-2.9,6.4-6.4
		C476.2,332.9,473.3,330.1,469.8,330.1L469.8,330.1z"/>
	<path fill="#FFFFFF" d="M407.9,358.9h-40.5c-3.5,0-6.4,2.9-6.4,6.4s2.9,6.4,6.4,6.4h40.5c3.5,0,6.4-2.9,6.4-6.4
		C414.3,361.7,411.5,358.9,407.9,358.9L407.9,358.9z"/>
</g>
</svg>
