<?xml version="1.0" encoding="utf-8"?>
<!-- Generator: Adobe Illustrator 18.1.1, SVG Export Plug-In . SVG Version: 6.00 Build 0)  -->
<svg version="1.1" id="Capa_1" xmlns="http://www.w3.org/2000/svg" xmlns:xlink="http://www.w3.org/1999/xlink" x="0px" y="0px"
	 viewBox="123.9 0 594 595.3" enable-background="new 123.9 0 594 595.3" xml:space="preserve">
<g>
	<path fill="#FFFFFF" d="M409,366.1c-51-42-85.1-93.8-103-123.2l-13.4-25.2c4.7-5,40.3-43.2,55.8-63.9c19.4-26-8.7-49.5-8.7-49.5
		s-79.2-79.2-97.2-94.9c-18-15.7-38.8-7-38.8-7c-37.9,24.5-77.2,45.8-79.6,148.3c-0.1,95.9,72.7,194.9,151.5,271.5
		c78.9,86.5,187.2,173.2,291.9,173.1c102.5-2.3,123.8-41.6,148.3-79.6c0,0,8.7-20.8-7-38.8c-15.7-18.1-94.9-97.3-94.9-97.3
		s-23.5-28.1-49.5-8.7c-19.4,14.5-54.2,46.7-62.6,54.5C501.6,425.5,443.4,394.4,409,366.1z"/>
</g>
</svg>
