<?xml version="1.0" encoding="utf-8"?>
<!-- Generator: Adobe Illustrator 19.0.0, SVG Export Plug-In . SVG Version: 6.00 Build 0)  -->
<svg version="1.1" id="Layer_1" xmlns="http://www.w3.org/2000/svg" xmlns:xlink="http://www.w3.org/1999/xlink" x="0px" y="0px"
	 viewBox="-45 344.5 504 152.8" style="enable-background:new -45 344.5 504 152.8;" xml:space="preserve">
<style type="text/css">
	.st0{fill:#3C58BF;}
	.st1{fill:#293688;}
	.st2{fill:#FFBC00;}
	.st3{fill:#F7981D;}
	.st4{fill:#ED7C00;}
	.st5{fill:#051244;}
</style>
<polygon class="st0" points="139.8,493.3 165.4,349.3 205.4,349.3 180.6,493.3 "/>
<polygon class="st1" points="139.8,493.3 172.6,349.3 205.4,349.3 180.6,493.3 "/>
<path class="st0" d="M325.4,350.9c-8-3.2-20.8-6.4-36.8-6.4c-40,0-68.8,20-68.8,48.8c0,21.6,20,32.8,36,40s20.8,12,20.8,18.4
	c0,9.6-12.8,14.4-24,14.4c-16,0-24.8-2.4-38.4-8l-5.6-2.4l-5.6,32.8c9.6,4,27.2,8,45.6,8c42.4,0,70.4-20,70.4-50.4
	c0-16.8-10.4-29.6-34.4-40c-14.4-7.2-23.2-11.2-23.2-18.4c0-6.4,7.2-12.8,23.2-12.8c13.6,0,23.2,2.4,30.4,5.6l4,1.6L325.4,350.9
	L325.4,350.9z"/>
<path class="st1" d="M325.4,350.9c-8-3.2-20.8-6.4-36.8-6.4c-40,0-61.6,20-61.6,48.8c0,21.6,12.8,32.8,28.8,40s20.8,12,20.8,18.4
	c0,9.6-12.8,14.4-24,14.4c-16,0-24.8-2.4-38.4-8l-5.6-2.4l-5.6,32.8c9.6,4,27.2,8,45.6,8c42.4,0,70.4-20,70.4-50.4
	c0-16.8-10.4-29.6-34.4-40c-14.4-7.2-23.2-11.2-23.2-18.4c0-6.4,7.2-12.8,23.2-12.8c13.6,0,23.2,2.4,30.4,5.6l4,1.6L325.4,350.9
	L325.4,350.9z"/>
<path class="st0" d="M394.2,349.3c-9.6,0-16.8,0.8-20.8,10.4l-60,133.6h43.2l8-24h51.2l4.8,24H459l-33.6-144H394.2z M375.8,445.3
	c2.4-7.2,16-42.4,16-42.4s3.2-8.8,5.6-14.4l2.4,13.6c0,0,8,36,9.6,44h-33.6V445.3z"/>
<path class="st1" d="M403.8,349.3c-9.6,0-16.8,0.8-20.8,10.4l-69.6,133.6h43.2l8-24h51.2l4.8,24H459l-33.6-144H403.8z M375.8,445.3
	c3.2-8,16-42.4,16-42.4s3.2-8.8,5.6-14.4l2.4,13.6c0,0,8,36,9.6,44h-33.6V445.3z"/>
<path class="st0" d="M66.2,450.1l-4-20.8c-7.2-24-30.4-50.4-56-63.2l36,128h43.2l64.8-144H107L66.2,450.1z"/>
<path class="st1" d="M66.2,450.1l-4-20.8c-7.2-24-30.4-50.4-56-63.2l36,128h43.2l64.8-144H115L66.2,450.1z"/>
<path class="st2" d="M-45,349.3l7.2,1.6c51.2,12,86.4,42.4,100,78.4l-14.4-68c-2.4-9.6-9.6-12-18.4-12H-45z"/>
<path class="st3" d="M-45,349.3L-45,349.3c51.2,12,93.6,43.2,107.2,79.2l-13.6-56.8c-2.4-9.6-10.4-15.2-19.2-15.2L-45,349.3z"/>
<path class="st4" d="M-45,349.3L-45,349.3c51.2,12,93.6,43.2,107.2,79.2l-9.6-31.2c-2.4-9.6-5.6-19.2-16.8-23.2L-45,349.3z"/>
<g>
	<path class="st5" d="M106.2,445.3L79,418.1l-12.8,30.4l-3.2-20c-7.2-24-30.4-50.4-56-63.2l36,128h43.2L106.2,445.3z"/>
	<polygon class="st5" points="180.6,493.3 146.2,458.1 139.8,493.3 	"/>
	<path class="st5" d="M272.6,443.7L272.6,443.7c3.2,3.2,4.8,5.6,4,8.8c0,9.6-12.8,14.4-24,14.4c-16,0-24.8-2.4-38.4-8l-5.6-2.4
		l-5.6,32.8c9.6,4,27.2,8,45.6,8c25.6,0,46.4-7.2,58.4-20L272.6,443.7z"/>
	<path class="st5" d="M319,493.3h37.6l8-24h51.2l4.8,24H459l-13.6-58.4l-48-46.4l2.4,12.8c0,0,8,36,9.6,44h-33.6
		c3.2-8,16-42.4,16-42.4s3.2-8.8,5.6-14.4"/>
</g>
</svg>
