<?xml version="1.0" encoding="utf-8"?>
<!-- Generator: Adobe Illustrator 18.1.1, SVG Export Plug-In . SVG Version: 6.00 Build 0)  -->
<svg version="1.1" id="Capa_1" xmlns="http://www.w3.org/2000/svg" xmlns:xlink="http://www.w3.org/1999/xlink" x="0px" y="0px"
	 viewBox="-373 251.3 94 94" enable-background="new -373 251.3 94 94" xml:space="preserve">
<g>
	<path fill="#FFFFFF" d="M-284,251.3h-84c-2.8,0-5,2.2-5,5v84c0,2.8,2.2,5,5,5h84c2.8,0,5-2.2,5-5v-84
		C-279,253.5-281.2,251.3-284,251.3z M-298.1,304.2c2.6,2.5,5.3,4.9,7.6,7.6c1,1.2,2,2.5,2.7,3.9c1,2,0.1,4.2-1.7,4.4l-11.3,0
		c-2.9,0.2-5.2-0.9-7.2-2.9c-1.6-1.6-3-3.3-4.5-4.9c-0.6-0.7-1.3-1.3-2-1.8c-1.5-1-2.9-0.7-3.7,0.9c-0.9,1.6-1.1,3.4-1.2,5.3
		c-0.1,2.7-0.9,3.3-3.6,3.5c-5.7,0.3-11.1-0.6-16.1-3.5c-4.4-2.5-7.9-6.1-10.8-10.1c-5.8-7.9-10.3-16.5-14.3-25.4
		c-0.9-2-0.2-3.1,2-3.1c3.7-0.1,7.4-0.1,11,0c1.5,0,2.5,0.9,3.1,2.3c2,4.9,4.4,9.5,7.5,13.8c0.8,1.1,1.6,2.3,2.8,3.1
		c1.3,0.9,2.3,0.6,2.9-0.9c0.4-0.9,0.6-1.9,0.6-2.9c0.3-3.4,0.3-6.8-0.2-10.2c-0.3-2.1-1.5-3.5-3.6-3.9c-1.1-0.2-0.9-0.6-0.4-1.2
		c0.9-1.1,1.8-1.7,3.5-1.7l12.7,0c2,0.4,2.5,1.3,2.7,3.3l0,14.1c0,0.8,0.4,3.1,1.8,3.6c1.1,0.4,1.9-0.5,2.5-1.2
		c3-3.2,5.2-7.1,7.2-11c0.9-1.7,1.6-3.5,2.3-5.4c0.5-1.3,1.4-2,2.9-2l12.2,0c0.4,0,0.7,0,1.1,0.1c2.1,0.4,2.6,1.2,2,3.3
		c-1,3.2-3,5.8-4.9,8.4c-2,2.8-4.2,5.6-6.3,8.4C-300.6,300.7-300.4,302-298.1,304.2z"/>
</g>
</svg>
