<svg xmlns="http://www.w3.org/2000/svg" viewBox="257 137.3 325.5 321.3"><path fill="#FFF" d="M403.5 354.9c-4.4 0-8-3.6-8-8s3.6-8 8-8h8.2v-8.2c0-4.4 3.6-8 8-8s8 3.6 8 8v8.2h8.2c4.4 0 8 3.6 8 8s-3.6 8-8 8h-8.2v8.2c0 4.4-3.6 8-8 8s-8-3.6-8-8v-8.2h-8.2zm179 95.7c0 4.4-3.6 8-8 8H265c-4.4 0-8-3.6-8-8s3.6-8 8-8h30.7V328.3c0-4.4 3.6-8 8-8h78.6c8.3-11.7 22-19.4 37.5-19.4 15.4 0 29.1 7.7 37.5 19.4h44.9v-18.2h-44.4c-4.4 0-8-3.6-8-8v-69.7c0-4.4 3.6-8 8-8h104.7c4.4 0 8 3.6 8 8v69.7c0 4.4-3.6 8-8 8h-44.4v18.2h17.7c4.4 0 8 3.6 8 8v114.3h30.7c4.4 0 8 3.6 8 8zm-28.1-164.5v-53.7h-88.7v53.7h88.7zm-164.6 60.8c0 16.5 13.4 30 30 30 16.5 0 30-13.4 30-30 0-16.5-13.4-30-30-30s-30 13.5-30 30zm138-10.6h-63.3c.8 3.4 1.2 7 1.2 10.6 0 25.4-20.6 46-46 46s-46-20.6-46-46c0-3.6.4-7.2 1.2-10.6h-63.3v106.3h216.1l.1-106.3zm-263.2 11.4c1.2.6 2.4.9 3.6.9 2.9 0 5.7-1.6 7.1-4.4l23.8-47.1c7.5-14.9 16-21 29.3-21h18.2c13.3 0 21.8 6.1 29.3 21 2 3.9 6.8 5.5 10.7 3.5 3.9-2 5.5-6.8 3.5-10.7-6.5-12.8-18-29.8-43.6-29.8h-18.2c-25.6 0-37.1 17-43.6 29.8l-23.7 47c-1.9 4-.4 8.8 3.6 10.8zm5.2-126.1c-1.1-4.9-1.7-10-1.7-15.1 0-38.2 31.1-69.2 69.2-69.2 38.2 0 69.2 31.1 69.2 69.2 0 5.1-.6 10.2-1.7 15.1-.8 3.7-4.1 6.3-7.8 6.3h-25.3c-7.2 11.5-19.9 19.2-34.5 19.2-14.5 0-27.3-7.7-34.5-19.2h-25.3c-3.5 0-6.7-2.6-7.6-6.3zm86.7.4c-17-4.1-29.8-19-30.8-37-7.6 4.2-12.8 12.3-12.8 21.5 0 13.5 11 24.5 24.6 24.5 7.6.1 14.5-3.5 19-9zm5.5-15.5c0-12.1-8.8-22.2-20.4-24.2v.3c0 12.1 8.8 22.2 20.4 24.2v-.3zm-77.8 0c0 1.8.1 3.6.3 5.4h12.8c-.2-1.7-.3-3.5-.3-5.3v-.1c0-21.2 16.3-38.6 37-40.4h.3c1.1-.1 2.2-.1 3.3-.1 22.4 0 40.6 18.2 40.6 40.5v.1c0 1.8-.1 3.5-.3 5.3h12.8c.2-1.8.3-3.6.3-5.4 0-29.4-23.9-53.2-53.2-53.2-29.7 0-53.6 23.9-53.6 53.2z"/></svg>