<svg xmlns="http://www.w3.org/2000/svg" fill="#47a364" viewBox="408 265.9 270.3 312.1"><path d="M424 273.9v295.6c0 4.4-3.6 8-8 8s-8-3.6-8-8V273.9c0-4.4 3.6-8 8-8s8 3.6 8 8zm163.3 37.5v95c0 4.4-3.6 8-8 8h-95.1c-4.4 0-8-3.6-8-8v-95c0-4.4 3.6-8 8-8h95c4.5 0 8.1 3.6 8.1 8zm-34.9 87c-4.1-7.9-8.2-10.8-15.1-10.8h-11.2c-6.9 0-11 2.9-15.1 10.8h41.4zm-20.6-40.1c3.3 0 5.9-2.7 5.9-5.9 0-3.3-2.7-5.9-5.9-5.9-3.3 0-5.9 2.7-5.9 5.9-.1 3.2 2.6 5.9 5.9 5.9zm39.5-38.9h-79v79h.9l3.4-6.8c2.3-4.6 8.9-17.7 25.1-19.7-7.1-3.7-11.9-11-11.9-19.5 0-12.1 9.8-21.9 21.9-21.9 12.1 0 21.9 9.8 21.9 21.9 0 8.5-4.8 15.9-11.9 19.5 16.2 2.1 22.8 15.2 25.1 19.7l3.4 6.8h.9l.2-79zm107-45V570c0 4.4-3.6 8-8 8H443.5c-4.4 0-8-3.6-8-8V274.4c0-4.4 3.6-8 8-8h226.8c4.4 0 8 3.6 8 8zm-62.9 259.7l17.4-12v-65.5l-17.4-12c-2.2-1.5-3.4-4-3.4-6.6V282.4H451.5V562H612v-21.4c0-2.6 1.3-5 3.4-6.5zm46.9-251.7H628v151.3l17.4 12c2.2 1.5 3.4 4 3.4 6.6v73.9c0 2.6-1.3 5.1-3.4 6.6l-17.4 12V562h34.3V282.4z"/></svg>