<svg xmlns="http://www.w3.org/2000/svg" fill="#fff" viewBox="-42.5 216.8 310.1 409"><path d="M262.1 569.6c-4.9 2.5-10.9.5-13.4-4.4l-49.8-98.7c-11.9-23.6-29.2-47.6-67.4-47.6h-38c-38.2 0-55.5 24.1-67.4 47.6l-49.8 98.7c-1.8 3.5-5.3 5.5-8.9 5.5-1.5 0-3.1-.3-4.5-1.1-4.9-2.5-6.9-8.5-4.4-13.4l49.8-98.7c12.7-25.2 35.4-58.6 85.2-58.6h38c49.9 0 72.5 33.5 85.2 58.6l49.8 98.7c2.5 4.9.5 10.9-4.4 13.4zM131.6 439c-5.5 0-10 4.5-10 10v12.9h-12.9c-5.5 0-10 4.5-10 10s4.5 10 10 10h12.9v12.9c0 5.5 4.5 10 10 10s10-4.5 10-10v-12.9h12.9c5.5 0 10-4.5 10-10s-4.5-10-10-10h-12.9V449c0-5.5-4.5-10-10-10zm51.4 55.5c-5.5 0-10 4.5-10 10v101.4H52V504.5c0-5.5-4.5-10-10-10s-10 4.5-10 10v111.4c0 5.5 4.5 10 10 10h141c5.5 0 10-4.5 10-10V504.5c0-5.5-4.5-10-10-10zM15.6 337.8c-1.6-7.1-2.4-14.4-2.4-21.7 0-54.8 44.6-99.3 99.3-99.3 54.8 0 99.3 44.6 99.3 99.3 0 7.3-.8 14.6-2.4 21.7-1 4.6-5.1 7.8-9.8 7.8h-37.8c-10.3 17.2-29 28-49.3 28s-39.1-10.8-49.3-28H25.3c-4.6 0-8.7-3.2-9.7-7.8zm127.6-.2c-26.1-5.1-45.9-28-46.3-55.5C84 288 75 301.1 75 316.2c0 5.4 1.1 10.5 3.3 15.4 0 .1 0 .1.1.2 6.1 13.3 19.5 21.9 34.1 21.9 12.4-.1 23.8-6.2 30.7-16.1zm6.8-21.4c0-19.2-14.5-35-33-37.2 0 .8-.1 1.5-.1 2.3 0 19.2 14.5 35 33 37.2.1-.8.1-1.6.1-2.3zm-116.8 0c0 3.2.2 6.3.6 9.5h22.1c-.5-3.1-.8-6.3-.8-9.5 0-30 23.2-54.8 52.6-57.3h.2c1.6-.1 3.1-.2 4.7-.2 31.7 0 57.5 25.8 57.5 57.5 0 3.2-.3 6.4-.8 9.5h22.1c.4-3.1.6-6.3.6-9.5 0-43.7-35.6-79.3-79.3-79.3-43.9-.1-79.5 35.5-79.5 79.3z"/></svg>