<svg data-name="Capa 1" xmlns="http://www.w3.org/2000/svg" width="34" height="62" viewBox="0 0 261.76 476.8"><title>08</title><path fill="#477efb" d="M256.01 415V230.76a8 8 0 0 0 5.75-7.67 56.19 56.19 0 0 0-27.78-48.37l-39.83-23.23a34.12 34.12 0 0 1-16.87-29.37v-17.4a8 8 0 0 0 8-8V22.51A22.54 22.54 0 0 0 162.81 0H98.95a22.54 22.54 0 0 0-22.47 22.51v74.2a8 8 0 0 0 8 8v17.4a34.12 34.12 0 0 1-16.87 29.37l-39.83 23.24A56.19 56.19 0 0 0 0 223.09a8 8 0 0 0 5.75 7.67V415A8 8 0 0 0 0 422.67v10.13a44 44 0 0 0 44 44h173.76a44 44 0 0 0 44-44v-10.08a8 8 0 0 0-5.75-7.72zM92.48 88.72v-17h76.88v17H92.48zM98.95 16h63.85a6.52 6.52 0 0 1 6.51 6.51v33.22H92.48V22.51A6.52 6.52 0 0 1 98.95 16zm-63.1 172.54l39.83-23.23a50.17 50.17 0 0 0 24.8-43.19v-17.4h60.8v17.4a50.17 50.17 0 0 0 24.81 43.19l39.83 23.23a40.15 40.15 0 0 1 19 26.55h-11.64a8 8 0 0 0 0 16h6.73v42.41a43.36 43.36 0 0 1-14-4 64.48 64.48 0 0 0-52.79 0c-5.42 2.33-10.1 4.35-20.07 4.35s-14.65-2-20.07-4.35a58.49 58.49 0 0 0-26.4-5.65 58.48 58.48 0 0 0-26.4 5.65c-5.42 2.33-10.1 4.35-20.07 4.35s-14.65-2-20.07-4.35a58.37 58.37 0 0 0-18.39-5.23v-33.18h160.33a8 8 0 0 0 0-16H16.82a40.16 40.16 0 0 1 19.03-26.55zM245.76 432.8a28 28 0 0 1-28 28H44a28 28 0 0 1-28-28v-2.08h166.08a8 8 0 0 0 0-16H21.75V280.34a45 45 0 0 1 12.07 3.81 58.47 58.47 0 0 0 26.4 5.65 58.49 58.49 0 0 0 26.4-5.65c5.42-2.33 10.1-4.35 20.07-4.35s14.65 2 20.07 4.35a64.47 64.47 0 0 0 52.79 0c5.42-2.33 10.1-4.35 20.07-4.35s14.65 2 20.07 4.35a57.89 57.89 0 0 0 20.32 5.41v125.16h-6.73a8 8 0 0 0 0 16h12.48v2.08z"/></svg>