<svg xmlns="http://www.w3.org/2000/svg" viewBox="123.3 0 595.3 595.3"><g fill="#FFF"><path d="M522 362.6l-80-45.3V152.1c0-12-9.8-21.8-21.8-21.8s-21.8 9.8-21.8 21.8v178c0 .3.1.5.1.8 0 .8.1 1.5.2 2.3.1.7.2 1.4.4 2.1.2.7.4 1.3.6 2 .2.7.5 1.4.8 2 .3.6.6 1.2 1 1.8.4.6.7 1.2 1.1 1.8.4.6.9 1.1 1.4 1.7.5.5.9 1 1.4 1.5.5.5 1.1.9 1.6 1.3.6.5 1.2.9 1.8 1.3.2.1.4.3.7.5l91.1 51.5c3.4 1.9 7.1 2.8 10.7 2.8 7.6 0 15-4 19-11.1 5.9-10.6 2.2-23.9-8.3-29.8z"/><path d="M420.9 0C256.8 0 123.3 133.5 123.3 297.6c0 164.1 133.5 297.6 297.6 297.6 164.1 0 297.6-133.5 297.6-297.6C718.6 133.5 585.1 0 420.9 0zm19 547.1v-43.4H402v43.4c-117.3-8.8-212.3-98.9-228.8-214H218v-37.9h-47.3C172 164.7 273.6 57.8 402 48.2v43.4h37.9V48.2c128.4 9.7 230 116.6 231.3 247.1h-44.9v37.9h42.4c-16.5 115.1-111.5 205.1-228.8 213.9z"/></g></svg>