<svg xmlns="http://www.w3.org/2000/svg" width="128" height="128" viewBox="0 0 654.348 654.348"><path d="M466.121 401.586c52.287-41.184 85.985-104.92 85.985-176.654C552.106 100.708 451.398 0 327.174 0S102.242 100.708 102.242 224.932c0 71.733 33.699 135.47 85.985 176.654C94.471 449.373 28.484 543.764 21.184 654.348h40.958c7.893-103.549 75.209-190.332 167.861-226.793 29.446 14.15 62.327 22.311 97.171 22.311 34.865 0 67.725-8.16 97.17-22.311 92.652 36.461 159.968 123.244 167.861 226.793h40.958c-7.279-110.584-73.287-204.975-167.042-252.762zm-138.947 7.383c-101.649 0-184.036-82.387-184.036-184.037 0-101.649 82.387-184.035 184.036-184.035S511.21 123.283 511.21 224.932c-.001 101.65-82.387 184.037-184.036 184.037z"/></svg>