<?xml version="1.0" encoding="utf-8"?>
<!-- Generator: Adobe Illustrator 19.1.0, SVG Export Plug-In . SVG Version: 6.00 Build 0)  -->
<svg version="1.1" id="Слой_1" xmlns="http://www.w3.org/2000/svg" xmlns:xlink="http://www.w3.org/1999/xlink" x="0px" y="0px"
	 viewBox="0 0 141.8 134.9" style="enable-background:new 0 0 141.8 134.9;" xml:space="preserve">
<style type="text/css">
	.st0{fill:#93CE89;}
	.st1{fill:none;stroke:#000000;stroke-width:2;}
	.st2{fill:#FFFFFF;}
	.st3{fill:#78C26B;}
	.st4{fill:#FFFFFF;fill-opacity:0.4;}
	.st5{fill:#3599FD;stroke:#000000;stroke-width:1.5;}
	.st6{fill:#55B3FD;stroke:#000000;stroke-width:1.5;}
	.st7{fill:#3599FD;}
	.st8{fill:none;stroke:#000000;stroke-width:1.5;}
	.st9{fill:none;stroke:#000000;}
	.st10{fill:#55B3FD;}
	.st11{fill:none;stroke:#000000;stroke-width:0.7;}
	.st12{fill:#FFFFFF;stroke:#000000;stroke-width:0.5;}
	.st13{fill:none;stroke:#000000;stroke-width:0.5;}
	.st14{fill:none;stroke:#000000;stroke-width:1.5;stroke-linecap:round;}
	.st15{fill:#93CE89;stroke:#000000;stroke-width:1.5;}
	.st16{fill:#87C27D;}
	.st17{fill:none;stroke:#FFFFFF;stroke-width:2;stroke-linecap:round;}
	.st18{fill:#55B3FD;stroke:#000000;stroke-width:1.5;stroke-linecap:round;}
	.st19{fill:#2BA0FD;}
</style>
<g>
	<path class="st5" d="M17.6,112.1c5.8,4.1,20.6,11.9,49.2,11.9l0,0c6.6,0,12.3-0.4,17.4-1.1c0.5-0.1,0.7-0.6,0.3-1L40.3,77.6
		c-0.2-0.2-0.4-0.2-0.6-0.1C29.3,82.2,16.7,91,14.9,105.9C14.5,108.4,15.6,110.7,17.6,112.1z"/>
	<path class="st5" d="M92.5,28.9l3.2-15.7c0.1-0.4-0.2-0.7-0.6-0.7H67H39c-0.4,0-0.6,0.3-0.6,0.7l3.1,15.7c0.1,0.3,0.3,0.5,0.6,0.5
		H92C92.2,29.4,92.5,29.2,92.5,28.9z"/>
	<path class="st5" d="M43,33.7c-0.2,0-0.5,0.2-0.5,0.4C41.6,37,41,40.1,41,43.3c0,15,11.6,27.2,26,27.2c13.6,0,24.6-10.9,26-24.8
		c0-0.3,0.3-0.5,0.6-0.5l6.9,0c0.5,0,0.7-0.6,0.4-0.9l-9.1-10.3c-0.1-0.1-0.3-0.2-0.4-0.2L43,33.7z"/>
	<path class="st10" d="M50.4,33.7c-0.3,0-0.5,0.2-0.5,0.4c-0.8,2.6-1.3,5.4-1.3,8.4c0,13.8,10.1,25.1,22.5,25.1
		c11.7,0,20.7-9.1,21.8-21.9c0-0.3,0.2-0.5,0.5-0.5l7.1-0.4c0.5,0,0.7-0.6,0.4-0.9L92.5,34c-0.1-0.1-0.3-0.2-0.4-0.2L50.4,33.7z"/>
	<path class="st8" d="M42.9,33.7c-0.2,0-0.5,0.2-0.5,0.4c-0.9,2.9-1.5,5.9-1.5,9.1c0,15,11.6,27.2,26,27.2c13.6,0,24.6-10.9,26-24.8
		c0-0.3,0.3-0.5,0.6-0.5h7.6c0.5,0,0.8-0.6,0.4-1l-9.7-10.3c-0.1-0.1-0.3-0.2-0.4-0.2L42.9,33.7z"/>
</g>
<g>
	<path class="st15" d="M96.3,96.7L82.8,83.2c-0.7-0.7-1.8-0.7-2.5,0l-5,5c-0.7,0.7-0.7,1.8,0,2.5l21,20.9c0.7,0.7,1.8,0.7,2.5,0
		L134,76.3c0.7-0.7,0.7-1.8,0-2.5l-5-5c-0.7-0.7-1.8-0.7-2.5,0L98.8,96.7C98.1,97.4,97,97.4,96.3,96.7z"/>
</g>
</svg>
