<?xml version="1.0" encoding="utf-8"?>
<!-- Generator: Adobe Illustrator 19.1.0, SVG Export Plug-In . SVG Version: 6.00 Build 0)  -->
<svg version="1.1" id="Слой_1" xmlns="http://www.w3.org/2000/svg" xmlns:xlink="http://www.w3.org/1999/xlink" x="0px" y="0px"
	 viewBox="0 0 141.6 134.8" style="enable-background:new 0 0 141.6 134.8;" xml:space="preserve">
<style type="text/css">
	.st0{fill:#93CE89;}
	.st1{fill:none;stroke:#000000;stroke-width:2;}
	.st2{fill:#FFFFFF;}
	.st3{fill:#78C26B;}
	.st4{fill:#FFFFFF;fill-opacity:0.4;}
	.st5{fill:#3599FD;stroke:#000000;stroke-width:1.5;}
	.st6{fill:#55B3FD;stroke:#000000;stroke-width:1.5;}
	.st7{fill:#3599FD;}
	.st8{fill:none;stroke:#000000;stroke-width:1.5;}
	.st9{fill:none;stroke:#000000;}
	.st10{fill:#55B3FD;}
	.st11{fill:none;stroke:#000000;stroke-width:0.7;}
	.st12{fill:#FFFFFF;stroke:#000000;stroke-width:0.5;}
	.st13{fill:none;stroke:#000000;stroke-width:0.5;}
	.st14{fill:none;stroke:#000000;stroke-width:1.5;stroke-linecap:round;}
	.st15{fill:#93CE89;stroke:#000000;stroke-width:1.5;}
	.st16{fill:#87C27D;}
	.st17{fill:none;stroke:#FFFFFF;stroke-width:2;stroke-linecap:round;}
	.st18{fill:#55B3FD;stroke:#000000;stroke-width:1.5;stroke-linecap:round;}
	.st19{fill:#2BA0FD;}
</style>
<g>
	<path class="st0" d="M87.9,97.6l0-31l21.1-0.1v38c0,5.9-4.7,10.8-10.5,10.8h0c-0.6,0-1.1,0-1.7-0.1"/>
	<path class="st1" d="M98.4,117.4L98.4,117.4c7,0,12.7-5.7,12.7-12.7V39.4c0-0.2,0.2-0.3,0.3-0.3h2.2c0.2,0,0.3-0.2,0.3-0.3v-4.2
		c0-0.2-0.2-0.3-0.3-0.3H83.1c-0.2,0-0.3,0.2-0.3,0.3v4.2c0,0.2,0.2,0.3,0.3,0.3h2.2c0.2,0,0.3,0.2,0.3,0.3v54.1"/>
	<circle class="st2" cx="102.4" cy="83.4" r="2.1"/>
	<circle class="st2" cx="94.6" cy="98.6" r="3.3"/>
	<circle class="st2" cx="92" cy="72.9" r="1.5"/>
	<circle class="st3" cx="98.5" cy="57.3" r="1.5"/>
	<polygon class="st4" points="94,110.5 90.6,104.2 90.4,48.4 93.8,48.4 	"/>
</g>
<polyline class="st10" points="75.6,80.2 97,121 13.2,120.9 33.7,80.5 "/>
<path class="st8" d="M71.1,18.5v3.4c0,0.3-0.2,0.6-0.6,0.6h-1.1c-0.3,0-0.6,0.2-0.6,0.6v37.4c0,0.1,0,0.1,0,0.2l31.6,62.5
	c0.1,0.2-0.1,0.5-0.3,0.5H9.4c-0.3,0-0.4-0.3-0.3-0.5l31.6-62.5c0,0,0-0.1,0-0.2V23c0-0.3-0.2-0.6-0.6-0.6h-1.1
	c-0.3,0-0.6-0.2-0.6-0.6v-3.4c0-0.3,0.2-0.6,0.6-0.6h31.3C70.8,17.9,71.1,18.2,71.1,18.5z"/>
<circle class="st2" cx="65.7" cy="97.8" r="3.1"/>
<circle class="st2" cx="54.2" cy="114" r="3.5"/>
<circle class="st10" cx="56.2" cy="58" r="2.6"/>
<circle class="st2" cx="77" cy="108.8" r="1.7"/>
<circle class="st10" cx="50.7" cy="35.7" r="1.7"/>
<circle class="st2" cx="32.9" cy="110.5" r="1.7"/>
<circle class="st2" cx="37.4" cy="93.1" r="4.2"/>
<g>
	<g>
		<path class="st8" d="M71.1,18.5v3.4c0,0.3-0.2,0.6-0.6,0.6h-1.1c-0.3,0-0.6,0.2-0.6,0.6v37.4c0,0.1,0,0.1,0,0.2l31.6,62.5
			c0.1,0.2-0.1,0.5-0.3,0.5H9.4c-0.3,0-0.4-0.3-0.3-0.5l31.6-62.5c0,0,0-0.1,0-0.2V23c0-0.3-0.2-0.6-0.6-0.6h-1.1
			c-0.3,0-0.6-0.2-0.6-0.6v-3.4c0-0.3,0.2-0.6,0.6-0.6h31.3C70.8,17.9,71.1,18.2,71.1,18.5z"/>
	</g>
	<g>
		<path class="st1" d="M71.1,18.5v3.4c0,0.3-0.2,0.6-0.6,0.6h-1.1c-0.3,0-0.6,0.2-0.6,0.6v37.4c0,0.1,0,0.1,0,0.2l31.6,62.5
			c0.1,0.2-0.1,0.5-0.3,0.5H9.4c-0.3,0-0.4-0.3-0.3-0.5l31.6-62.5c0,0,0-0.1,0-0.2V23c0-0.3-0.2-0.6-0.6-0.6h-1.1
			c-0.3,0-0.6-0.2-0.6-0.6v-3.4c0-0.3,0.2-0.6,0.6-0.6h31.3C70.8,17.9,71.1,18.2,71.1,18.5z"/>
	</g>
</g>
<polygon class="st4" points="34.4,120.9 19.6,120.9 38.9,80.5 53.8,80.4 "/>
<circle class="st10" cx="47.3" cy="74.2" r="4.2"/>
</svg>
