<?xml version="1.0" encoding="utf-8"?>
<!-- Generator: Adobe Illustrator 19.1.0, SVG Export Plug-In . SVG Version: 6.00 Build 0)  -->
<svg version="1.1" id="Слой_1" xmlns="http://www.w3.org/2000/svg" xmlns:xlink="http://www.w3.org/1999/xlink" x="0px" y="0px"
	 viewBox="0 0 137 126.2" style="enable-background:new 0 0 137 126.2;" xml:space="preserve">
<style type="text/css">
	.st0{fill:#93CE89;}
	.st1{fill:none;stroke:#000000;stroke-width:2;}
	.st2{fill:#FFFFFF;}
	.st3{fill:#78C26B;}
	.st4{fill:#FFFFFF;fill-opacity:0.4;}
	.st5{fill:#3599FD;stroke:#000000;stroke-width:1.5;}
	.st6{fill:#55B3FD;stroke:#000000;stroke-width:1.5;}
	.st7{fill:#3599FD;}
	.st8{fill:none;stroke:#000000;stroke-width:1.5;}
	.st9{fill:none;stroke:#000000;}
	.st10{fill:#55B3FD;}
	.st11{fill:none;stroke:#000000;stroke-width:0.7;}
	.st12{fill:#FFFFFF;stroke:#000000;stroke-width:0.5;}
	.st13{fill:none;stroke:#000000;stroke-width:0.5;}
	.st14{fill:none;stroke:#000000;stroke-width:1.5;stroke-linecap:round;}
	.st15{fill:#93CE89;stroke:#000000;stroke-width:1.5;}
	.st16{fill:#87C27D;}
	.st17{fill:none;stroke:#FFFFFF;stroke-width:2;stroke-linecap:round;}
	.st18{fill:#55B3FD;stroke:#000000;stroke-width:1.5;stroke-linecap:round;}
	.st19{fill:#2BA0FD;}
</style>
<g>
	<g>
		<path class="st16" d="M98.5,99.9l-6.8-6.9c-0.1-0.1-0.1-0.1,0-0.2l21-20.9c0.1-0.1,0.1-0.1,0.2,0l6.8,6.9c0.1,0.1,0.1,0.1,0,0.2
			l-21,20.9C98.7,100,98.6,100,98.5,99.9z"/>
		<path class="st11" d="M98.5,99.9l-6.8-6.9c-0.1-0.1-0.1-0.1,0-0.2l21-20.9c0.1-0.1,0.1-0.1,0.2,0l6.8,6.9c0.1,0.1,0.1,0.1,0,0.2
			l-21,20.9C98.7,100,98.6,100,98.5,99.9z"/>
	</g>
	<g>
		<path class="st16" d="M90.1,82.6L83.5,76c-0.1-0.1-0.1-0.3,0-0.4l20.8-20.7c0.1-0.1,0.3-0.1,0.4,0l6.6,6.7c0.1,0.1,0.1,0.3,0,0.4
			L90.5,82.6C90.4,82.8,90.3,82.8,90.1,82.6z"/>
		<path class="st11" d="M90.1,82.6L83.5,76c-0.1-0.1-0.1-0.3,0-0.4l20.8-20.7c0.1-0.1,0.3-0.1,0.4,0l6.6,6.7c0.1,0.1,0.1,0.3,0,0.4
			L90.5,82.6C90.4,82.8,90.3,82.8,90.1,82.6z"/>
	</g>
	<g>
		<path class="st16" d="M55.8,49.6L49,42.7c-0.1-0.1-0.1-0.1,0-0.2l21-20.9c0.1-0.1,0.1-0.1,0.2,0l6.8,6.9c0.1,0.1,0.1,0.1,0,0.2
			L56,49.6C56,49.6,55.9,49.6,55.8,49.6z"/>
		<path class="st11" d="M55.8,49.6L49,42.7c-0.1-0.1-0.1-0.1,0-0.2l21-20.9c0.1-0.1,0.1-0.1,0.2,0l6.8,6.9c0.1,0.1,0.1,0.1,0,0.2
			L56,49.6C56,49.6,55.9,49.6,55.8,49.6z"/>
	</g>
	<g>
		<path class="st16" d="M38.8,40.3l-6.6-6.7c-0.1-0.1-0.1-0.3,0-0.4L53,12.4c0.1-0.1,0.3-0.1,0.4,0l6.6,6.7c0.1,0.1,0.1,0.3,0,0.4
			L39.2,40.3C39.1,40.4,39,40.4,38.8,40.3z"/>
		<path class="st11" d="M38.8,40.3l-6.6-6.7c-0.1-0.1-0.1-0.3,0-0.4L53,12.4c0.1-0.1,0.3-0.1,0.4,0l6.6,6.7c0.1,0.1,0.1,0.3,0,0.4
			L39.2,40.3C39.1,40.4,39,40.4,38.8,40.3z"/>
	</g>
	<g transform="translate(0,-952.36218)">
		<g>
			<path class="st16" d="M39.9,979.2l-12.7-1.4c-0.5-0.1-0.9,0.1-1.3,0.4l-6.7,6.7c-0.1,0.1-0.1,0.3,0,0.4l41.5,24.5l14.3,14.3
				l24.5,41.5c0.1,0.1,0.2,0.1,0.4,0l6.7-6.7c0.3-0.3,0.5-0.8,0.4-1.3l-1.4-12.7l-1.5-13.5l-1.1-10.1l-1.3-12.1l-1.2-11.5
				l-13.4-13.4l-10.1-1.1l-13.6-1.4l-10.1-1.1L39.9,979.2z"/>
		</g>
		<g>
			<path class="st7" d="M39.9,979.2l-12.7-1.4c-0.5-0.1-0.9,0.1-1.3,0.4l-6.7,6.7c-0.1,0.1-0.1,0.3,0,0.4l41.5,24.5l14.3,14.3
				l24.5,41.5c0.1,0.1,0.2,0.1,0.4,0l6.7-6.7c0.3-0.3,0.5-0.8,0.4-1.3l-1.4-12.7l-1.5-13.5l-1.1-10.1l-1.3-12.1l-1.2-11.5
				l-13.4-13.4l-10.1-1.1l-13.6-1.4l-10.1-1.1L39.9,979.2z"/>
		</g>
		<g>
			<path class="st8" d="M39.9,979.2l-12.7-1.4c-0.5-0.1-0.9,0.1-1.3,0.4l-6.7,6.7c-0.1,0.1-0.1,0.3,0,0.4l41.5,24.5l14.3,14.3
				l24.5,41.5c0.1,0.1,0.2,0.1,0.4,0l6.7-6.7c0.3-0.3,0.5-0.8,0.4-1.3l-1.4-12.7l-1.5-13.5l-1.1-10.1l-1.3-12.1l-1.2-11.5
				l-13.4-13.4l-10.1-1.1l-13.6-1.4l-10.1-1.1L39.9,979.2z"/>
		</g>
	</g>
	<g>
		<g transform="translate(0,-952.36218)">
			<g>
				<path class="st10" d="M60.9,1010.7l-23.9,23.9l-18.9,2c-0.8,0.1-1.4,0.8-1.4,1.5l0,8.7c0,0.8,0.7,1.5,1.4,1.6l17.3,1.1l1,17
					c0,0.8,0.8,1.5,1.5,1.5l8.7,0c0.7,0,1.4-0.6,1.5-1.4l2.2-19.2l23.7-23.7l26.8-26.8l20-20c1.8-1.8,3.6-4.1,4.4-6.8
					c0.8-2.7,0.4-5.9-2.2-8.4l0,0c-2.5-2.5-5.7-3-8.4-2.2c-2.7,0.8-5.1,2.6-6.8,4.4l-20,20L60.9,1010.7z"/>
			</g>
		</g>
		<g transform="translate(0,-952.36218)">
			<path class="st7" d="M17.7,1036.9l19.2-1.4l24-24.4l26.8-26.8l20-20c1.8-1.8,4.1-3.6,6.8-4.4s5.9-0.4,8.4,2.2l0,0l-87.5,87.7
				l-18.1-1.5L17.7,1036.9z"/>
		</g>
		<g transform="translate(0,-952.36218)">
			<g>
				<path class="st8" d="M60.9,1010.9l-23.9,23.9l-18.9,2c-0.8,0.1-1.4,0.8-1.4,1.5l0,8.7c0,0.8,0.7,1.5,1.4,1.6l17.3,1.1l1,17
					c0,0.8,0.8,1.5,1.5,1.5l8.7,0c0.7,0,1.4-0.6,1.5-1.4l2.2-19.2L74,1024l26.8-26.8l20-20c1.8-1.8,3.6-4.1,4.4-6.8
					c0.8-2.7,0.4-5.9-2.2-8.4l0,0c-2.5-2.5-5.7-3-8.4-2.2c-2.7,0.8-5.1,2.6-6.8,4.4l-20,20L60.9,1010.9z"/>
			</g>
		</g>
	</g>
	<path class="st17" d="M120.2,18.6c2.8-2.4-2.9-8.8-5.7-6.4"/>
	<path class="st0" d="M31.1,57.7L15.5,73.3c-0.3,0.3-0.9,0.3-1.2,0L13.9,73c-0.3-0.3-0.3-0.9,0-1.2l15.6-15.6c0.3-0.3,0.9-0.3,1.2,0
		l0.3,0.3C31.4,56.8,31.4,57.4,31.1,57.7z"/>
	<path class="st0" d="M26.9,46.4L15.4,57.9c-0.3,0.3-0.9,0.3-1.2,0l-0.3-0.3c-0.3-0.3-0.3-0.9,0-1.2l11.5-11.5
		c0.3-0.3,0.9-0.3,1.2,0l0.3,0.3C27.2,45.5,27.2,46.1,26.9,46.4z"/>
	<path class="st0" d="M75.6,103.6L60,119.2c-0.3,0.3-0.9,0.3-1.2,0l-0.3-0.3c-0.3-0.3-0.3-0.9,0-1.2L74,102c0.3-0.3,0.9-0.3,1.2,0
		l0.3,0.3C75.9,102.7,75.9,103.3,75.6,103.6z"/>
	<path class="st0" d="M86.9,108.8l-11.5,11.5c-0.3,0.3-0.9,0.3-1.2,0l-0.3-0.3c-0.3-0.3-0.3-0.9,0-1.2l11.5-11.5
		c0.3-0.3,0.9-0.3,1.2,0l0.3,0.3C87.2,107.9,87.2,108.5,86.9,108.8z"/>
	<polyline class="st10" points="85.6,61.6 106,105.9 99.9,111.9 75.9,71.2 	"/>
	<polyline class="st10" points="71.1,47.1 26.5,26.6 20.6,32.7 61.4,56.4 	"/>
</g>
</svg>
