<svg id="Layer_1" xmlns="http://www.w3.org/2000/svg" viewBox="-139 111.3 561.8 373.9"><style>.st0{fill:#fff}</style><g id="XMLID_1_"><path class="st0" d="M419.7 415h-24.5c-.8-4.1-1.9-6.9-3.6-8.5-2.6-2.6-7.1-4-13.3-4-6.1 0-10.3 1-12.7 3-1.8 1.5-2.7 3.6-2.7 6.3 0 3.7 5.2 6.7 15.4 9 11.7 2.5 20 4.7 25.2 6.5 1.4.5 2.5.9 3.4 1.4 10.4 4.9 15.5 12.3 15.5 22.3 0 12.2-5.1 21-15.1 26.6-1.3.7-2.4 1.3-3.8 1.9-6.5 2.8-14.1 4.2-22.6 4.2-12.8 0-23.1-2.3-30.9-6.8-4.9-2.9-8.6-6.5-11.1-10.8-2.5-4.4-3.7-9.4-3.7-15.3h25.7c0 4.4 1.6 7.9 4.7 10.2 3.1 2.5 8.4 3.7 16 3.7 5.7 0 9.9-1.2 12.7-3.5 2.2-1.9 3.2-3.9 3.2-6.3 0-4-5.1-7.1-15.1-9.3-15-3.2-24.5-5.8-28.4-7.7-10.3-4.8-15.4-12.2-15.4-22.5 0-8.3 2.6-15.3 8-21 6.8-7.2 16.9-10.7 30.3-10.7 11.1 0 19.9 1.6 26.6 4.7.6.3 1.1.5 1.6.9 4.8 2.6 8.4 6.1 10.9 10.4 2.5 4.2 3.7 9.3 3.7 15.3zm-13.1-59.8c0-.5-.1-.9-.3-1.3-.3-.4-.6-.7-1.1-.8-.3-.1-.9-.2-1.6-.3h-3.9v4.7h3.9c1.1-.1 1.9-.3 2.3-.7.5-.3.7-.9.7-1.6zm2.1-2.5c.5.7.8 1.4.8 2.3 0 1.2-.4 2.2-1.3 3-.8.9-1.9 1.4-3.3 1.4.6.3 1 .5 1.3.8l2.4 3.1 1.9 3.1h-3l-1.4-2.5c-.9-1.6-1.7-2.8-2.4-3.4l-.3-.3-2-.6h-1.5v6.8h-2.5v-15.9h5.5c.3 0 .7.1.9.1 1.4 0 2.4.2 3 .4.7.4 1.4.9 1.9 1.7z"/><path class="st0" d="M415.8 358.4c0-2.2-.5-4.2-1.6-6.2-1.1-1.9-2.6-3.5-4.6-4.6-1.9-1-4-1.6-6-1.6h-.1c-2 0-4 .6-6 1.6-1.9 1.1-3.5 2.6-4.6 4.6-1.1 1.9-1.7 4-1.7 6.2 0 2.1.6 4.1 1.7 6.1 1 1.9 2.5 3.4 4.5 4.5 1.9 1.1 4 1.6 6.1 1.6h.1c2.1 0 4.1-.5 6.1-1.6 1.9-1.1 3.5-2.6 4.5-4.5 1.1-1.9 1.6-3.9 1.6-6.1zm2.5 0c0 2.5-.6 4.9-2 7.3-1.3 2.4-3 4.1-5.4 5.4-2.4 1.4-4.7 2-7.3 2h-.1c-2.5 0-4.9-.6-7.3-2-2.4-1.3-4.1-3-5.4-5.4-1.3-2.4-1.9-4.8-1.9-7.3 0-2.6.6-5.1 1.9-7.4 1.3-2.4 3.1-4.1 5.5-5.4 2.4-1.3 4.7-1.9 7.2-1.9h.1c2.5 0 4.8.7 7.2 1.9 2.4 1.3 4.2 3 5.5 5.4 1.4 2.4 2 4.8 2 7.4zM274.6 239.1L344 354.6H232.6l-66.2-110.3-50.2-83.6 50.2-30.1 31.6-19zM325 434.9v47.4h-23.1V477c-7.8 5.1-17.1 8-27 8h-.3c-27.5-.2-49.9-22.6-49.9-50.2 0-27.5 22.4-50 49.9-50.2h.3c10 0 19.3 3 27 8v-5.5H325v47.8zm-23.1 5.2v-10.5c-2.5-12.7-13.7-22.3-27-22.3h-.3c-15.1.1-27.4 12.4-27.4 27.5s12.3 27.5 27.4 27.6h.3c13.3.1 24.6-9.6 27-22.3zm-85.2-5.2v47.4h-23V477c-7.9 5.1-17.1 8-27 8h-.3c-27.5-.2-49.9-22.6-49.9-50.2 0-27.5 22.4-50 49.9-50.2h.3c10 0 19.2 3 27 8v-38.1h23v80.4zm-23.1 5.2v-10.5c-2.5-12.7-13.7-22.3-27-22.3h-.3c-15.1.1-27.4 12.4-27.4 27.5s12.2 27.5 27.4 27.6h.3c13.4.1 24.6-9.6 27-22.3z"/><path class="st0" d="M166.4 309.2l27.2 45.4H82.3L20.4 251.8l-2.7-4.5 2.7-1.6 79.2-47.6zm-84.1 75.5h25.1v97.5H82.3zm0-29.6h25.1v22H82.3zm-11.4 79.8v47.4H47.8V477c-7.9 5.1-17.1 8-27.1 8h-.3c-27.5-.2-49.9-22.6-49.9-50.2 0-27.5 22.4-50 49.9-50.2h.3c10 0 19.3 3 27.1 8v-38.1h23.1v80.4zm-23.1 5.2v-10.5c-2.4-12.7-13.7-22.3-27.1-22.3h-.3C5.3 407.4-7 419.7-7 434.8s12.2 27.5 27.4 27.6h.3c13.4.1 24.7-9.6 27.1-22.3zM20.4 316.6l22.8 38H-68.2l-12.5-20.8 81.9-49.2zm-58.9 118.3v47.4h-23V477c-7.9 5.1-17.2 8-27.1 8h-.3c-27.4-.2-49.8-22.6-49.8-50.2 0-27.5 22.4-50 49.8-50.2h.3c10 0 19.3 3 27.1 8v-5.5h23.1c-.1.1-.1 47.8-.1 47.8zm-23.1 5.2v-10.5c-2.4-12.7-13.7-22.3-27.1-22.3h-.3c-15 .1-27.3 12.4-27.3 27.5s12.2 27.5 27.3 27.6h.3c13.5.1 24.7-9.6 27.1-22.3z"/></g></svg>