<svg data-name="Слой 1" xmlns="http://www.w3.org/2000/svg" width="495.42" height="626.683" viewBox="0 0 371.58 470"><title>01</title><g fill="#477efb"><path d="M97.69 250.63h9.59v33.67a7.5 7.5 0 0 0 7.5 7.5h30.2a7.5 7.5 0 0 0 7.5-7.5v-33.67h15v33.67a7.5 7.5 0 0 0 7.5 7.5h30.2a7.5 7.5 0 0 0 7.5-7.5v-33.67h9.59a7.5 7.5 0 0 0 0-15h-4.48V130.75h20.5l65.5 37.31c12.15 7 22.42 24.74 22.42 38.76v50.72a7.5 7.5 0 0 0 15 0v-50.72c0-19.37-13.15-42.1-30-51.78l-67.22-38.31a7.5 7.5 0 0 0-3.71-1h-22.49V77.4a7.5 7.5 0 0 0-7.5-7.5h-12.64V7.5a7.5 7.5 0 0 0-7.5-7.5h-60.36a7.5 7.5 0 0 0-7.5 7.5v62.4h-12.61a7.5 7.5 0 0 0-7.5 7.5v158.23h-4.49a7.5 7.5 0 0 0 0 15zm39.79 26.17h-15.2v-26.17h15.2v26.17zm60.2 0h-15.2v-26.17h15.2v26.17zM137.31 15h45.33v54.9h-45.33V15zm-20.13 69.9h85.61v150.73h-85.6V84.9z"/><path d="M333.68 280a37.9 37.9 0 0 0-7.5 75.05V455H18.88l18.39-42.88c5.35-12.48 21.35-23 34.93-23h231.08a7.5 7.5 0 0 0 0-15h-22.49V211.55a7.5 7.5 0 0 0-3.8-6.52l-33-18.71a7.5 7.5 0 1 0-7.4 13l29.2 16.6v94.52H97.69a7.5 7.5 0 0 0-7.5 7.5v30a7.5 7.5 0 0 0 7.5 7.5h145.59a7.5 7.5 0 0 0 0-15H105.19v-15h160.6v48.66H72.21c-19.59 0-41 14.11-48.72 32.11L.61 459.54A7.5 7.5 0 0 0 7.5 470h326.18a7.5 7.5 0 0 0 7.5-7.5V355.1a37.9 37.9 0 0 0-7.5-75.05zm0 60.8a22.9 22.9 0 1 1 22.9-22.9 22.93 22.93 0 0 1-22.9 22.95z"/></g></svg>