<?xml version="1.0" encoding="utf-8"?>
<!-- Generator: Adobe Illustrator 19.1.0, SVG Export Plug-In . SVG Version: 6.00 Build 0)  -->
<svg version="1.1" id="Capa_1" xmlns="http://www.w3.org/2000/svg" xmlns:xlink="http://www.w3.org/1999/xlink" x="0px" y="0px"
	 viewBox="-316.3 269.3 58 58" style="enable-background:new -316.3 269.3 58 58;" xml:space="preserve">
<style type="text/css">
	.st0{fill:#487EFB;}
	.st1{fill:none;stroke:#487EFB;stroke-width:2.5;stroke-miterlimit:10;}
</style>
<polyline class="st1" points="-314.9,327.3 -309.9,305.8 -299.7,302.9 -293.4,307.9 "/>
<polyline class="st1" points="-299.7,302.9 -299.7,294.5 -287.3,301.2 -287.3,327.3 "/>
<polyline class="st1" points="-259.8,327.3 -264.7,305.8 -274.9,302.9 -281.2,307.9 "/>
<polyline class="st1" points="-274.9,302.9 -274.9,294.5 -287.4,301.2 -287.4,327.3 "/>
<polyline class="st1" points="-306.5,283.1 -302.3,286.1 -272.3,286.1 -269.1,282.8 "/>
<polyline class="st1" points="-274.8,286.1 -280.4,271.8 -287.4,277.5 -294.5,271.8 -300,286.1 "/>
<polyline class="st1" points="-298.8,285.9 -293.9,291.9 -279,291.9 -274.3,285.9 "/>
<line class="st1" x1="-286.6" y1="285.9" x2="-286.6" y2="297.3"/>
<line class="st1" x1="-285.8" y1="295.3" x2="-285.8" y2="297.3"/>
<line class="st1" x1="-277.9" y1="286.5" x2="-276.7" y2="288.2"/>
<line class="st1" x1="-295.2" y1="286.5" x2="-296.4" y2="288.2"/>
</svg>
