<svg data-name="Layer 1" xmlns="http://www.w3.org/2000/svg" width="68" height="66" viewBox="0 0 512 511.96"><title>09</title><g fill="#477efb"><path d="M136.43 235.42a16.93 16.93 0 0 0 5 12.07l6 6a42.67 42.67 0 0 0 60.34 0l42.54-42.51a93.14 93.14 0 0 0 60 21.72 93.44 93.44 0 0 0 66.44-27.57 8.535 8.535 0 0 0-12.07-12.07 76.48 76.48 0 0 1-54.38 22.57 76.27 76.27 0 0 1-54.28-22.49 8.54 8.54 0 0 0-12.07 0l-48.28 48.27c-9.66 9.67-26.53 9.67-36.2 0l-6-6 102.61-102.57c9.57-9.57 18.65-9.57 30.17-9.57 12.32 0 27.67 0 42.24-14.57l24.13-24.14a8.535 8.535 0 1 0-12.07-12.07l-24.13 24.15c-9.57 9.57-18.66 9.57-30.17 9.57-12.32 0-27.67 0-42.23 14.57L141.44 223.35a16.94 16.94 0 0 0-5.01 12.07zM76.8 93.87A17.07 17.07 0 1 0 59.74 76.8 17.08 17.08 0 0 0 76.8 93.87zm82.73 26.91l24.13 24.13a8.535 8.535 0 1 0 12.07-12.07l-24.13-24.13a8.535 8.535 0 0 0-12.07 12.07zM435.2 59.74a17.07 17.07 0 1 0-17.07-17.07 17.09 17.09 0 0 0 17.07 17.07zm19.57 121.96c-13.87 13.87-18.63 36.45-23.23 58.3-4.08 19.39-8.3 39.45-18.58 49.72l-12.08 12.07A8.552 8.552 0 0 0 413 313.86l12-12.06c13.86-13.86 18.61-36.44 23.21-58.27 4.09-19.4 8.32-39.47 18.59-49.75a8.53 8.53 0 0 0-12.03-12.08z"/><path d="M509.5 181.7l-139-139 28.1-28.1a8.556 8.556 0 0 0-12.1-12.1l-34.13 34.14a8.52 8.52 0 0 0 0 12.07l145.07 145.06a8.531 8.531 0 0 0 12.06-12.07zm-193.08 71.82a8.54 8.54 0 0 0-12.07 12.07l90.51 90.51a17.07 17.07 0 1 1-24.14 24.14l-90.51-90.51a8.535 8.535 0 0 0-12.07 12.07l114.65 114.64a17.07 17.07 0 0 1-24.14 24.14L250 331.98a8.53 8.53 0 0 0-12 12.05l96.54 96.54a17.09 17.09 0 0 1 0 24.14 17.46 17.46 0 0 1-24.13 0l-12.08-12.07-78.43-78.43a8.535 8.535 0 0 0-12.07 12.07l78.44 78.44a17.062 17.062 0 1 1-24.13 24.13L117 343.84c-22.13-22.13-26.93-50-31.17-74.64-3.57-20.71-6.94-40.27-20-53.36A8.552 8.552 0 0 0 53.7 227.9c9.26 9.26 12 25.45 15.28 44.19 4.44 25.77 10 57.85 35.93 83.81L250 500.92a34.15 34.15 0 0 0 57.62-17.49 34.86 34.86 0 0 0 38.91-6.65 33.94 33.94 0 0 0 9.36-17.5 34.13 34.13 0 0 0 38.91-54.9l-3.23-3.24a34.11 34.11 0 0 0 15.31-57.1zM159.63 70.77l-51.2-51.2a8.531 8.531 0 1 0-12.06 12.07l45.17 45.17-139 139a8.535 8.535 0 1 0 12.07 12.07L159.63 82.84a8.52 8.52 0 0 0 0-12.07zm50.25 422.59c-4.75 2.49-12.87 2.79-20.18-4.51s-7.25-15.83-4.88-19.53a8.53 8.53 0 0 0-13.22-10.64 17.07 17.07 0 0 1-24.14-24.14 8.535 8.535 0 1 0-12.07-12.07l-6 6a17.062 17.062 0 0 1-24.13-24.13l6-6A8.53 8.53 0 0 0 101 384.92c-4.64 2.68-12.81 2.36-19.86-4.68-7.49-7.49-7.46-15.8-5-19.29a8.53 8.53 0 0 0-14-9.69c-6.9 10-6.72 27.32 7 41.05a38.06 38.06 0 0 0 17.1 10.17 34.15 34.15 0 0 0 39.41 47.08 34.1 34.1 0 0 0 41.03 30.42 37.54 37.54 0 0 0 10.95 20.94c7.89 7.89 17.11 11 25.52 11a31.76 31.76 0 0 0 14.64-3.49 8.53 8.53 0 0 0-7.91-15.07z"/></g></svg>