<svg id="Слой_1" xmlns="http://www.w3.org/2000/svg" xmlns:xlink="http://www.w3.org/1999/xlink" fill="#fff" viewBox="415 247.9 256.8 348"><style>.st0{clip-path:url(#SVGID_2_)}</style><defs><path id="SVGID_1_" d="M415 247.9h256.8v348H415z"/></defs><clipPath id="SVGID_2_"><use xlink:href="#SVGID_1_" overflow="visible"/></clipPath><path class="st0" d="M663.8 579.5h-14.6v-33.9c0-4.4-3.6-8-8-8h-26.3v-27.7c16.4-10.6 30.2-25.1 40.1-42 11-18.8 16.7-40.4 16.7-62.3s-5.8-43.4-16.7-62.2c-9.1-15.8-21.7-29.4-36.7-39.8l3.6-5.2 1.7 1.2c1.4 1 3 1.4 4.6 1.4 2.5 0 5-1.2 6.6-3.4 2.5-3.6 1.7-8.6-2-11.1l-8.2-5.8-36.8-25.8-8.2-5.8c-3.6-2.5-8.6-1.7-11.1 2-2.5 3.6-1.7 8.6 2 11.1l1.7 1.2-15.6 22.3-1.7-1.2c-3.6-2.5-8.6-1.7-11.1 2-2.5 3.6-1.7 8.6 2 11.1l1.7 1.2-49 70a7.93 7.93 0 0 0-1.3 6c.4 2.1 1.6 3.9 3.3 5.2l36.8 25.8c1.4.9 3 1.4 4.6 1.4.5 0 .9 0 1.4-.1 2.1-.4 3.9-1.6 5.2-3.3l37.3-53.3c18 12.4 28.9 32.8 28.9 54.9 0 14-4.2 27.2-12.2 38.4h-33.9c-4.4 0-8 3.6-8 8v19c-4.1.8-8.3 1.2-12.5 1.2-21.1 0-40.3-9.7-52.8-25.9h43.3c4.4 0 8-3.6 8-8s-3.6-8-8-8H423c-4.4 0-8 3.6-8 8s3.6 8 8 8h7.5c8 22.9 22.8 43.3 42.2 58.1 21.7 16.5 47.6 25.2 75 25.2 4.2 0 8.4-.2 12.5-.6v8.5h-106c-4.4 0-8 3.6-8 8v33.8h-14.6c-4.4 0-8 3.6-8 8s3.6 8 8 8h232c4.4 0 8-3.6 8-8s-3.4-7.6-7.8-7.6zm-78.6-306.7l23.7 16.6-8.4 12-7.2 10.3-23.7-16.6 15.6-22.3zm-45.5 115.5L516 371.7l44.5-63.5 23.7 16.6-44.5 63.5zm55-50.6l2.6-3.7 1.7 1.2c1.4 1 3 1.4 4.6 1.4 2.5 0 5-1.2 6.6-3.4 2.5-3.6 1.7-8.6-2-11.1l-1.7-1.2 2.8-4c28.9 20.1 46.5 53.5 46.5 88.8 0 33-15.3 64.2-40.8 84.6v-36.5c10.1-14.1 15.4-30.6 15.4-48.1-.1-27.4-13.5-52.7-35.7-68zm-47 176c-44 0-83.7-27.2-100.1-67.3h28.2c6.7 11.7 16.1 21.7 27.6 29 13.2 8.4 28.6 12.9 44.4 12.9 4.2 0 8.4-.3 12.5-.9V513c-4.2.5-8.4.7-12.6.7zm28.5 6.2v-59.8h22.7v77.5h-22.7v-17.7zm-114 33.7h171v25.8h-171v-25.8z"/></svg>