<?xml version="1.0" encoding="utf-8"?>
<!-- Generator: Adobe Illustrator 19.1.0, SVG Export Plug-In . SVG Version: 6.00 Build 0)  -->
<svg version="1.1" id="Слой_1" xmlns="http://www.w3.org/2000/svg" xmlns:xlink="http://www.w3.org/1999/xlink" x="0px" y="0px"
	 viewBox="0 0 149.7 126.2" style="enable-background:new 0 0 149.7 126.2;" xml:space="preserve">
<style type="text/css">
	.st0{fill:#93CE89;}
	.st1{fill:none;stroke:#000000;stroke-width:2;}
	.st2{fill:#FFFFFF;}
	.st3{fill:#78C26B;}
	.st4{fill:#FFFFFF;fill-opacity:0.4;}
	.st5{fill:#3599FD;stroke:#000000;stroke-width:1.5;}
	.st6{fill:#55B3FD;stroke:#000000;stroke-width:1.5;}
	.st7{fill:#3599FD;}
	.st8{fill:none;stroke:#000000;stroke-width:1.5;}
	.st9{fill:none;stroke:#000000;}
	.st10{fill:#55B3FD;}
	.st11{fill:none;stroke:#000000;stroke-width:0.7;}
	.st12{fill:#FFFFFF;stroke:#000000;stroke-width:0.5;}
	.st13{fill:none;stroke:#000000;stroke-width:0.5;}
	.st14{fill:none;stroke:#000000;stroke-width:1.5;stroke-linecap:round;}
	.st15{fill:#93CE89;stroke:#000000;stroke-width:1.5;}
	.st16{fill:#87C27D;}
	.st17{fill:none;stroke:#FFFFFF;stroke-width:2;stroke-linecap:round;}
	.st18{fill:#55B3FD;stroke:#000000;stroke-width:1.5;stroke-linecap:round;}
	.st19{fill:#2BA0FD;}
</style>
<g>
	<path class="st5" d="M92.4,121.9l-0.5,0.3c-2.1,1.3-4.8,0.6-6.1-1.5L47.5,58.4c-1.3-2.1-0.6-4.8,1.5-6.1l0.5-0.3
		c2.1-1.3,4.8-0.6,6.1,1.5l38.4,62.3C95.2,117.9,94.5,120.6,92.4,121.9z"/>
</g>
<g>
	<g>
		<g>
			<path class="st10" d="M85.1,91.2c7.1-8.4,14.5-10.6,30.7-4.8c15,5.4,30.1-1.6,30.1-1.6l-23.1-37.5c0,0-15.1,7-30,1.6
				c-16.3-5.9-23.7-3.7-30.8,4.8L85.1,91.2z"/>
			<path class="st14" d="M85.1,91.2c7.1-8.4,14.5-10.6,30.7-4.8c15,5.4,30.1-1.6,30.1-1.6l-23.1-37.5c0,0-15.1,7-30,1.6
				c-16.3-5.9-23.7-3.7-30.8,4.8L85.1,91.2z"/>
		</g>
	</g>
</g>
<g>
	<g>
		<path class="st2" d="M102.9,74.6c-4.9,0.2-9.8,0.3-14.8,1.3C84,68,79.9,60.7,75.8,54.6c5.1-1.9,10.3-2,15.4-1.3
			c0.8,1.5,1.7,3,2.5,4.5c-2.5-0.3-5.1-0.6-7.6-0.5c0.6,1.1,1.2,2.3,1.8,3.5c2.3-0.1,4.6-0.1,6.9,0.1c0.9,1.5,1.7,3,2.6,4.5
			c-2.3-0.1-4.7-0.2-7-0.1c0.8,1.4,1.6,2.9,2.4,4.4c2.4-0.1,4.8-0.1,7.2-0.1C100.9,71.2,101.9,72.9,102.9,74.6z"/>
		<path class="st2" d="M118.2,58.3c2.6,4.5,5.2,8.7,7.8,12.5c1.5,2,1.8,3.8,0.8,5.5c-1,1.7-3.3,3-6.8,3.2c-3.4,0.2-6.4-0.9-9.1-2.7
			c-2.6-1.8-4.7-4.2-6.3-7c-2.4-4.4-4.7-8.8-7.1-13.2c2.3,0.7,4.6,1.5,6.9,2.2c2.2,4.1,4.5,8.1,6.7,12c0.8,1.5,1.8,2.6,2.8,3.3
			c1,0.7,2.2,1.1,3.5,1.2c1.4,0,2.2-0.3,2.4-0.9c0.3-0.6,0-1.6-0.9-2.9c-2.3-3.6-4.6-7.5-6.9-11.5C114.2,59.6,116.2,59,118.2,58.3z"
			/>
	</g>
</g>
<g>
	<polygon class="st15" points="76.2,11.2 79.3,21.2 89.8,21.3 81.2,27.4 84.4,37.4 76,31.1 67.4,37.2 70.8,27.3 62.4,21 72.8,21.1 	
		"/>
	<polyline class="st16" points="76.2,11.4 79.3,21.4 89.8,21.5 81.2,27.6 84.4,37.6 76,31.3 	"/>
	<polygon class="st9" points="76.1,11.1 79.2,21.1 89.7,21.2 81.2,27.3 84.3,37.3 75.9,31 67.4,37.1 70.7,27.1 62.3,20.9 72.8,21 	
		"/>
	<polygon class="st8" points="76.1,11.1 79.2,21.1 89.7,21.2 81.2,27.3 84.3,37.3 75.9,31 67.4,37.1 70.7,27.1 62.3,20.9 72.8,21 	
		"/>
</g>
<g>
	<polygon class="st15" points="42.6,4.5 45.7,14.5 56.2,14.6 47.7,20.7 50.8,30.7 42.4,24.4 33.9,30.5 37.2,20.6 28.8,14.3 
		39.3,14.4 	"/>
	<polyline class="st16" points="42.6,4.7 45.7,14.7 56.2,14.8 47.7,20.9 50.8,30.9 42.4,24.6 	"/>
	<polygon class="st9" points="42.6,4.3 45.7,14.4 56.1,14.5 47.6,20.5 50.7,30.6 42.3,24.3 33.8,30.4 37.2,20.4 28.8,14.2 
		39.2,14.3 	"/>
	<polygon class="st8" points="42.6,4.3 45.7,14.4 56.1,14.5 47.6,20.5 50.7,30.6 42.3,24.3 33.8,30.4 37.2,20.4 28.8,14.2 
		39.2,14.3 	"/>
</g>
<g>
	<polygon class="st15" points="18.2,30.3 21.4,40.3 31.8,40.4 23.3,46.5 26.4,56.5 18,50.2 9.5,56.3 12.8,46.4 4.5,40.1 14.9,40.2 	
		"/>
	<polyline class="st16" points="18.2,30.5 21.4,40.5 31.8,40.6 23.3,46.7 26.4,56.7 18,50.4 	"/>
	<polygon class="st9" points="18.2,30.1 21.3,40.1 31.8,40.3 23.2,46.3 26.4,56.3 18,50.1 9.4,56.2 12.8,46.2 4.4,40 14.8,40.1 	"/>
	<polygon class="st8" points="18.2,30.1 21.3,40.1 31.8,40.3 23.2,46.3 26.4,56.3 18,50.1 9.4,56.2 12.8,46.2 4.4,40 14.8,40.1 	"/>
</g>
<g>
	<polygon class="st15" points="34.5,62.1 37.6,72.1 48.1,72.2 39.6,78.3 42.7,88.3 34.3,82 25.8,88.1 29.1,78.1 20.7,71.9 31.2,72 	
		"/>
	<polyline class="st16" points="34.5,62.3 37.6,72.3 48.1,72.4 39.6,78.5 42.7,88.5 34.3,82.2 	"/>
	<polygon class="st9" points="34.4,61.9 37.6,71.9 48,72.1 39.5,78.1 42.6,88.1 34.2,81.9 25.7,88 29,78 20.6,71.8 31.1,71.9 	"/>
	<polygon class="st8" points="34.4,61.9 37.6,71.9 48,72.1 39.5,78.1 42.6,88.1 34.2,81.9 25.7,88 29,78 20.6,71.8 31.1,71.9 	"/>
</g>
<path class="st2" d="M63.5,78.4L51.5,59c-0.2-0.3-0.1-0.7,0.2-0.8l0.1,0c0.3-0.2,0.7-0.1,0.8,0.2l12.1,19.5c0.2,0.3,0.1,0.7-0.2,0.8
	l-0.1,0C64.1,78.8,63.7,78.7,63.5,78.4z"/>
</svg>
