<?xml version="1.0" encoding="utf-8"?>
<!-- Generator: Adobe Illustrator 18.1.1, SVG Export Plug-In . SVG Version: 6.00 Build 0)  -->
<svg version="1.1" id="Слой_1" xmlns="http://www.w3.org/2000/svg" xmlns:xlink="http://www.w3.org/1999/xlink" x="0px" y="0px"
	 viewBox="257 137.3 325.5 321.3" enable-background="new 257 137.3 325.5 321.3" xml:space="preserve">
<g>
	<path fill="#FFFFFF" d="M403.5,354.9c-4.4,0-8-3.6-8-8c0-4.4,3.6-8,8-8h8.2v-8.2c0-4.4,3.6-8,8-8c4.4,0,8,3.6,8,8v8.2h8.2
		c4.4,0,8,3.6,8,8c0,4.4-3.6,8-8,8h-8.2v8.2c0,4.4-3.6,8-8,8c-4.4,0-8-3.6-8-8v-8.2H403.5z M582.5,450.6c0,4.4-3.6,8-8,8H265
		c-4.4,0-8-3.6-8-8c0-4.4,3.6-8,8-8h30.7V328.3c0-4.4,3.6-8,8-8h78.6c8.3-11.7,22-19.4,37.5-19.4c15.4,0,29.1,7.7,37.5,19.4h44.9
		v-18.2h-44.4c-4.4,0-8-3.6-8-8v-69.7c0-4.4,3.6-8,8-8h104.7c4.4,0,8,3.6,8,8v69.7c0,4.4-3.6,8-8,8h-44.4v18.2h17.7c4.4,0,8,3.6,8,8
		v114.3h30.7C578.9,442.6,582.5,446.2,582.5,450.6L582.5,450.6z M554.4,286.1v-53.7h-88.7v53.7H554.4z M389.8,346.9
		c0,16.5,13.4,30,30,30c16.5,0,30-13.4,30-30c0-16.5-13.4-30-30-30C403.2,316.9,389.8,330.4,389.8,346.9L389.8,346.9z M527.8,336.3
		h-63.3c0.8,3.4,1.2,7,1.2,10.6c0,25.4-20.6,46-46,46c-25.4,0-46-20.6-46-46c0-3.6,0.4-7.2,1.2-10.6h-63.3v106.3h216.1L527.8,336.3
		L527.8,336.3z M264.6,347.7c1.2,0.6,2.4,0.9,3.6,0.9c2.9,0,5.7-1.6,7.1-4.4l23.8-47.1c7.5-14.9,16-21,29.3-21h18.2
		c13.3,0,21.8,6.1,29.3,21c2,3.9,6.8,5.5,10.7,3.5c3.9-2,5.5-6.8,3.5-10.7c-6.5-12.8-18-29.8-43.6-29.8h-18.2
		c-25.6,0-37.1,17-43.6,29.8l-23.7,47C259.1,340.9,260.6,345.7,264.6,347.7L264.6,347.7z M269.8,221.6c-1.1-4.9-1.7-10-1.7-15.1
		c0-38.2,31.1-69.2,69.2-69.2c38.2,0,69.2,31.1,69.2,69.2c0,5.1-0.6,10.2-1.7,15.1c-0.8,3.7-4.1,6.3-7.8,6.3h-25.3
		c-7.2,11.5-19.9,19.2-34.5,19.2c-14.5,0-27.3-7.7-34.5-19.2h-25.3C273.9,227.9,270.7,225.3,269.8,221.6L269.8,221.6z M356.5,222
		c-17-4.1-29.8-19-30.8-37c-7.6,4.2-12.8,12.3-12.8,21.5l0,0c0,13.5,11,24.5,24.6,24.5C345.1,231.1,352,227.5,356.5,222L356.5,222z
		 M362,206.5c0-12.1-8.8-22.2-20.4-24.2c0,0.1,0,0.2,0,0.3c0,12.1,8.8,22.2,20.4,24.2C362,206.7,362,206.6,362,206.5L362,206.5z
		 M284.2,206.5c0,1.8,0.1,3.6,0.3,5.4h12.8c-0.2-1.7-0.3-3.5-0.3-5.3v-0.1c0-21.2,16.3-38.6,37-40.4c0.1,0,0.2,0,0.3,0
		c1.1-0.1,2.2-0.1,3.3-0.1c22.4,0,40.6,18.2,40.6,40.5v0.1c0,1.8-0.1,3.5-0.3,5.3h12.8c0.2-1.8,0.3-3.6,0.3-5.4
		c0-29.4-23.9-53.2-53.2-53.2C308.1,153.3,284.2,177.2,284.2,206.5L284.2,206.5z"/>
</g>
</svg>
