<?xml version="1.0" encoding="utf-8"?>
<!-- Generator: Adobe Illustrator 18.1.1, SVG Export Plug-In . SVG Version: 6.00 Build 0)  -->
<svg version="1.1" id="Capa_1" xmlns="http://www.w3.org/2000/svg" xmlns:xlink="http://www.w3.org/1999/xlink" x="0px" y="0px"
	 viewBox="117 -0.4 606.7 595.7" enable-background="new 117 -0.4 606.7 595.7" xml:space="preserve">
<g>
	<path fill="#253e4b" d="M704.5,509.2L567.6,372.3c23.3-37,36.7-80.8,36.7-127.7C604.4,111.7,496.7,4,363.8,4
		S123.3,111.7,123.3,244.6c0,132.9,107.7,240.5,240.5,240.5c51.1,0,98.4-16,137.4-43.1l135.2,135.2c9.4,9.4,21.7,14.1,34,14.1
		c12.3,0,24.6-4.7,34-14.1C723.3,558.4,723.3,527.9,704.5,509.2z M363.8,407.1c-89.8,0-162.6-72.8-162.6-162.6S274,82,363.8,82
		c89.8,0,162.6,72.8,162.6,162.6S453.6,407.1,363.8,407.1z"/>
</g>
</svg>
