<?xml version="1.0" encoding="utf-8"?>
<!-- Generator: Adobe Illustrator 19.0.0, SVG Export Plug-In . SVG Version: 6.00 Build 0)  -->
<svg version="1.1" id="Слой_1" xmlns="http://www.w3.org/2000/svg" xmlns:xlink="http://www.w3.org/1999/xlink" x="0px" y="0px" fill="#47a364"
	 viewBox="408 265.9 270.3 312.1" style="enable-background:new 408 265.9 270.3 312.1;" xml:space="preserve">
<g>
	<path d="M424,273.9v295.6c0,4.4-3.6,8-8,8s-8-3.6-8-8V273.9c0-4.4,3.6-8,8-8S424,269.5,424,273.9L424,273.9z M587.3,311.4v95
		c0,4.4-3.6,8-8,8h-13.7c-0.1,0-0.1,0-0.2,0s-0.1,0-0.2,0h-67c-0.1,0-0.2,0-0.3,0h-13.7c-4.4,0-8-3.6-8-8v-95c0-4.4,3.6-8,8-8h95
		C583.7,303.4,587.3,307,587.3,311.4L587.3,311.4z M552.4,398.4c-4.1-7.9-8.2-10.8-15.1-10.8h-11.2c-6.9,0-11,2.9-15.1,10.8H552.4z
		 M531.8,358.3c3.3,0,5.9-2.7,5.9-5.9c0-3.3-2.7-5.9-5.9-5.9c-3.3,0-5.9,2.7-5.9,5.9C525.8,355.6,528.5,358.3,531.8,358.3
		L531.8,358.3z M571.3,319.4h-79v79h0.9l3.4-6.8c2.3-4.6,8.9-17.7,25.1-19.7c-7.1-3.7-11.9-11-11.9-19.5c0-12.1,9.8-21.9,21.9-21.9
		c12.1,0,21.9,9.8,21.9,21.9c0,8.5-4.8,15.9-11.9,19.5c16.2,2.1,22.8,15.2,25.1,19.7l3.4,6.8h0.9L571.3,319.4L571.3,319.4z
		 M678.3,274.4V570c0,4.4-3.6,8-8,8H443.5c-4.4,0-8-3.6-8-8V274.4c0-4.4,3.6-8,8-8h226.8C674.7,266.4,678.3,270,678.3,274.4
		L678.3,274.4z M615.4,534.1l17.4-12v-65.5l-17.4-12c-2.2-1.5-3.4-4-3.4-6.6V282.4H451.5V562H612v-21.4
		C612,538,613.3,535.6,615.4,534.1L615.4,534.1z M662.3,282.4H628v151.3l17.4,12c2.2,1.5,3.4,4,3.4,6.6v73.9c0,2.6-1.3,5.1-3.4,6.6
		l-17.4,12V562h34.3L662.3,282.4L662.3,282.4z"/>
</g>
</svg>
