<?xml version="1.0" encoding="utf-8"?>
<!-- Generator: Adobe Illustrator 19.0.0, SVG Export Plug-In . SVG Version: 6.00 Build 0)  -->
<svg version="1.1" id="Слой_1" xmlns="http://www.w3.org/2000/svg" xmlns:xlink="http://www.w3.org/1999/xlink" x="0px" y="0px" fill="#47a364"
	 viewBox="427 258.9 231.8 326" style="enable-background:new 427 258.9 231.8 326;" xml:space="preserve">
<style type="text/css">
	.st0{clip-path:url(#SVGID_2_);}
</style>
<g>
	<g>
		<g>
			<defs>
				<rect id="SVGID_1_" x="427" y="258.9" width="231.8" height="326"/>
			</defs>
			<clipPath id="SVGID_2_">
				<use xlink:href="#SVGID_1_"  style="overflow:visible;"/>
			</clipPath>
			<path class="st0" d="M545.9,442.9c0,4.4-3.6,8-8,8H483c-4.4,0-8-3.6-8-8c0-4.4,3.6-8,8-8h54.9
				C542.3,434.9,545.9,438.5,545.9,442.9L545.9,442.9z M537.9,465.6H483c-4.4,0-8,3.6-8,8c0,4.4,3.6,8,8,8h54.9c4.4,0,8-3.6,8-8
				C545.9,469.1,542.3,465.6,537.9,465.6L537.9,465.6z M482.4,340.1h13.9V354c0,4.4,3.6,8,8,8s8-3.6,8-8v-13.9h13.8c4.4,0,8-3.6,8-8
				c0-4.4-3.6-8-8-8h-13.8v-13.9c0-4.4-3.6-8-8-8s-8,3.6-8,8v13.9h-13.9c-4.4,0-8,3.6-8,8C474.4,336.5,478,340.1,482.4,340.1
				L482.4,340.1z M475,412.2c0,4.4,3.6,8,8,8h119.9c4.4,0,8-3.6,8-8c0-4.4-3.6-8-8-8H483C478.6,404.2,475,407.8,475,412.2L475,412.2
				z M658.9,321.8v254.6c0,4.4-3.6,8-8,8H435c-4.4,0-8-3.6-8-8V266.9c0-4.4,3.6-8,8-8h161c0.3,0,0.6,0,0.9,0l0,0l0,0l0,0l0,0
				c0.3,0,0.7,0.1,1,0.2l0,0c1.3,0.3,2.6,1,3.6,2l0,0l0,0l0,0l0,0l0,0l54.9,54.9l0,0l0,0l0,0l0,0l0,0l0,0l0,0c1,1,1.6,2.2,2,3.4l0,0
				l0,0l0,0l0,0l0,0l0,0c0.1,0.4,0.2,0.8,0.2,1.2l0,0l0,0l0,0C658.9,321.2,658.9,321.5,658.9,321.8L658.9,321.8z M604.1,313.7h27.5
				l-27.5-27.5V313.7z M642.9,329.7H596c-4.4,0-8-3.6-8-8v-46.9H443v293.5h199.9V329.7z M602.9,434.9h-30.3c-4.4,0-8,3.6-8,8
				c0,4.4,3.6,8,8,8h30.3c4.4,0,8-3.6,8-8C610.9,438.5,607.4,434.9,602.9,434.9L602.9,434.9z M602.9,521.8h-30.3c-4.4,0-8,3.6-8,8
				c0,4.4,3.6,8,8,8h30.3c4.4,0,8-3.6,8-8C610.9,525.4,607.4,521.8,602.9,521.8L602.9,521.8z M602.9,465.6h-30.3c-4.4,0-8,3.6-8,8
				c0,4.4,3.6,8,8,8h30.3c4.4,0,8-3.6,8-8C610.9,469.1,607.4,465.6,602.9,465.6L602.9,465.6z"/>
		</g>
	</g>
</g>
</svg>
