<?xml version="1.0" encoding="utf-8"?>
<!-- Generator: Adobe Illustrator 19.0.0, SVG Export Plug-In . SVG Version: 6.00 Build 0)  -->
<svg version="1.1" id="Слой_1" xmlns="http://www.w3.org/2000/svg" xmlns:xlink="http://www.w3.org/1999/xlink" x="0px" y="0px" fill="#47a364"
	 viewBox="415 247.9 256.8 348" style="enable-background:new 415 247.9 256.8 348;" xml:space="preserve">
<style type="text/css">
	.st0{clip-path:url(#SVGID_2_);}
</style>
<g>
	<g>
		<g>
			<defs>
				<rect id="SVGID_1_" x="415" y="247.9" width="256.8" height="348"/>
			</defs>
			<clipPath id="SVGID_2_">
				<use xlink:href="#SVGID_1_"  style="overflow:visible;"/>
			</clipPath>
			<path class="st0" d="M663.8,579.5h-14.6v-33.9c0-4.4-3.6-8-8-8h-26.3v-27.7c16.4-10.6,30.2-25.1,40.1-42
				c11-18.8,16.7-40.4,16.7-62.3c0-21.9-5.8-43.4-16.7-62.2c-9.1-15.8-21.7-29.4-36.7-39.8l3.6-5.2l1.7,1.2c1.4,1,3,1.4,4.6,1.4
				c2.5,0,5-1.2,6.6-3.4c2.5-3.6,1.7-8.6-2-11.1l-8.2-5.8l0,0l-36.8-25.8l0,0l-8.2-5.8c-3.6-2.5-8.6-1.7-11.1,2
				c-2.5,3.6-1.7,8.6,2,11.1l1.7,1.2l-15.6,22.3l-1.7-1.2c-3.6-2.5-8.6-1.7-11.1,2c-2.5,3.6-1.7,8.6,2,11.1l1.7,1.2l-49,70
				c-1.2,1.7-1.7,3.9-1.3,6c0.4,2.1,1.6,3.9,3.3,5.2l36.8,25.8c1.4,0.9,3,1.4,4.6,1.4c0.5,0,0.9,0,1.4-0.1c2.1-0.4,3.9-1.6,5.2-3.3
				l37.3-53.3c18,12.4,28.9,32.8,28.9,54.9c0,14-4.2,27.2-12.2,38.4h-33.9c-4.4,0-8,3.6-8,8v19c-4.1,0.8-8.3,1.2-12.5,1.2
				c-21.1,0-40.3-9.7-52.8-25.9h43.3c4.4,0,8-3.6,8-8c0-4.4-3.6-8-8-8H423c-4.4,0-8,3.6-8,8c0,4.4,3.6,8,8,8h7.5
				c8,22.9,22.8,43.3,42.2,58.1c21.7,16.5,47.6,25.2,75,25.2c4.2,0,8.4-0.2,12.5-0.6v8.5h-106c-4.4,0-8,3.6-8,8v33.8h-14.6
				c-4.4,0-8,3.6-8,8c0,4.4,3.6,8,8,8h22.5l0,0h187l0,0h22.5c4.4,0,8-3.6,8-8C671.6,582.7,668.2,579.5,663.8,579.5L663.8,579.5z
				 M585.2,272.8l23.7,16.6l-8.4,12l0,0l-7.2,10.3l-23.7-16.6L585.2,272.8z M539.7,388.3L516,371.7l44.5-63.5l23.7,16.6L539.7,388.3
				z M594.7,337.7l2.6-3.7l1.7,1.2c1.4,1,3,1.4,4.6,1.4c2.5,0,5-1.2,6.6-3.4c2.5-3.6,1.7-8.6-2-11.1l-1.7-1.2l2.8-4
				c28.9,20.1,46.5,53.5,46.5,88.8c0,33-15.3,64.2-40.8,84.6v-36.5c10.1-14.1,15.4-30.6,15.4-48.1
				C630.3,378.3,616.9,353,594.7,337.7L594.7,337.7z M547.7,513.7c-44,0-83.7-27.2-100.1-67.3h28.2c6.7,11.7,16.1,21.7,27.6,29
				c13.2,8.4,28.6,12.9,44.4,12.9c4.2,0,8.4-0.3,12.5-0.9V513C556.1,513.5,551.9,513.7,547.7,513.7L547.7,513.7z M576.2,519.9v-59.8
				h22.7v77.5h-22.7V519.9z M462.2,553.6h171v25.8h-171V553.6z"/>
		</g>
	</g>
</g>
</svg>
