<?xml version="1.0" encoding="utf-8"?>
<!-- Generator: Adobe Illustrator 19.0.0, SVG Export Plug-In . SVG Version: 6.00 Build 0)  -->
<svg version="1.1" id="Capa_1" xmlns="http://www.w3.org/2000/svg" xmlns:xlink="http://www.w3.org/1999/xlink" x="0px" y="0px" fill="#fff"
	 viewBox="-42.5 216.8 310.1 409" style="enable-background:new -42.5 216.8 310.1 409;" xml:space="preserve">
<path d="M262.1,569.6c-4.9,2.5-10.9,0.5-13.4-4.4l-49.8-98.7c-11.9-23.6-29.2-47.6-67.4-47.6h-38c-38.2,0-55.5,24.1-67.4,47.6
	l-49.8,98.7c-1.8,3.5-5.3,5.5-8.9,5.5c-1.5,0-3.1-0.3-4.5-1.1c-4.9-2.5-6.9-8.5-4.4-13.4l49.8-98.7c12.7-25.2,35.4-58.6,85.2-58.6
	h38c49.9,0,72.5,33.5,85.2,58.6l49.8,98.7C269,561.1,267,567.1,262.1,569.6z M131.6,439c-5.5,0-10,4.5-10,10v12.9h-12.9
	c-5.5,0-10,4.5-10,10c0,5.5,4.5,10,10,10h12.9v12.9c0,5.5,4.5,10,10,10s10-4.5,10-10v-12.9h12.9c5.5,0,10-4.5,10-10
	c0-5.5-4.5-10-10-10h-12.9V449C141.6,443.5,137.1,439,131.6,439z M183,494.5c-5.5,0-10,4.5-10,10v101.4H52V504.5c0-5.5-4.5-10-10-10
	s-10,4.5-10,10v111.4c0,5.5,4.5,10,10,10h141c5.5,0,10-4.5,10-10V504.5C193,499,188.5,494.5,183,494.5z M15.6,337.8
	c-1.6-7.1-2.4-14.4-2.4-21.7c0-54.8,44.6-99.3,99.3-99.3c54.8,0,99.3,44.6,99.3,99.3c0,7.3-0.8,14.6-2.4,21.7
	c-1,4.6-5.1,7.8-9.8,7.8h-37.8c-10.3,17.2-29,28-49.3,28s-39.1-10.8-49.3-28H25.3C20.7,345.6,16.6,342.4,15.6,337.8z M143.2,337.6
	c-26.1-5.1-45.9-28-46.3-55.5c-12.9,5.9-21.9,19-21.9,34.1c0,5.4,1.1,10.5,3.3,15.4c0,0.1,0,0.1,0.1,0.2
	c6.1,13.3,19.5,21.9,34.1,21.9C124.9,353.6,136.3,347.5,143.2,337.6z M150,316.2c0-19.2-14.5-35-33-37.2c0,0.8-0.1,1.5-0.1,2.3
	c0,19.2,14.5,35,33,37.2C150,317.7,150,316.9,150,316.2z M33.2,316.2c0,3.2,0.2,6.3,0.6,9.5h22.1c-0.5-3.1-0.8-6.3-0.8-9.5
	c0-30,23.2-54.8,52.6-57.3c0.1,0,0.1,0,0.2,0c1.6-0.1,3.1-0.2,4.7-0.2c31.7,0,57.5,25.8,57.5,57.5c0,3.2-0.3,6.4-0.8,9.5h22.1
	c0.4-3.1,0.6-6.3,0.6-9.5c0-43.7-35.6-79.3-79.3-79.3C68.8,236.8,33.2,272.4,33.2,316.2z"/>
</svg>
