<?xml version="1.0" encoding="utf-8"?>
<!-- Generator: Adobe Illustrator 19.0.0, SVG Export Plug-In . SVG Version: 6.00 Build 0)  -->
<svg version="1.1" id="Capa_1" xmlns="http://www.w3.org/2000/svg" xmlns:xlink="http://www.w3.org/1999/xlink" x="0px" y="0px" fill="#fff"
	 viewBox="277.4 123.6 533.1 595.3" style="enable-background:new 277.4 123.6 533.1 595.3;" xml:space="preserve">
<path d="M462,386.7v69.1c0,8.1,6.6,14.6,14.6,14.6h57.7v57.7c0,8.1,6.6,14.6,14.6,14.6H618c8.1,0,14.6-6.6,14.6-14.6v-57.7h57.7
	c8.1,0,14.6-6.6,14.6-14.6v-69.1c0-8.1-6.6-14.6-14.6-14.6h-57.7v-57.7c0-8.1-6.6-14.6-14.6-14.6h-69c-8.1,0-14.6,6.6-14.6,14.6
	v57.7h-57.7C468.6,372.1,462,378.6,462,386.7z M491.3,401.3H549c8.1,0,14.6-6.6,14.6-14.6V329h39.8v57.7c0,8.1,6.6,14.6,14.6,14.6
	h57.7v39.8H618c-8.1,0-14.6,6.6-14.6,14.6v57.7h-39.8v-57.7c0-8.1-6.6-14.6-14.6-14.6h-57.7V401.3z M277.4,513.3c0,0.1,0,0.2,0,0.3
	s0,0.2,0,0.3v190.4c0,8.1,6.6,14.6,14.6,14.6c8.1,0,14.6-6.6,14.6-14.6v-176h50v65.3c0,30.1,24.5,54.6,54.6,54.6h344.7
	c30.1,0,54.6-24.5,54.6-54.6V248.9c0-30.1-24.5-54.6-54.6-54.6H411.2c-30.1,0-54.6,24.5-54.6,54.6v65.4h-50v-176
	c0.1-8.1-6.5-14.7-14.6-14.7s-14.6,6.6-14.6,14.6v190.4c0,0.1,0,0.2,0,0.3s0,0.2,0,0.3V513.3z M385.9,248.9
	c0-14,11.4-25.3,25.3-25.3h344.7c14,0,25.3,11.4,25.3,25.3v344.7c0,14-11.4,25.3-25.3,25.3H411.2c-14,0-25.3-11.4-25.3-25.3
	L385.9,248.9L385.9,248.9z M306.7,343.5h50v155.4h-50V343.5z"/>
</svg>
