<?xml version="1.0" encoding="utf-8"?>
<!-- Generator: Adobe Illustrator 18.1.1, SVG Export Plug-In . SVG Version: 6.00 Build 0)  -->
<svg version="1.1" id="Слой_1" xmlns="http://www.w3.org/2000/svg" xmlns:xlink="http://www.w3.org/1999/xlink" x="0px" y="0px"
	 viewBox="270 106.3 294 384" enable-background="new 270 106.3 294 384" xml:space="preserve">
<g>
	<g>
		<g>
			<defs>
				<rect id="SVGID_1_" x="276" y="106.3" width="288" height="384"/>
			</defs>
			<clipPath id="SVGID_2_">
				<use xlink:href="#SVGID_1_"  overflow="visible"/>
			</clipPath>
			<path clip-path="url(#SVGID_2_)" fill="#FFFFFF" d="M446.4,186.3c0,4.4-3.6,8-8,8h-1.6c-4.4,0-8-3.6-8-8s3.6-8,8-8h1.6
				C442.8,178.3,446.4,181.9,446.4,186.3L446.4,186.3z M457.4,393.1c8.6,8.9,8.4,23.2-0.3,32L437,445.3c-4.5,4.5-10.6,7-17,7
				s-12.4-2.5-17-7l-20.1-20.1c-8.7-8.7-8.9-23.1-0.3-32c4.2-4.4,9.9-6.8,16.1-6.9c6.3-0.1,12.4,2.4,16.8,6.8l4.6,4.6l4.6-4.6
				c4.4-4.4,10.5-6.9,16.8-6.8C447.5,386.3,453.2,388.8,457.4,393.1L457.4,393.1z M445.9,404.2c-1.2-1.3-2.9-1.9-4.7-2h-0.1
				c-2,0-3.9,0.8-5.2,2.1l-10.2,10.2c-1.5,1.5-3.5,2.3-5.7,2.3c-2.1,0-4.2-0.8-5.7-2.3l-10.2-10.2c-1.4-1.4-3.3-2.1-5.2-2.1h-0.1
				c-1.8,0-3.5,0.7-4.7,2c-2.6,2.7-2.5,6.9,0.1,9.6l20.1,20.1c1.5,1.5,3.5,2.3,5.7,2.3c2.1,0,4.1-0.8,5.7-2.3l20.1-20.1
				C448.4,411.2,448.5,406.9,445.9,404.2L445.9,404.2z M403.2,178.3h-1.6c-4.4,0-8,3.6-8,8s3.6,8,8,8h1.6c4.4,0,8-3.6,8-8
				C411.2,181.9,407.6,178.3,403.2,178.3L403.2,178.3z M387.1,328c9.1-8.9,20.8-13.7,32.9-13.7s23.7,4.9,32.9,13.7
				c3.2,3.1,8.2,3,11.3-0.2c3.1-3.2,3-8.2-0.2-11.3c-12.1-11.8-27.8-18.3-44-18.3s-31.9,6.5-44,18.3c-3.2,3.1-3.3,8.1-0.2,11.3
				c1.6,1.6,3.7,2.4,5.7,2.4C383.6,330.3,385.6,329.5,387.1,328L387.1,328z M557.7,470.3c-8.4,12.5-23.6,20-40.5,20H322.7
				c-16.9,0-32-7.5-40.5-20c-6.8-10-8.1-22.1-3.7-33.1l29.4-72.9v-42c0-14.2,3.6-27.8,10.2-39.9c-0.3-0.3-0.5-0.5-0.7-0.9
				C306,265.3,300,246.2,300,226.3c0-66.2,53.8-120,120-120s120,53.8,120,120c0,19.9-6,39-17.5,55.2c-0.2,0.3-0.4,0.6-0.7,0.9
				c6.5,12.2,10.2,25.7,10.2,39.9v42l29.4,72.9C565.9,448.2,564.5,460.3,557.7,470.3L557.7,470.3z M327.7,268
				c13.4-16.7,32.9-29.6,55.7-36.4c-18.9-12.1-31.4-33.3-31.4-57.3v-0.1c0-7.5,4.5-14.2,11.5-17.1c16.8-7.1,36.4-10.8,56.6-10.8
				s39.8,3.7,56.6,10.8c6.9,2.9,11.4,9.6,11.5,17.1v0.1c0,24-12.5,45.2-31.4,57.3c22.8,6.8,42.2,19.7,55.7,36.4
				c7.7-12.5,11.7-26.8,11.7-41.7c0-57.3-46.7-104-104-104c-57.4,0-104,46.7-104,104C316,241.1,320,255.4,327.7,268L327.7,268z
				 M472,174.3c0-1.1-0.7-2.1-1.6-2.5c-14.9-6.2-32.3-9.5-50.4-9.5s-35.5,3.3-50.4,9.5c-1,0.4-1.6,1.4-1.6,2.4
				c0,28.7,23.3,52.1,52,52.1C448.7,226.3,472,203,472,174.3L472,174.3z M420,242.3c-5.4,0-10.8,0.4-16,1.1
				c0.6,8.3,7.5,14.9,16,14.9s15.4-6.6,16-14.9C430.8,242.7,425.4,242.3,420,242.3L420,242.3z M546.6,443.2l-25.4-63.1l-6.8,6.8
				c-6,6-14.1,9.4-22.6,9.4c-8.5,0-16.6-3.3-22.6-9.4c-6-6-9.4-14.1-9.4-22.6s3.3-16.6,9.4-22.6l13.8-13.8l-6.7-27.6
				c-1-4.3,1.6-8.6,5.9-9.7c4.3-1,8.6,1.6,9.7,5.9l7.2,29.8l17,17v-21c0-34.9-26.9-64.6-64.3-75.5c-2.2,15.5-15.6,27.5-31.7,27.5
				s-29.5-12-31.7-27.5c-37.4,10.9-64.3,40.7-64.3,75.5v21l17-17l7.2-29.8c1-4.3,5.4-6.9,9.7-5.9c4.3,1,6.9,5.4,5.9,9.7l-6.7,27.6
				l13.8,13.8c6,6,9.4,14.1,9.4,22.6s-3.3,16.6-9.4,22.6c-6,6-14.1,9.4-22.6,9.4c-8.5,0-16.6-3.3-22.6-9.4l-6.8-6.8l-25.4,63.1
				c-2.5,6.1-1.7,12.6,2.1,18.2c5.4,8,15.8,12.9,27.2,12.9h194.6c11.4,0,21.8-4.9,27.2-12.9C548.3,455.7,549,449.2,546.6,443.2
				L546.6,443.2z M337,375.5c3,3,7,4.7,11.3,4.7c4.3,0,8.3-1.7,11.3-4.7c3-3,4.7-7,4.7-11.3s-1.7-8.3-4.7-11.3l-11.3-11.3
				l-22.6,22.6L337,375.5z M491.7,341.6l-11.3,11.3c-3,3-4.7,7-4.7,11.3s1.7,8.3,4.7,11.3c3,3,7,4.7,11.3,4.7
				c4.3,0,8.3-1.7,11.3-4.7l11.3-11.3L491.7,341.6z"/>
		</g>
	</g>
</g>
</svg>
