<svg id="Слой_1" xmlns="http://www.w3.org/2000/svg" xmlns:xlink="http://www.w3.org/1999/xlink" fill="#fff" viewBox="419 257.9 248.9 328"><style>.st0{clip-path:url(#SVGID_2_)}</style><defs><path id="SVGID_1_" d="M419 257.9h248.9v328H419z"/></defs><clipPath id="SVGID_2_"><use xlink:href="#SVGID_1_" overflow="visible"/></clipPath><path class="st0" d="M562 300.8c0 4.4-3.6 8-8 8h-2.9v2.9c0 4.4-3.6 8-8 8s-8-3.6-8-8v-2.9h-2.9c-4.4 0-8-3.6-8-8s3.6-8 8-8h2.9v-2.9c0-4.4 3.6-8 8-8s8 3.6 8 8v2.9h2.9c4.4 0 8 3.6 8 8zm-64.9 36.8c0-.3 0-.6.1-.9 0-.3-.1-.6-.1-.9v-69.9c0-4.4 3.6-8 8-8H581c4.4 0 8 3.6 8 8v69.9c0 .3 0 .6-.1.9 0 .3.1.6.1.9 0 25.3-20.6 46-46 46-25.3 0-45.9-20.6-45.9-46zm75.3 6.1h-58.7c2.8 13.6 14.9 23.8 29.3 23.8 14.5.1 26.6-10.2 29.4-23.8zm-59.3-16H573v-53.9h-59.9v53.9zm86.4 152.6c-4.4 0-8 3.6-8 8v81.1h-96.8v-81.1c0-4.4-3.6-8-8-8s-8 3.6-8 8v89.1c0 4.4 3.6 8 8 8h112.8c4.4 0 8-3.6 8-8v-89.1c0-4.4-3.6-8-8-8zm63.2 60c-1.2.6-2.4.9-3.6.9-2.9 0-5.7-1.6-7.1-4.4l-39.8-78.9c-8.1-16.1-19.4-32.5-41.4-36.9v61c7.3 3.1 12.5 10.4 12.5 18.8 0 11.3-9.2 20.5-20.5 20.5s-20.5-9.2-20.5-20.5c0-8.4 5.1-15.7 12.5-18.8v-62.2h-25.9V433c7.3 2.7 12.5 9.1 12.5 16.4v15c0 4.4-3.6 8-8 8s-8-3.6-8-8v-15c-.1-.4-1.7-1.9-4.5-1.9s-4.3 1.4-4.5 1.9v15c0 4.4-3.6 8-8 8s-8-3.6-8-8v-15c0-7.4 5.1-13.7 12.5-16.5v-11.4c-20.4 5.2-31.1 20.9-38.9 36.3l-39.8 78.9c-2 3.9-6.8 5.5-10.7 3.5-3.9-2-5.5-6.8-3.5-10.7l39.8-78.9c10.2-20.1 28.3-46.9 68.2-46.9h30.4c39.9 0 58 26.8 68.2 46.9l39.8 78.9c1.8 4 .3 8.8-3.7 10.8zm-95.5-39.6c0-2.4-1.9-4.4-4.3-4.5h-.2c-2.4.1-4.3 2-4.3 4.5s2 4.5 4.5 4.5 4.3-2 4.3-4.5z"/></svg>