<svg xmlns="http://www.w3.org/2000/svg" fill="#fff" viewBox="277.4 123.6 533.1 595.3"><path d="M462 386.7v69.1c0 8.1 6.6 14.6 14.6 14.6h57.7v57.7c0 8.1 6.6 14.6 14.6 14.6H618c8.1 0 14.6-6.6 14.6-14.6v-57.7h57.7c8.1 0 14.6-6.6 14.6-14.6v-69.1c0-8.1-6.6-14.6-14.6-14.6h-57.7v-57.7c0-8.1-6.6-14.6-14.6-14.6h-69c-8.1 0-14.6 6.6-14.6 14.6v57.7h-57.7c-8.1 0-14.7 6.5-14.7 14.6zm29.3 14.6H549c8.1 0 14.6-6.6 14.6-14.6V329h39.8v57.7c0 8.1 6.6 14.6 14.6 14.6h57.7v39.8H618c-8.1 0-14.6 6.6-14.6 14.6v57.7h-39.8v-57.7c0-8.1-6.6-14.6-14.6-14.6h-57.7v-39.8zm-213.9 112v191c0 8.1 6.6 14.6 14.6 14.6 8.1 0 14.6-6.6 14.6-14.6v-176h50v65.3c0 30.1 24.5 54.6 54.6 54.6h344.7c30.1 0 54.6-24.5 54.6-54.6V248.9c0-30.1-24.5-54.6-54.6-54.6H411.2c-30.1 0-54.6 24.5-54.6 54.6v65.4h-50v-176c.1-8.1-6.5-14.7-14.6-14.7s-14.6 6.6-14.6 14.6v375.1zm108.5-264.4c0-14 11.4-25.3 25.3-25.3h344.7c14 0 25.3 11.4 25.3 25.3v344.7c0 14-11.4 25.3-25.3 25.3H411.2c-14 0-25.3-11.4-25.3-25.3V248.9zm-79.2 94.6h50v155.4h-50V343.5z"/></svg>