<?xml version="1.0" encoding="utf-8"?>
<!-- Generator: Adobe Illustrator 19.1.0, SVG Export Plug-In . SVG Version: 6.00 Build 0)  -->
<svg version="1.1" id="Capa_1" xmlns="http://www.w3.org/2000/svg" xmlns:xlink="http://www.w3.org/1999/xlink" x="0px" y="0px"
	 viewBox="-391 269.3 58 58" style="enable-background:new -391 269.3 58 58;" xml:space="preserve">
<style type="text/css">
	.st0{fill:none;stroke:#000000;stroke-width:2.5;stroke-miterlimit:10;}
	.st1{fill:none;stroke:#000000;stroke-width:2.7;stroke-miterlimit:10;}
	.st2{fill:none;stroke:#000000;stroke-width:2.3;stroke-miterlimit:10;}
</style>
<g>
	<path d="M-348.1,273.8c-0.5-2.3-2.5-4-4.9-4c-0.6,0-1,0.4-1,1s0.4,1,1,1c1.7,0,3,1.3,3,3s-1.3,3-3,3c-0.6,0-1,0.4-1,1s0.4,1,1,1
		c2.4,0,4.4-1.7,4.9-4h13.1v9h-54v-9h14h3c0.6,0,1-0.4,1-1s-0.4-1-1-1h-1.8c0.4-1.2,1.5-2,2.8-2c1.7,0,3,1.3,3,3s-1.3,3-3,3
		c-0.6,0-1,0.4-1,1s0.4,1,1,1c2.8,0,5-2.2,5-5s-2.2-5-5-5c-2.4,0-4.4,1.7-4.9,4H-391v13v40h58v-40v-13H-348.1z M-335,324.8h-54v-38
		h54V324.8z"/>
	<path d="M-365,271.8c1.7,0,3,1.3,3,3s-1.3,3-3,3c-0.6,0-1,0.4-1,1s0.4,1,1,1c2.8,0,5-2.2,5-5s-2.2-5-5-5c-0.6,0-1,0.4-1,1
		S-365.6,271.8-365,271.8z"/>
	<path d="M-359,271.8c1.7,0,3,1.3,3,3s-1.3,3-3,3c-0.6,0-1,0.4-1,1s0.4,1,1,1c2.8,0,5-2.2,5-5s-2.2-5-5-5c-0.6,0-1,0.4-1,1
		S-359.6,271.8-359,271.8z"/>
</g>
<g>
	<path d="M-363.3,316.8c1.3,0,2.4-0.2,3.3-0.5c0.9-0.3,1.6-0.7,2.1-1.2c0.5-0.5,0.9-1.1,1.1-1.8c0.2-0.7,0.3-1.4,0.3-2.3
		c0-1-0.2-2-0.5-2.8s-0.9-1.5-1.8-2.1c-0.9-0.6-2-1-3.5-1.3c-1.5-0.3-3.3-0.5-5.6-0.5c0.2-1.3,0.3-2.6,0.4-3.7
		c0.1-1.1,0.2-2.2,0.3-3.2c0.1-1,0.1-2,0.2-3c0-1,0.1-2,0.1-3h12.2v2.2h-10c0,0.5-0.1,1.1-0.1,1.9c-0.1,0.8-0.1,1.6-0.2,2.4
		c-0.1,0.8-0.1,1.6-0.2,2.4c-0.1,0.8-0.1,1.4-0.2,1.8c2,0.1,3.7,0.3,5.2,0.7c1.5,0.4,2.7,1,3.6,1.8c0.9,0.8,1.6,1.7,2.1,2.7
		s0.7,2.3,0.7,3.6c0,1.1-0.2,2.2-0.6,3.2c-0.4,1-1,1.9-1.7,2.6c-0.8,0.7-1.8,1.3-3,1.7c-1.2,0.4-2.6,0.6-4.3,0.6
		c-0.8,0-1.6-0.1-2.3-0.2c-0.7-0.1-1.4-0.3-1.9-0.4c-0.6-0.2-1-0.3-1.4-0.5c-0.4-0.2-0.7-0.3-0.9-0.4l0.7-2.3
		c0.2,0.1,0.4,0.2,0.8,0.4c0.4,0.2,0.8,0.3,1.3,0.5s1.1,0.3,1.7,0.4C-364.7,316.7-364,316.8-363.3,316.8z"/>
</g>
</svg>
