<svg data-name="Capa 1" xmlns="http://www.w3.org/2000/svg" width="62" height="51" viewBox="0 0 455 375"><title>02</title><g fill="#477efb"><path d="M417.5 80H313.36l-11.3-45.21C297.18 15.28 277.61 0 257.5 0h-60c-20.11 0-39.68 15.28-44.55 34.79L141.65 80H130V57.5a7.5 7.5 0 0 0-7.5-7.5h-60a7.5 7.5 0 0 0-7.5 7.5V80H37.5A37.54 37.54 0 0 0 0 117.5v220A37.54 37.54 0 0 0 37.5 375h380a37.54 37.54 0 0 0 37.5-37.5v-220A37.54 37.54 0 0 0 417.5 80zM70 65h45v15H70V65zM37.5 95h110a7.5 7.5 0 0 0 7.28-5.68l12.72-50.9c3.17-12.7 16.91-23.42 30-23.42h60c13.09 0 26.83 10.73 30 23.42l12.72 50.9A7.5 7.5 0 0 0 307.5 95h110a22.53 22.53 0 0 1 22.5 22.5V140H305.83a117.27 117.27 0 0 0-156.66 0H15v-22.5A22.53 22.53 0 0 1 37.5 95zm190 235A102.5 102.5 0 1 1 330 227.5 102.62 102.62 0 0 1 227.5 330zM15 155h120.09a117.15 117.15 0 0 0-21.84 45H99.32a27.5 27.5 0 0 0 0 55h13.94a117.15 117.15 0 0 0 21.84 45H15V155zm95.67 85H99.32a12.5 12.5 0 0 1 0-25h11.35a117.64 117.64 0 0 0 0 25zM417.5 360h-380A22.53 22.53 0 0 1 15 337.5V315h134.17a117.27 117.27 0 0 0 156.66 0h51.67a7.5 7.5 0 0 0 0-15h-37.59a117.28 117.28 0 0 0 0-145H440v145h-52.5a7.5 7.5 0 0 0 0 15H440v22.5a22.53 22.53 0 0 1-22.5 22.5z"/><path d="M178.42 95h98.15a7.5 7.5 0 0 0 7.28-9.32l-12.5-50a7.5 7.5 0 0 0-7.27-5.68h-73.16a7.5 7.5 0 0 0-7.28 5.68l-12.5 50a7.5 7.5 0 0 0 7.28 9.32zm18.35-50h61.44L267 80h-79zm30.73 105a77.5 77.5 0 1 0 77.5 77.5 77.59 77.59 0 0 0-77.5-77.5zm0 140a62.5 62.5 0 1 1 62.5-62.5 62.57 62.57 0 0 1-62.5 62.5z"/><path d="M271.23 209a7.502 7.502 0 0 0-13.82 5.84 32.5 32.5 0 0 1-52.89 35.67 7.502 7.502 0 1 0-10.61 10.61A47.49 47.49 0 0 0 271.23 209zm-72.01-2.28a7.48 7.48 0 0 0 5.3-2.2 32.4 32.4 0 0 1 35.67-6.93 7.5 7.5 0 0 0 5.81-13.82 47.34 47.34 0 0 0-52.11 10.14 7.5 7.5 0 0 0 5.33 12.81z"/></g></svg>