<?xml version="1.0" encoding="utf-8"?>
<!-- Generator: Adobe Illustrator 19.1.0, SVG Export Plug-In . SVG Version: 6.00 Build 0)  -->
<svg version="1.1" id="Capa_1" xmlns="http://www.w3.org/2000/svg" xmlns:xlink="http://www.w3.org/1999/xlink" x="0px" y="0px"
	 viewBox="-240.3 269.3 58 58" style="enable-background:new -240.3 269.3 58 58;" xml:space="preserve">
<style type="text/css">
	.st0{fill:#487EFB;}
	.st1{fill:none;stroke:#487EFB;stroke-width:2.5;stroke-miterlimit:10;}
</style>
<circle class="st1" cx="-195.1" cy="274.9" r="4.6"/>
<circle class="st1" cx="-228.5" cy="322.4" r="4.6"/>
<line class="st1" x1="-223.1" y1="284.6" x2="-214.4" y2="293.3"/>
<line class="st1" x1="-214.4" y1="284.6" x2="-223.1" y2="293.3"/>
<line class="st1" x1="-201.1" y1="307.7" x2="-192.4" y2="316.4"/>
<line class="st1" x1="-192.4" y1="307.7" x2="-201.1" y2="316.4"/>
<line class="st1" x1="-217.2" y1="315.6" x2="-208.5" y2="324.3"/>
<line class="st1" x1="-208.5" y1="315.6" x2="-217.2" y2="324.3"/>
<polyline class="st1" points="-200,289.8 -195.6,285.4 -191.2,289.8 "/>
<path class="st1" d="M-195.6,285.4c0,9.1,1.2,16.5-11.4,16.5"/>
<circle class="st0" cx="-228" cy="312.4" r="1.2"/>
<circle class="st0" cx="-227.3" cy="307.1" r="1.2"/>
<circle class="st0" cx="-223.1" cy="303.1" r="1.2"/>
<circle class="st0" cx="-217.7" cy="301.9" r="1.2"/>
<circle class="st0" cx="-212.2" cy="302.2" r="1.2"/>
</svg>
