<svg xmlns="http://www.w3.org/2000/svg" viewBox="383.9 257.3 72.4 81.7"><g fill="#53a160"><path d="M451.7 286.5h-2v-9.7c0-.4-.1-.7-.4-1l-15.7-18-.3-.3s-.1 0-.1-.1c-.1-.1-.2-.1-.3-.1h-39.2c-1.8 0-3.2 1.4-3.2 3.2v26h-2c-2.5 0-4.6 2-4.6 4.6v23.8c0 2.5 2 4.6 4.6 4.6h2v16.3c0 1.8 1.4 3.2 3.2 3.2h52.8c1.8 0 3.2-1.4 3.2-3.2v-16.3h2c2.5 0 4.6-2.1 4.6-4.6V291c0-2.5-2.1-4.5-4.6-4.5zm-58-26h37.1v16.4c0 .9.7 1.6 1.6 1.6h14.1v8h-52.8v-26zm38.4 41.1c0 7.3-4.4 11.7-10.9 11.7-6.6 0-10.4-5-10.4-11.3 0-6.6 4.2-11.6 10.8-11.6 6.8 0 10.5 5.1 10.5 11.2zm-43.2 11.3v-21.8c1.8-.3 4.2-.5 6.8-.5 4.2 0 6.9.8 9.1 2.4 2.3 1.7 3.8 4.4 3.8 8.4 0 4.2-1.5 7.2-3.7 9-2.3 1.9-5.9 2.9-10.2 2.9-2.7-.1-4.5-.3-5.8-.4zm57.6 21.9h-52.8v-15.4h52.8v15.4zm.3-25.7c1.5 0 3.2-.3 4.2-.7l.8 3.9c-.9.5-3 1-5.7 1-7.7 0-11.6-4.8-11.6-11.1 0-7.6 5.4-11.8 12.1-11.8 2.6 0 4.6.5 5.5 1l-1 4c-1-.4-2.4-.8-4.2-.8-4 0-7.1 2.4-7.1 7.3-.1 4.4 2.5 7.2 7 7.2z"/><path d="M403.2 301.5c0-4.6-2.7-7-7-7-1.1 0-1.8.1-2.3.2v14.5c.4.1 1.1.1 1.7.1 4.6 0 7.6-2.5 7.6-7.8zm12.9.4c0 4.3 2 7.4 5.4 7.4 3.4 0 5.3-3.2 5.3-7.5 0-4-1.9-7.4-5.4-7.4-3.3 0-5.3 3.2-5.3 7.5z"/></g></svg>