<svg xmlns="http://www.w3.org/2000/svg" viewBox="359.5 218.2 122.8 158.9"><g fill="#FFF"><path d="M422 294.1h13c1.9 0 3.5-1.6 3.5-3.5s-1.6-3.5-3.5-3.5h-13c-1.9 0-3.5 1.6-3.5 3.5s1.6 3.5 3.5 3.5zm0-14.4h13c1.9 0 3.5-1.6 3.5-3.5s-1.6-3.5-3.5-3.5h-13c-1.9 0-3.5 1.6-3.5 3.5s1.6 3.5 3.5 3.5zm0-14.6h13c1.9 0 3.5-1.6 3.5-3.5s-1.6-3.5-3.5-3.5h-13c-1.9 0-3.5 1.6-3.5 3.5s1.6 3.5 3.5 3.5zm-14.9-6.8h-23.5c-1.9 0-3.5 1.6-3.5 3.5s1.6 3.5 3.5 3.5h23.5c1.9 0 3.5-1.6 3.5-3.5s-1.6-3.5-3.5-3.5zm-.2 53.9h-23.3c-1.9 0-3.5 1.6-3.5 3.5s1.6 3.5 3.5 3.5h23.3c1.9 0 3.5-1.6 3.5-3.5s-1.6-3.5-3.5-3.5zm.2-39.4h-23.5c-1.9 0-3.5 1.6-3.5 3.5s1.6 3.5 3.5 3.5h23.5c1.9 0 3.5-1.6 3.5-3.5s-1.6-3.5-3.5-3.5zm0 14.4h-23.5c-1.9 0-3.5 1.6-3.5 3.5s1.6 3.5 3.5 3.5h23.5c1.9 0 3.5-1.6 3.5-3.5s-1.6-3.5-3.5-3.5zm-10.5 39.5h-13c-1.9 0-3.5 1.6-3.5 3.5s1.6 3.5 3.5 3.5h13c1.9 0 3.5-1.6 3.5-3.5s-1.6-3.5-3.5-3.5z"/><path d="M459.2 308.4v-63.3c0-.2 0-.4-.1-.6-.1-.6-.4-1.3-.9-1.8l-23.5-23.5c-.6-.6-1.6-1-2.4-1H363c-1.9 0-3.5 1.6-3.5 3.5v133c0 1.9 1.6 3.5 3.5 3.5h52.5c5.9 11.3 17.7 19 31.4 19 19.5 0 35.4-15.9 35.4-35.4-.1-15.4-9.7-28.4-23.1-33.4zm-23.7-78.6l11.8 11.8h-11.8v-11.8zm-69.2 121.3V225h62.4v20.2c0 1.9 1.6 3.5 3.5 3.5h20.2v58.1c-1.8-.3-3.6-.4-5.5-.4-19.5 0-35.4 15.9-35.4 35.4 0 3.3.5 6.5 1.3 9.5h-46.5zm80.5 19.5c-16 0-29.1-13-29.1-29.1s13-29.1 29.1-29.1 29.1 13 29.1 29.1-13.1 29.1-29.1 29.1z"/><path d="M438.2 339.9c1.1 0 2.1-.1 3-.4.9-.3 1.7-.6 2.4-1.3.7-.6 1.2-1.3 1.6-2.3.4-.9.6-2.1.6-3.4 0-1.3-.2-2.5-.6-3.4-.4-.9-.9-1.7-1.6-2.3-.7-.6-1.5-1-2.4-1.3-.9-.3-1.9-.4-3-.4s-2.1.1-3 .4c-.9.3-1.7.7-2.4 1.3-.6.6-1.2 1.3-1.6 2.3-.4.9-.6 2-.6 3.3s.2 2.5.6 3.4.9 1.7 1.6 2.3c.6.6 1.5 1 2.4 1.3 1 .3 2 .5 3 .5zm-1.9-10.2c.4-.6 1.1-.8 1.9-.8.9 0 1.6.3 1.9.8.4.6.6 1.5.6 2.9s-.2 2.3-.6 2.9c-.4.5-1 .8-1.9.8-1.7 0-2.5-1.2-2.5-3.7.1-1.4.2-2.4.6-2.9zm21.3-4.5l-24.7 28.2 3.1 3 24.8-28.4zm3.5 17.6c-.7-.6-1.5-1-2.4-1.3-.9-.3-1.9-.4-3-.4s-2.1.1-3 .4c-.9.3-1.7.7-2.4 1.3-.6.6-1.2 1.3-1.6 2.3-.4.9-.6 2-.6 3.3s.2 2.5.6 3.4c.4.9.9 1.7 1.6 2.3.6.6 1.5 1 2.4 1.3.9.3 1.9.4 3 .4s2.1-.1 3-.4c.9-.3 1.7-.6 2.4-1.3.7-.6 1.2-1.3 1.6-2.3.4-.9.6-2.1.6-3.4 0-1.3-.2-2.5-.6-3.4-.4-.9-.9-1.7-1.6-2.2zm-3.5 8.5c-.4.5-1 .8-1.9.8-1.7 0-2.5-1.2-2.5-3.7 0-1.3.2-2.3.6-2.9.4-.6 1.1-.8 1.9-.8.9 0 1.6.3 1.9.8.4.6.6 1.5.6 2.9s-.2 2.4-.6 2.9z"/></g></svg>