<svg id="Слой_1" data-name="Слой 1" xmlns="http://www.w3.org/2000/svg" width="508" height="303.05" viewBox="0 0 508 303.05">
  <defs>
    <style>
      .cls-1, .cls-2 {
        fill: #54514f;
      }

      .cls-1 {
        stroke: #54514f;
        stroke-width: 33.87px;
      }

      .cls-3 {
        fill: #fff;
      }
    </style>
  </defs>
  <title>icon-powder</title>
  <g id="Слой_1-2" data-name="Слой_1">
    <g id="_424790482208" data-name=" 424790482208">
      <path class="cls-1" d="M154.06,393.48c-17.09-8.19-24.75-4.45-36.88,3.69,4.14,17.77,8.14,18.45,29.51,18.45-5.16,19.3-7.37.79-7.37,25.8,32.06,17,23-1.73,37,6.89,14.63,8.93,1.11,6.24,10.54,15.76,14,14.14,12-8.9,26.14,17.91,54.82,0,15-20.81,65.54-6.55,8.53,2.41,12.42,10.23,23,10.23,21.4,0-.85-7.37,51.62-7.37,14.43,0,7.4,12.56,28.8,12.5,42-.09-3.83,5.92,52.33,5.92,8.08-12.08,9.64-5.13,11.06-22.11l25.54,1.87a18.45,18.45,0,0,1,2,.65c0.51,0.2,1.39.88,1.93,1.16s1.3,1.22,1.9,1.56c33.42,19.87,51-17.12,16.55-20V448.78c16.81-3.91,25.11-9.33,29.51-25.8,21.37,0,25.37-.65,29.51-18.45-15.73-10.52-11.82-7.37-36.88-7.37-4.56-19.56-37.08-61-50.66-74.72-19.53-19.76-94.31-94.9-122.66-94.9-24.15,0-36.54,12.3-59.9,32.31-9.38,8.05-14.63,11.79-24,20.27l-24,20.24C202.28,332.73,174.56,354.73,154.06,393.48Z" transform="translate(-67.41 -210.6)"/>
      <ellipse class="cls-2" cx="484.02" cy="236.48" rx="23.98" ry="16.58"/>
      <ellipse class="cls-2" cx="18.43" cy="236.48" rx="18.43" ry="13.83"/>
      <ellipse class="cls-2" cx="67.29" cy="256.75" rx="21.2" ry="12.9"/>
      <ellipse class="cls-3" cx="320.71" cy="68.55" rx="12.56" ry="9.64"/>
      <ellipse class="cls-3" cx="380.01" cy="142.4" rx="15.68" ry="12.9"/>
      <ellipse class="cls-3" cx="344.64" cy="105.46" rx="15.22" ry="13.83"/>
      <ellipse class="cls-3" cx="278.76" cy="51.06" rx="11.51" ry="9.01"/>
      <circle class="cls-3" cx="301.69" cy="108.83" r="11.99"/>
      <ellipse class="cls-3" cx="326.3" cy="166.83" rx="20.15" ry="12.1"/>
    </g>
  </g>
</svg>
