<svg id="Слой_1" xmlns="http://www.w3.org/2000/svg" xmlns:xlink="http://www.w3.org/1999/xlink" viewBox="123 393.3 231.9 326"><style>.st0{clip-path:url(#SVGID_2_);fill:#fff}</style><defs><path id="SVGID_1_" d="M123 393.3h231.8v326H123z"/></defs><clipPath id="SVGID_2_"><use xlink:href="#SVGID_1_" overflow="visible"/></clipPath><path class="st0" d="M262.3 545.3c0-4.4 3.6-8 8-8h11.4c4.4 0 8 3.6 8 8s-3.6 8-8 8h-11.4c-4.4 0-8-3.6-8-8zm8 41.5h11.4c4.4 0 8-3.6 8-8s-3.6-8-8-8h-11.4c-4.4 0-8 3.6-8 8s3.6 8 8 8zm-74.1-67.4h47.1c4.4 0 8-3.6 8-8s-3.6-8-8-8h-47.1c-4.4 0-8 3.6-8 8s3.6 8 8 8zm74.1 0h11.4c4.4 0 8-3.6 8-8s-3.6-8-8-8h-11.4c-4.4 0-8 3.6-8 8s3.6 8 8 8zm84.6-79.4v270.8c0 4.4-3.6 8-8 8H131c-4.4 0-8-3.6-8-8V440c0-4.4 3.6-8 8-8h41.1v-11.3c0-4.4 3.6-8 8-8h30.4c3.4-11.2 13.9-19.3 26.1-19.3 12.3 0 22.7 8.2 26.1 19.3h30.4c4.4 0 8 3.6 8 8V432h45.7c4.6 0 8.1 3.5 8.1 8zm-166.8 11.3h97.2v-22.7H256c-4.4 0-8-3.6-8-8 0-6.2-5.1-11.3-11.3-11.3-6.3 0-11.3 5.1-11.3 11.3 0 4.4-3.6 8-8 8h-29.2l-.1 22.7zm150.8-3.3h-37.7v11.3c0 4.4-3.6 8-8 8H180.1c-4.4 0-8-3.6-8-8V448H139v254.8h199.9V448zm-78.4 164.5h46.9v-124c0-4.4 3.6-8 8-8s8 3.6 8 8v131.9c0 .4 0 .7-.1 1.1 0 .3-.1.5-.2.8-.3 1.3-1 2.6-2 3.6L266.2 681c-1 1-2.2 1.7-3.5 2-.3.1-.5.1-.8.2-.4.1-.8.1-1.1.1h-97.9c-4.4 0-8-3.6-8-8V488.5c0-4.4 3.6-8 8-8s8 3.6 8 8v178.8h81.9v-46.9c-.3-4.4 3.3-7.9 7.7-7.9zm8 43.5l27.5-27.5h-27.5V656zm-72.3-102.7h47.1c4.4 0 8-3.6 8-8s-3.6-8-8-8h-47.1c-4.4 0-8 3.6-8 8s3.6 8 8 8zm0 84.2h6.5v6.5c0 4.4 3.6 8 8 8s8-3.6 8-8v-6.5h6.5c4.4 0 8-3.6 8-8s-3.6-8-8-8h-6.5V615c0-4.4-3.6-8-8-8s-8 3.6-8 8v6.5h-6.5c-4.4 0-8 3.6-8 8s3.6 8 8 8zm0-50.7h47.1c4.4 0 8-3.6 8-8s-3.6-8-8-8h-47.1c-4.4 0-8 3.6-8 8s3.6 8 8 8z"/></svg>