<svg xmlns="http://www.w3.org/2000/svg" xmlns:xlink="http://www.w3.org/1999/xlink" viewBox="258 150.1 325.9 295"><defs><path id="a" d="M257 150.3h325.9v295H257z"/></defs><clipPath id="b"><use xlink:href="#a" overflow="visible"/></clipPath><path clip-path="url(#b)" fill="#FFF" d="M461.6 197.8c-3.1-3.1-3.1-8.2 0-11.3l14-14c3.1-3.1 8.2-3.1 11.3 0 3.1 3.1 3.1 8.2 0 11.3l-14 14c-1.6 1.6-3.6 2.3-5.7 2.3-2 .1-4-.7-5.6-2.3zm-62.8 0c1.6 1.6 3.6 2.3 5.7 2.3s4.1-.8 5.7-2.3c3.1-3.1 3.1-8.2 0-11.3l-14-14c-3.1-3.1-8.2-3.1-11.3 0-3.1 3.1-3.1 8.2 0 11.3l13.9 14zm38-11.7c4.4 0 8-3.6 8-8v-19.9c0-4.4-3.6-8-8-8s-8 3.6-8 8v19.9c0 4.5 3.6 8 8 8zM513.1 316c1.7 2.4 2 5.6.6 8.3-1.4 2.7-4.1 4.3-7.1 4.3h-74.8c-4.4 0-8-3.6-8-8v-42.7c0-4.4 3.6-8 8-8h44.5c2.6 0 5 1.3 6.5 3.4l30.3 42.7zm-22.1-3.4l-19-26.7h-32.4v26.7H491zm-124.3-21.8h-13.8v-13.9c0-4.4-3.6-8-8-8s-8 3.6-8 8v13.9H323c-4.4 0-8 3.6-8 8s3.6 8 8 8h13.9v13.8c0 4.4 3.6 8 8 8s8-3.6 8-8v-13.8h13.8c4.4 0 8-3.6 8-8s-3.6-8-8-8zM543.6 406c-1.5 8.6-5.3 16.4-10.8 22.7H575c4.4 0 8 3.6 8 8s-3.6 8-8 8H265.5c-4.4 0-8-3.6-8-8s3.6-8 8-8h42.2c-5.5-6.3-9.4-14.1-10.8-22.7H265c-4.4 0-8-3.6-8-8V243.3c0-4.4 3.6-8 8-8h145.1v-10.6c0-14.7 11.9-26.6 26.6-26.6h.3c14.7 0 26.6 11.9 26.6 26.6v10.6h34c2.6 0 5 1.3 6.5 3.4l77.4 109c1 1.4 1.5 3 1.5 4.6V398c0 4.4-3.6 8-8 8h-31.4zM426.1 235.3h21.4v-10.6c0-5.8-4.7-10.6-10.6-10.6h-.3c-5.8 0-10.6 4.7-10.6 10.6v10.6h.1zM373.5 398c0-16.9-13.8-30.7-30.7-30.7s-30.7 13.8-30.7 30.7 13.8 30.7 30.7 30.7 30.7-13.8 30.7-30.7zm88.9 30.7c-5.5-6.3-9.4-14.1-10.8-22.7h-62.7c-1.5 8.6-5.3 16.4-10.8 22.7h84.3zm65.9-30.7c0-16.9-13.8-30.7-30.7-30.7s-30.7 13.8-30.7 30.7 13.8 30.7 30.7 30.7 30.7-13.8 30.7-30.7zm15.3-8H567v-35.2l-73.5-103.5H273V390h23.9c3.8-21.9 23-38.7 46-38.7s42.2 16.7 46 38.7h62.7c3.8-21.9 23-38.7 46-38.7s42.2 16.8 46 38.7zm-46-.8c-4.9 0-8.8 4-8.8 8.8 0 4.9 4 8.8 8.8 8.8 4.9 0 8.8-4 8.8-8.8 0-4.9-3.9-8.8-8.8-8.8zm-154.7 0c-4.9 0-8.8 4-8.8 8.8 0 4.9 4 8.8 8.8 8.8 4.9 0 8.8-4 8.8-8.8 0-4.9-4-8.8-8.8-8.8z"/></svg>