<svg xmlns="http://www.w3.org/2000/svg" viewBox="342.2 218.9 157.4 157.4"><g fill="#FFF"><path d="M493.6 228.2h-31.5v-4.5c0-2.6-2.1-4.6-4.8-4.6-2.6 0-4.8 2-4.8 4.6v4.5h-28v-4.5c0-2.6-2.1-4.6-4.8-4.6-2.7 0-4.8 2-4.8 4.6v4.5H388v-4.5c0-2.6-2.1-4.6-4.8-4.6-2.6 0-4.8 2-4.8 4.6v4.5h-32.6c-2.7 0-4.8 2-4.8 4.6v104.9c0 2.5 2.1 4.6 4.8 4.6h29.5c4.7 19.5 22.8 34 44.4 34 21.6 0 39.7-14.6 44.4-34h29.5c2.7 0 4.8-2.1 4.8-4.6V232.8c0-2.5-2.2-4.6-4.8-4.6zm-115.2 9.3v4.2c0 2.5 2.2 4.6 4.8 4.6 2.7 0 4.8-2.1 4.8-4.6v-4.2h26.9v4.2c0 2.5 2.1 4.6 4.8 4.6 2.6 0 4.8-2.1 4.8-4.6v-4.2h28v4.2c0 2.5 2.2 4.6 4.8 4.6 2.7 0 4.8-2.1 4.8-4.6v-4.2h26.7v18.9H350.6v-18.9h27.8zm41.3 129.6c-19.9 0-36-15.7-36-34.8 0-19.2 16.2-34.8 36-34.8 19.9 0 36 15.7 36 34.8 0 19.1-16.1 34.8-36 34.8zm45.6-34v-.8c0-24.4-20.5-44.1-45.6-44.1-25.2 0-45.6 19.8-45.6 44.1v.8h-23.5v-67.3h138.2v67.3h-23.5z"/><path d="M424.5 333.5V311c0-2.6-2.1-4.6-4.8-4.6-2.7 0-4.8 2-4.8 4.6v24.4c0 1.3.5 2.4 1.4 3.3l11 10.6c.9.9 2.2 1.4 3.4 1.4s2.5-.5 3.4-1.4c1.9-1.8 1.9-4.7 0-6.6l-9.6-9.2z"/></g></svg>