<svg xmlns="http://www.w3.org/2000/svg" viewBox="258 173.5 325.9 248.2"><path fill="#FFF" d="M276.8 232.9v-50.7c0-4.4 3.6-8 8-8h270.8c4.4 0 8 3.6 8 8v193.4c0 4.4-3.6 8-8 8h-96.7c-4.4 0-8-3.6-8-8s3.6-8 8-8h88.7V190.3H292.8V233c0 4.4-3.6 8-8 8s-8-3.6-8-8.1zM265 267.6h50.9l22 35c1.6 2.6 4.5 4 7.5 3.7 3-.3 5.6-2.2 6.7-5l22-56.2 25.2 80.2c1 3.3 4.1 5.6 7.6 5.6h.3c3.6-.1 6.7-2.6 7.5-6.1l13.8-57h33.4c4.4 0 8-3.6 8-8s-3.6-8-8-8h-39.7c-3.7 0-6.9 2.5-7.8 6.1l-8.5 35.1-23.3-74.3c-1-3.2-4-5.5-7.4-5.6s-6.5 1.9-7.7 5.1L343 280.7l-15.9-25.3c-1.5-2.3-4-3.7-6.8-3.7H265c-4.4 0-8 3.6-8 8s3.6 7.9 8 7.9zm309.9 138.8H265.4c-4.4 0-8 3.6-8 8s3.6 8 8 8h309.5c4.4 0 8-3.6 8-8s-3.6-8-8-8zM284.8 279.2c-4.4 0-8 3.6-8 8v88.5c0 4.4 3.6 8 8 8h96.7c4.4 0 8-3.6 8-8s-3.6-8-8-8h-88.7v-80.5c0-4.4-3.6-8-8-8zm135.4 87.7c4.9 0 8.8 4 8.8 8.8 0 4.9-4 8.8-8.8 8.8-4.9 0-8.8-4-8.8-8.8-.1-4.9 3.9-8.8 8.8-8.8z"/></svg>