<svg id="Слой_1" xmlns="http://www.w3.org/2000/svg" viewBox="107.8 493.7 564.2 431.6"><style>.st0{fill:#fff}</style><circle class="st0" cx="141" cy="531.3" r="30.4"/><circle class="st0" cx="491.8" cy="806.6" r="30.4"/><path class="st0" d="M672 504.2c-.2-5.9-4.8-10.5-10.7-10.5H351.6c-5.7 0-10.3 4.4-10.7 9.9v73.1c0 5.7 4.8 10.5 10.7 10.5 5.9 0 10.7-4.6 10.7-10.5v-61.3h288.1v205.4H476.3c-5.9 0-10.7 4.8-10.7 10.7s4.8 10.7 10.7 10.7h184.8c5.9 0 10.7-4.8 10.7-10.7v-226c.2-.4.2-.8.2-1.3z"/><path class="st0" d="M484.9 689.4H612c4.2 0 7.3-2.9 7.3-6.3V549.4c-.2-2.1-1.7-4-3.8-5-.2 0-.2 0-.4-.2s-.4-.2-.8-.2c-.2 0-.4-.2-.8-.2H397.3c-.2 0-.4.2-.8.2-.2 0-.6.2-.8.2-.2 0-.2 0-.4.2-2.1 1-3.6 2.9-3.8 5v133.7c0 3.6 3.4 6.3 7.3 6.3h86.1zm-78.3-97.2v-36.1h198v120.7h-198v-84.6zM172.3 703.9l76.6 76.4c12.6 12.6 33 12.6 45.6 0 12.6-12.6 12.6-33 0-45.6L162.8 603.3l-1-1c-.2-.2-.4-.4-.6-.4l-.6-.6c-.2-.2-.4-.4-.8-.6-.2-.2-.4-.2-.4-.4-.2-.2-.6-.4-.8-.6-.2 0-.2-.2-.4-.2-.2-.2-.6-.4-.8-.6-.2 0-.2-.2-.4-.2-.2-.2-.6-.4-.8-.4s-.4-.2-.4-.2c-.2-.2-.6-.2-.8-.4-.2 0-.4-.2-.6-.2-.2-.2-.4-.2-.8-.4-.2 0-.4-.2-.6-.2-.2 0-.4-.2-.6-.2s-.6-.2-.8-.2-.4-.2-.6-.2-.6-.2-.8-.2-.4-.2-.6-.2c-.4 0-.6-.2-1-.2-.2 0-.4 0-.4-.2-.4 0-.6-.2-1-.2h-.6c-.4 0-.6-.2-1-.2h-.6c-.2 0-.6 0-.8-.2h-6.3c-.2 0-.6 0-.8.2h-.6c-.4 0-.6.2-1 .2h-.6c-.4 0-.6.2-1 .2-.2 0-.4 0-.4.2-.4 0-.6.2-1 .2-.2 0-.4 0-.6.2-.2 0-.6.2-.8.2s-.4.2-.6.2-.6.2-.8.2-.4.2-.6.2-.4.2-.6.2c-.2.2-.4.2-.8.4-.2 0-.4.2-.6.2-.2.2-.6.2-.8.4-.2 0-.4.2-.4.2-.2.2-.6.4-.8.4s-.2.2-.4.2c-.2.2-.6.4-.8.6-.2 0-.2.2-.4.2-.2.2-.6.4-.8.6s-.4.2-.4.4c-.2.2-.4.4-.8.6l-.6.6c-.2.2-.4.4-.6.4-.8.6-1.5 1.5-2.3 2.3-.2.2-.4.4-.4.6-.2.2-.4.4-.4.6-.2.2-.4.4-.6.8-.2.2-.2.4-.4.4-.2.2-.4.6-.6.8 0 .2-.2.2-.2.4-.2.2-.4.6-.6.8 0 .2-.2.2-.2.4-.2.2-.4.6-.4.8 0 .2-.2.4-.2.4-.2.2-.2.6-.4.8 0 .2-.2.4-.2.6-.2.2-.2.4-.4.8 0 .2-.2.4-.2.6-.2.2-.4.4-.4.6 0 .2-.2.6-.2.8 0 .2-.2.4-.2.6s-.2.6-.2.8c0 .2 0 .4-.2.6 0 .4-.2.6-.2 1 0 .2 0 .4-.2.4 0 .4-.2.6-.2 1v.6c0 .4-.2.6-.2 1v.6c0 .2 0 .6-.2.8v178.2h64.3V703h-2.6v.9z"/><path class="st0" d="M268 684.4c6.5 0 12-5 12.4-11.5v-24.1c0-15.5 12.8-28.1 28.3-28.1s28.3 12.6 28.3 28.1v101.4h.2v.6c0 29 23.7 52.5 53.1 52.5 29.2 0 53.1-23.5 53.1-52.5v-25.1c0-6.7-5.5-12.4-12.4-12.4-6.7 0-12.4 5.5-12.4 12.4v25.1c0 15.5-12.8 28.1-28.3 28.1S362 766.3 362 750.8V649.3h-.2v-.6c0-29-23.7-52.5-53.1-52.5-29.2 0-53.1 23.5-53.1 52.5v24.1c.4 6.6 5.9 11.6 12.4 11.6zm384.3 136.5c-41.8-14.7-91.5 2.7-93.6 3.6-33.4 12-65.1 32.3-93.2 59.6.2-1.9.4-3.6.4-5.5 0-25.6-20.8-46.2-46.2-46.2H119.8c-6.5 0-12 5.2-12 12s5.2 12 12 12h127v44.9h-127c-6.5 0-12 5.2-12 12 0 6.5 5.2 12 12 12h497.9c2.1 0 4.2-.2 5.7-1.5s4.4-4.6 5.2-5.7c8.2-12 35.7-58 39.5-69.1 1.3-3.8 2.7-9.2 0-14.7-3.9-8.4-12.3-12.2-15.8-13.4zm-1.3 22c-2.3 6.5-19.9 36.3-33.4 58.2h-144c27.3-27.5 58.4-48.1 90.9-59.6.4-.2 45.8-16.2 81.7-3.6 2.3.8 4.2 2.1 5.2 3.4 0 .2 0 .8-.4 1.6z"/></svg>