<svg id="Слой_1" data-name="Слой 1" xmlns="http://www.w3.org/2000/svg" width="411.75" height="386.05" viewBox="0 0 411.75 386.05">
  <defs>
    <style>
      .cls-1 {
        fill: #54514f;
      }

      .cls-2 {
        fill: #fefefe;
      }
    </style>
  </defs>
  <title>icon-crystal</title>
  <g id="Слой_1-2" data-name="Слой_1">
    <g id="_424753943360" data-name=" 424753943360">
      <g>
        <path class="cls-1" d="M173.14,395.66l18.45-47.17,128-29.23,11.88,10.86-8.33,23.27L212.26,385.54C198.43,389.48,185.73,394.21,173.14,395.66ZM399,68.77l7,5.84C410.77,96.29,446,142,443.85,158.83l-22.73,89.66c15.87,7.71,36.79,10.71,47.06,23.87l-19,32.49c7.23,4.48,34.64,2.24,47,4.34l60.52,52.47c2.38,2.66,1.42,1.13,2.72,3.37,7.26,12.27-38,59.19-49.07,70.07l-110.27-5.73c-6.07,2.78-27.3,20.64-35.26,25.46-16.92-9.47-32.29-32.51-49.41-46l-60.72,27.64c-17.29,8-33.82-.74-63.44-9.27-13.27-3.83-31.78-4.88-42.77-14.49-0.91-12.16,22.31-68.49,32.8-80.14l131.24-29.2,13.8-149.16c0.71-17.43-.11-16.38,15.45-32.29C356.6,106.75,384,74.21,399,68.77Zm15.11,66.13c11.4,22.85,13,15.59,6.94,39.2-27.1,106.16-25.46,79.46,10.46,99.27-16.67,13.66-43.46,24-56.18,41.41,10.6,13.66,28.57,7.77,55.16,9.47,75.46,4.85,43.88-10.8,104.17,42.63-14.46,6.75-52.16,5.61-71.12,7.91-80.31,9.78-71.6,3-68.77,35.26L372.9,427c-6.83-21.54-8.82-41.16-14.09-63.35-7.82-32.74-6.41-30,1.28-64.6,5-22.71,11.17-44.36,16.81-66,4.11-15.7,14.68-53.89,15.42-65.93L352,137.65l41.53-42.89C401.36,106.89,407.57,121.72,414.14,134.9Z" transform="translate(-148.45 -68.77)"/>
        <path class="cls-2" d="M352,137.65l40.31,29.45c-0.74,12-11.31,50.23-15.42,65.93-5.64,21.69-11.76,43.34-16.81,66-7.68,34.64-9.1,31.86-1.28,64.6,5.27,22.2,7.26,41.81,14.09,63.35l21.91-17c-2.83-32.23-11.54-25.48,68.77-35.26,19-2.3,56.66-1.16,71.12-7.91C474.41,313.46,506,329.1,430.53,324.26c-26.59-1.7-44.56,4.2-55.16-9.47,12.73-17.4,39.51-27.75,56.18-41.41-35.91-19.81-37.56,6.89-10.46-99.27,6-23.61,4.45-16.36-6.94-39.2-6.58-13.18-12.78-28-20.61-40.14Z" transform="translate(-148.45 -68.77)"/>
        <path class="cls-1" d="M197.46,216.62c-7.82-1.42-7.31-1.81-14.31-8.08,9.13-6.12,1.9-2,8-1.42l35.55-5.07,31.24,48.59,3.54,6.12c-4,1,3.83,6.15-5.56-.77Zm-40.34-18.48,5.7-6.8,41.19-3.2c13.18-1.64,30.25-8.59,39.4,5.44,12,18.34,45.55,68.09,50.57,82.52-9.41,11.59-12.13,8.67-24.63,6.12-8.5-1.76-17.57-2.86-26.93-4.22-12.64-1.81-43.34-4.79-53.55-9.5C181.64,256.71,159.08,207.78,157.12,198.14Z" transform="translate(-148.45 -68.77)"/>
        <path class="cls-2" d="M173.14,395.66c12.59-1.45,25.29-6.18,39.12-10.12L323.18,353.4l8.33-23.27-11.88-10.86-128,29.23Z" transform="translate(-148.45 -68.77)"/>
        <path class="cls-2" d="M191.14,207.13c-5.56,4.2-.74,3.57,6.32,9.5L255.91,256l2-5.36-31.24-48.59Z" transform="translate(-148.45 -68.77)"/>
      </g>
    </g>
  </g>
</svg>
