<svg xmlns="http://www.w3.org/2000/svg" viewBox="273.5 136.9 294.8 321.4"><path fill="#FFF" d="M373.8 171.7v-26.4c0-4.4 3.6-8 8-8h77.4c4.4 0 8 3.6 8 8v38.5c0 4.4-3.6 8-8 8s-8-3.6-8-8v-30.5h-61.4v18.4c0 4.4-3.6 8-8 8-4.5 0-8-3.6-8-8zm0 170c0 4.4 3.6 8 8 8s8-3.6 8-8v-18.3c0-4.4-3.6-8-8-8H289V254h92.8c4.4 0 8-3.6 8-8v-22.1c0-4.4-3.6-8-8-8s-8 3.6-8 8V238H281c-4.4 0-8 3.6-8 8v77.4c0 4.4 3.6 8 8 8h92.8v10.3zm85.3 35.7c-4.4 0-8 3.6-8 8v30.7h-61.4V401c0-4.4-3.6-8-8-8s-8 3.6-8 8v23.2c0 4.4 3.6 8 8 8h77.4c4.4 0 8-3.6 8-8v-38.7c0-4.5-3.6-8.1-8-8.1zM559.9 238h-45.4v-19c0-3.9-2.8-7.2-6.6-7.9l-149.1-26.5c-2.2-7.3-8.9-12.6-16.9-12.6-6.9 0-12.8 3.9-15.8 9.7h-3.8c-4.4 0-8 3.6-8 8s3.6 8 8 8h3.8c2.9 5.7 8.9 9.7 15.8 9.7 5.8 0 10.9-2.8 14.1-7l142.5 25.4v12.3h-31.4v-.2c0-4.4-3.6-8-8-8s-8 3.6-8 8v8.2c0 4.4 3.6 8 8 8h92.8v61.4h-92.8c-4.4 0-8 3.6-8 8v11.2c0 4.4 3.6 8 8 8s8-3.6 8-8v-3.2h31.4v12.9l-158 28.1c-3.8.7-6.6 4-6.6 7.9v43.3L321.6 447c-2.1 3.9-.6 8.7 3.3 10.8 1.2.6 2.5.9 3.7.9 2.9 0 5.6-1.6 7.1-4.3l13.2-25c.6-1.2.9-2.4.9-3.7V387l158-28.1c3.8-.7 6.6-4 6.6-7.9v-19.7h45.4c4.4 0 8-3.6 8-8V246c.1-4.4-3.5-8-7.9-8z"/></svg>