<svg xmlns="http://www.w3.org/2000/svg" viewBox="-138.1 83.2 296.3 430.1"><path fill="#FFF" d="M151.2 190.2c-1.5-5.7-4.6-11.9-6.9-17.2-27.6-66.1-87.7-89.8-136.2-89.8-65 0-136.6 43.6-146.1 133.4V235c0 .8.3 7.6.6 11.1 5.4 42.8 39.1 88.3 64.4 131.1 27.1 45.9 55.3 91 83.2 136.1 17.2-29.4 34.4-59.3 51.2-87.9 4.6-8.4 9.9-16.8 14.5-24.9 3.1-5.3 8.9-10.7 11.6-15.7 27.1-49.7 70.8-99.8 70.8-149.1v-20.3c-.1-5.3-6.7-24-7.1-25.2zm-142 92.2c-19.1 0-40-9.6-50.3-35.9-1.5-4.2-1.4-12.6-1.4-13.4v-11.9c0-33.6 28.6-48.9 53.4-48.9 30.6 0 54.2 24.5 54.2 55.1 0 30.5-25.3 55-55.9 55z"/></svg>