<?xml version="1.0" encoding="utf-8"?>
<!-- Generator: Adobe Illustrator 19.1.0, SVG Export Plug-In . SVG Version: 6.00 Build 0)  -->
<svg version="1.1" id="Слой_1" xmlns="http://www.w3.org/2000/svg" xmlns:xlink="http://www.w3.org/1999/xlink" x="0px" y="0px"
	 viewBox="0 0 142.8 135.8" style="enable-background:new 0 0 142.8 135.8;" xml:space="preserve">
<style type="text/css">
	.st0{fill:#93CE89;}
	.st1{fill:none;stroke:#000000;stroke-width:2;}
	.st2{fill:#FFFFFF;}
	.st3{fill:#78C26B;}
	.st4{fill:#FFFFFF;fill-opacity:0.4;}
	.st5{fill:#3599FD;stroke:#000000;stroke-width:1.5;}
	.st6{fill:#55B3FD;stroke:#000000;stroke-width:1.5;}
	.st7{fill:#3599FD;}
	.st8{fill:none;stroke:#000000;stroke-width:1.5;}
	.st9{fill:none;stroke:#000000;}
	.st10{fill:#55B3FD;}
	.st11{fill:none;stroke:#000000;stroke-width:0.7;}
	.st12{fill:#FFFFFF;stroke:#000000;stroke-width:0.5;}
	.st13{fill:none;stroke:#000000;stroke-width:0.5;}
	.st14{fill:none;stroke:#000000;stroke-width:1.5;stroke-linecap:round;}
	.st15{fill:#93CE89;stroke:#000000;stroke-width:1.5;}
	.st16{fill:#87C27D;}
	.st17{fill:none;stroke:#FFFFFF;stroke-width:2;stroke-linecap:round;}
	.st18{fill:#55B3FD;stroke:#000000;stroke-width:1.5;stroke-linecap:round;}
	.st19{fill:#2BA0FD;}
</style>
<g>
	<circle class="st7" cx="75.1" cy="77.1" r="47.1"/>
	<circle class="st8" cx="75.1" cy="77.1" r="47.1"/>
	<circle class="st9" cx="75.1" cy="77.1" r="47.1"/>
</g>
<g>
	<path class="st10" d="M106.9,78.3c-0.7,16.7-7.9,32.8-27.8,42.1c-2,1-8.4,3.9-10.6,3.6c-22.9-3.2-40.5-22.9-40.5-46.6
		c0-23.4,17.1-42.8,39.5-46.5c2.5-0.4,5.8,1,8.1,2.2C105,47.3,107.4,67.7,106.9,78.3z"/>
</g>
<g transform="translate(0.000000,512.000000) scale(0.100000,-0.100000)">
	<g>
		<path d="M535.7,4661c-4.1-3.8-6.2-9.3-5.4-14.9c0.9-6.1,1.5-12.4,1.7-16.3c0-7.4,1.6-12.8,4.7-17.3c4.5-5.8,4.5-7.2,2-17.8
			c-3.4-14.2-0.9-25.4,10.1-48.8c7.4-15.3,21.8-30.4,25.4-26.8c0.9,0.7,4.7,10.6,8.3,22l5,15.3c1.1,3.5,3.4,6.6,6.5,8.7l15.1,10.5
			c10.8,7.4,24.3,18.2,29.9,23.6l4.4,4.2c3.8,3.6,5.7,8.7,5.1,13.9l-0.8,7.8c-1.1,11.8-1,15.6-9.1,24c-5.1,5.2-8.4,10.2-5.1,16.7
			l-7,4.6l-28.9-1.4c-3.1-0.2-6.2,0.6-9,2.1v0c-15.7,8.6-35.2,6.3-48.4-5.8L535.7,4661z"/>
		<path d="M298.2,4474.8c5.2-8.3,7.2-17.1,8.2-31c2.1-26.8,5.4-36.9,23-68.1l16.5-28.8l1.9,7.2l2.1,7.2l5.2-10.3
			c6.2-12.8,10.7-16.6,24.9-21.1c6-1.8,14.6-6.7,19.3-10.8s11.4-9,15-11.2c15.4-9.2,17.4-15.3,11.8-36.4l-3.2-11.9l6.6-16.4
			c3.6-8.8,9.7-20.7,14-26.3c4.3-5.6,8.1-12.4,8.6-15.1c0.7-2.9-0.4-17.5-2.2-32.6c-4.1-35.5-7.5-74.2-7.5-89.1
			c0-9.7,0.9-12.8,5.8-19.6c5.1-7,18.9-14.8,21.3-12.1c0.4,0.7-0.4,5.2-1.9,10.3c-2.4,8.3-2.4,10.6,0.2,19.1
			c1.9,6.3,2.2,12.8,1.5,19.3l-1.3,10.1l14,16c7.9,8.8,19.5,23.6,26,32.8c6.4,9.2,17,23.6,23.6,31.9c12.9,16.2,15.9,22.9,21.3,48.6
			c2.4,11.5,3,18,1.7,20.7c-2.1,4.5-11.2,9.2-25.7,13.5c-8.1,2.2-12.4,5.6-24.5,19.1c-15.9,17.3-25.3,23.2-46.4,28.1
			c-9.7,2.2-12.2,2.2-17.2-0.9c-9.4-5.8-13.3-4.5-23,7.4c-6.9,8.5-9,12.8-9.6,19.3c-0.7,10.8-3.2,11.9-10.3,4.7
			c-9-9-12.2-8.5-15,3.1c-4.9,19.3,0.4,27,18.4,27c6.6,0,9.9-1.1,12-3.8c1.3-2.2,4.3-6.5,6.4-9.7l3.6-5.6l2.1,6.3
			c1.1,3.6,2.1,8.1,2.1,10.3c0,2.2,2.8,8.5,6.4,13.9c3.4,5.4,8.1,14.2,10.3,19.3c2.8,7,7.5,12.4,16.7,19.3
			c18,14.2,31.3,21.8,37.8,21.8c3.7,0,5.6,1.1,5.6,3.4c0,5.2-11,37.3-15.9,46.3c-2.2,4.3-6.9,14.4-10.3,22.3l-6,14.4l-4.1-6.1
			c-5.2-7.9-7.9-7.6-11.4,0.7c-4.7,11-21.5,18.2-24,10.3c-3-9.4-3.2-23.2-0.4-31.3c1.9-5.8,2.4-9.7,1.1-11.2c-0.9-1.6-2.2-6.5-3-11
			c-0.9-6.3-2.2-8.5-4.9-8.5c-2.4,0-3.6,2-3.9,8.5c-0.6,7.4-1.3,8.5-7.7,11c-3.9,1.6-10.9,5.6-15.5,8.8c-8.1,5.6-8.2,6.1-8.2,17.1
			c0,9.9,0.7,12.1,6.4,18.9c5.4,6.5,7.3,7.4,12.2,6.3c5.4-1.3,17,2.5,17,5.6c0,0.7-1.3,3.1-2.6,5.4c-2.2,3.6-2.2,5.4,0.2,12.4
			c3.4,9.9,1.1,21.6-5.8,29.5l-4.3,4.9l-10.7-6.3c-9.2-5.2-11-5.8-14.4-3.4c-3,2.2-5.2,2.5-10.5,0.2c-6.8-2.5-23.1-2.2-37,0.3"/>
		<path d="M1172.3,4450.3c-1.8-2.9-6.1-13-9.4-22.3c-7.2-19.6-8.5-21.4-19.3-28.3c-7-4.3-16-18.9-11.7-18.9c2.9,0,31.7,18.2,35.1,22
			c1.8,2,3.8,8.8,4.5,14.6c0.4,5.8,2.7,12.6,4.7,14.8c3.8,4.3,4.7,15.1,1.6,20.2C1176.1,4455.1,1175,4454.6,1172.3,4450.3z"/>
		<path d="M996,4269.8c2.7-4.7,8.5-14.2,13-20.9c7.6-11.2,9.2-12.4,16.2-11.9c4.3,0.2,12.8-1.6,18.9-4c10.1-4.3,11.5-4.5,13.7-1.1
			c1.6,2,5.6,3.4,10.3,3.1c11.9-0.4,17.8,3.8,17.8,12.8c0,16-6.3,18.9-19.6,8.8l-7.4-5.6v8.8c0,4.7-0.7,9.2-1.3,9.9
			c-2.5,2.7-20.9-5.4-24.5-10.8c-1.8-2.9-4.5-5.4-5.6-5.4c-1.3,0-9,5.6-17.3,12.4c-8.5,6.7-16.2,12.4-17.1,12.4
			C992,4278.1,993.3,4274.3,996,4269.8z"/>
		<path d="M1139.2,4267.5c0-2.2,3.4-5.2,8.1-7.2c5.4-2.2,7.6-4.5,6.7-6.7c-2-5.2,10.8-11.5,27.2-13.3c15.3-1.6,19.1-0.7,14.6,3.8
			c-1.6,1.6-2.7,4.3-2.7,6.1c-0.2,5.8-16,14.2-30.4,16.2c-7.4,0.9-15.7,2.5-18.4,3.4C1140.3,4270.9,1139.2,4270.2,1139.2,4267.5z"/>
		<path d="M1197.4,4197.8c-6.3,7-13.9,18.2-17.1,24.7c-2.9,6.7-6.1,12.4-7,12.8s-4-2-7.2-5.4c-7.9-8.8-14.4-9.4-15.3-1.3
			c-0.9,7.9-8.8,8.3-18,0.4c-3.8-3.1-9.2-5.6-12.4-5.6c-4,0-7.9-2.7-12.8-9c-4.5-5.8-9.9-9.7-15.3-11.2c-14.2-3.8-16-6.3-13.9-19.1
			c0.9-6.1,1.3-16.2,0.7-22c-2-17.1,4.9-18.9,33.1-9.4c23.6,8.1,25.9,7.6,40.7-7c11.9-11.7,13.5-12.6,24.1-12.8"/>
	</g>
	<g>
		<path class="st2" d="M1103.1,4652.3c-5.2,2-16.3,9-24.6,15.7c-16,13-28.2,18.9-38.3,18.4c-3.4,0-13.5-1.6-22.8-3.4
			c-23.5-4.3-34.7-9-43.7-18.9c-5.7-6.1-10.9-9-19.7-11l-12.2-2.7l1.8-12.1c1.8-13.5-0.5-15.7-9.8-8.5c-4.7,3.8-5.2,3.8-9.8-2
			c-4.1-4.9-6.7-5.8-12.4-4.9c-5.4,1.1-9.3-0.4-18.6-7.2c-6.2-4.5-15.5-9.7-20.4-11.5c-4.9-1.8-16.3-6.3-25.1-9.7
			c-22.5-9-34.2-11.5-40.1-8.8c-2.8,1.3-6.7,1.8-8.8,1.1c-6-2-16.3,3.6-35.7,19.8c-9.8,8.1-19.1,14.8-20.7,14.8
			c-3.1,0-70.6-59.4-81-71.3c-8.3-9.4-6.5-15.5,6.7-23.8c6.5-3.8,10.9-8.5,11.9-12.8c4.1-16.4,16.8-18,25.1-3.4
			c4.4,7.9,7,10.1,11.1,9.7c6.5-0.9,6.5-10.8,0-22.7c-3.6-7-5.7-8.3-12.7-8.3c-4.4,0-12.4,1.1-17.9,2.5c-9.6,2.2-9.8,2-26.6-11.2
			c-9.8-7.9-20.4-14.2-25.1-15.1c-12.4-2.2-12.4-2.5-5.7-13.7c3.6-5.6,5.7-11,4.9-12.1c-0.8-1.1-6.5-2-12.9-2
			c-10.1,0-11.9-0.7-14-5.8c-5.7-13,0-27.9,10.9-27.9c9.3,0,25.6,9.7,30.8,18.4c2.8,4.7,7,9.4,9.8,10.6c6,2.9,20.4-0.4,30-7
			c5.7-3.8,6.7-5.8,5.4-11.2l-1.6-6.7l9.3,4.9l9.6,4.7l5.7-4.7c6.5-5.4,13.2-5.8,15-1.1c1.3,2.7,2.6,2.7,8.5,0
			c3.9-1.6,11.6-3.8,17.1-4.5c12.7-2,17.1-8.1,11.4-16c-5.2-6.5-14.5-8.8-24.6-5.8c-4.4,1.3-14.2,1.8-22,1.1
			c-14-1.3-14-1.1-25.6,9.2c-11.4,10.1-12.2,10.3-27.4,10.3c-16.3,0-37.8-3.1-49.9-7.2c-10.3-3.4-36-34.2-40.9-49
			c-2.8-8.5,1.8-30.1,9.1-43c10.1-17.1,15.3-19.1,48.4-18.2c31.6,0.9,39.3-1.1,36.7-9.4c-0.8-3.1,1.3-11.9,5.2-21.4
			c6.7-16,24.8-88.8,24.8-99.6c0-9.7,5.7-11.9,22.3-8.8c17.3,3.4,29.5,13,34.4,27.4c5.7,17.1,10.6,23.8,21.2,29.9
			c10.1,5.8,10.1,5.8,10.1,21.1c0,25,2.1,30.6,16,44.8c15,15.3,24.6,28.8,25.9,36.4c0.8,5.2-0.5,5.8-14.7,8.1
			c-8.5,1.3-17.9,3.6-20.7,4.9c-7.5,3.6-25.6,33.5-21.5,35.8c1.6,0.9,3.9,0.2,5.2-1.6c1.3-1.8,6-8.8,10.6-15.5
			c4.7-6.7,11.4-13.7,15-15.5c6.2-2.9,8-2.7,21.5,2c17.9,6.3,27.4,12.4,27.4,17.8c0,6.3-10.1,16-16.6,16c-6.2,0-16.6,8.1-13.5,10.6
			c0.8,0.9,8-1.1,16-4.5c7.8-3.4,16-6.1,18.6-6.1c7.2,0,29.8-10.6,37.5-17.5c3.9-3.6,11.6-15.3,17.3-26.5
			c5.4-11,11.6-20.2,13.5-20.7c1.8-0.2,7.2,5.8,12.2,13.5c8.5,13.7,28.5,37.6,31.6,37.8c0.8,0,8-6.1,16-13.3
			c13.7-12.4,14.7-14.2,14.7-24.3v-10.8l6.2,6.7l6.5,6.7l4.1-4.9l4.1-5.2l9.8,4.3c15.5,7,17.3,9.9,11.9,20.7
			c-6.5,12.1-3.6,15.5,16,20.5c27.7,7.2,34.4,17.5,25.4,40c-4.7,11.2-3.9,14.6,5.2,23.2c8,7.4,12.7,5.8,10.9-3.8
			c-1.8-11-0.3-12.4,11.1-9.9c10.3,2.2,10.3,2.5,10.3,13.3c0,10.3,0.8,11.9,17.3,27.2c25.6,24.5,32.9,42.1,21.2,52.6
			c-5.2,4.7-5.2,5.2-1,10.8c6.2,8.1,21,15.5,30.5,15.3"/>
		<path class="st2" d="M535.7,4661c-4.1-3.8-6.2-9.3-5.4-14.9c0.9-6.1,1.5-12.4,1.7-16.3c0-7.4,1.6-12.8,4.7-17.3
			c4.5-5.8,4.5-7.2,2-17.8c-3.4-14.2-0.9-25.4,10.1-48.8c7.4-15.3,21.8-30.4,25.4-26.8c0.9,0.7,4.7,10.6,8.3,22l5,15.3
			c1.1,3.5,3.4,6.6,6.5,8.7l15.1,10.5c10.8,7.4,24.3,18.2,29.9,23.6l4.4,4.2c3.8,3.6,5.7,8.7,5.1,13.9l-0.8,7.8
			c-1.1,11.8-1,15.6-9.1,24c-5.1,5.2-8.4,10.2-5.1,16.7l-7,4.6l-28.9-1.4c-3.1-0.2-6.2,0.6-9,2.1v0c-15.7,8.6-35.2,6.3-48.4-5.8
			L535.7,4661z"/>
		<path class="st2" d="M298.2,4474.8c5.2-8.3,7.2-17.1,8.2-31c2.1-26.8,5.4-36.9,23-68.1l16.5-28.8l1.9,7.2l2.1,7.2l5.2-10.3
			c6.2-12.8,10.7-16.6,24.9-21.1c6-1.8,14.6-6.7,19.3-10.8s11.4-9,15-11.2c15.4-9.2,17.4-15.3,11.8-36.4l-3.2-11.9l6.6-16.4
			c3.6-8.8,9.7-20.7,14-26.3c4.3-5.6,8.1-12.4,8.6-15.1c0.7-2.9-0.4-17.5-2.2-32.6c-4.1-35.5-7.5-74.2-7.5-89.1
			c0-9.7,0.9-12.8,5.8-19.6c5.1-7,18.9-14.8,21.3-12.1c0.4,0.7-0.4,5.2-1.9,10.3c-2.4,8.3-2.4,10.6,0.2,19.1
			c1.9,6.3,2.2,12.8,1.5,19.3l-1.3,10.1l14,16c7.9,8.8,19.5,23.6,26,32.8c6.4,9.2,17,23.6,23.6,31.9c12.9,16.2,15.9,22.9,21.3,48.6
			c2.4,11.5,3,18,1.7,20.7c-2.1,4.5-11.2,9.2-25.7,13.5c-8.1,2.2-12.4,5.6-24.5,19.1c-15.9,17.3-25.3,23.2-46.4,28.1
			c-9.7,2.2-12.2,2.2-17.2-0.9c-9.4-5.8-13.3-4.5-23,7.4c-6.9,8.5-9,12.8-9.6,19.3c-0.7,10.8-3.2,11.9-10.3,4.7
			c-9-9-12.2-8.5-15,3.1c-4.9,19.3,0.4,27,18.4,27c6.6,0,9.9-1.1,12-3.8c1.3-2.2,4.3-6.5,6.4-9.7l3.6-5.6l2.1,6.3
			c1.1,3.6,2.1,8.1,2.1,10.3c0,2.2,2.8,8.5,6.4,13.9c3.4,5.4,8.1,14.2,10.3,19.3c2.8,7,7.5,12.4,16.7,19.3
			c18,14.2,31.3,21.8,37.8,21.8c3.7,0,5.6,1.1,5.6,3.4c0,5.2-11,37.3-15.9,46.3c-2.2,4.3-6.9,14.4-10.3,22.3l-6,14.4l-4.1-6.1
			c-5.2-7.9-7.9-7.6-11.4,0.7c-4.7,11-21.5,18.2-24,10.3c-3-9.4-3.2-23.2-0.4-31.3c1.9-5.8,2.4-9.7,1.1-11.2c-0.9-1.6-2.2-6.5-3-11
			c-0.9-6.3-2.2-8.5-4.9-8.5c-2.4,0-3.6,2-3.9,8.5c-0.6,7.4-1.3,8.5-7.7,11c-3.9,1.6-10.9,5.6-15.5,8.8c-8.1,5.6-8.2,6.1-8.2,17.1
			c0,9.9,0.7,12.1,6.4,18.9c5.4,6.5,7.3,7.4,12.2,6.3c5.4-1.3,17,2.5,17,5.6c0,0.7-1.3,3.1-2.6,5.4c-2.2,3.6-2.2,5.4,0.2,12.4
			c3.4,9.9,1.1,21.6-5.8,29.5l-4.3,4.9l-10.7-6.3c-9.2-5.2-11-5.8-14.4-3.4c-3,2.2-5.2,2.5-10.5,0.2c-6.8-2.5-23.1-2.2-37,0.3"/>
		<path class="st2" d="M1172.3,4450.3c-1.8-2.9-6.1-13-9.4-22.3c-7.2-19.6-8.5-21.4-19.3-28.3c-7-4.3-16-18.9-11.7-18.9
			c2.9,0,31.7,18.2,35.1,22c1.8,2,3.8,8.8,4.5,14.6c0.4,5.8,2.7,12.6,4.7,14.8c3.8,4.3,4.7,15.1,1.6,20.2
			C1176.1,4455.1,1175,4454.6,1172.3,4450.3z"/>
		<path class="st2" d="M996,4269.8c2.7-4.7,8.5-14.2,13-20.9c7.6-11.2,9.2-12.4,16.2-11.9c4.3,0.2,12.8-1.6,18.9-4
			c10.1-4.3,11.5-4.5,13.7-1.1c1.6,2,5.6,3.4,10.3,3.1c11.9-0.4,17.8,3.8,17.8,12.8c0,16-6.3,18.9-19.6,8.8l-7.4-5.6v8.8
			c0,4.7-0.7,9.2-1.3,9.9c-2.5,2.7-20.9-5.4-24.5-10.8c-1.8-2.9-4.5-5.4-5.6-5.4c-1.3,0-9,5.6-17.3,12.4
			c-8.5,6.7-16.2,12.4-17.1,12.4C992,4278.1,993.3,4274.3,996,4269.8z"/>
		<path class="st2" d="M1139.2,4267.5c0-2.2,3.4-5.2,8.1-7.2c5.4-2.2,7.6-4.5,6.7-6.7c-2-5.2,10.8-11.5,27.2-13.3
			c15.3-1.6,19.1-0.7,14.6,3.8c-1.6,1.6-2.7,4.3-2.7,6.1c-0.2,5.8-16,14.2-30.4,16.2c-7.4,0.9-15.7,2.5-18.4,3.4
			C1140.3,4270.9,1139.2,4270.2,1139.2,4267.5z"/>
		<path class="st2" d="M1197.4,4197.8c-6.3,7-13.9,18.2-17.1,24.7c-2.9,6.7-6.1,12.4-7,12.8s-4-2-7.2-5.4
			c-7.9-8.8-14.4-9.4-15.3-1.3c-0.9,7.9-8.8,8.3-18,0.4c-3.8-3.1-9.2-5.6-12.4-5.6c-4,0-7.9-2.7-12.8-9c-4.5-5.8-9.9-9.7-15.3-11.2
			c-14.2-3.8-16-6.3-13.9-19.1c0.9-6.1,1.3-16.2,0.7-22c-2-17.1,4.9-18.9,33.1-9.4c23.6,8.1,25.9,7.6,40.7-7
			c11.9-11.7,13.5-12.6,24.1-12.8"/>
	</g>
	<g>
		<path class="st11" d="M1103.1,4652.3c-5.2,2-16.3,9-24.6,15.7c-16,13-28.2,18.9-38.3,18.4c-3.4,0-13.5-1.6-22.8-3.4
			c-23.5-4.3-34.7-9-43.7-18.9c-5.7-6.1-10.9-9-19.7-11l-12.2-2.7l1.8-12.1c1.8-13.5-0.5-15.7-9.8-8.5c-4.7,3.8-5.2,3.8-9.8-2
			c-4.1-4.9-6.7-5.8-12.4-4.9c-5.4,1.1-9.3-0.4-18.6-7.2c-6.2-4.5-15.5-9.7-20.4-11.5c-4.9-1.8-16.3-6.3-25.1-9.7
			c-22.5-9-34.2-11.5-40.1-8.8c-2.8,1.3-6.7,1.8-8.8,1.1c-6-2-16.3,3.6-35.7,19.8c-9.8,8.1-19.1,14.8-20.7,14.8
			c-3.1,0-70.6-59.4-81-71.3c-8.3-9.4-6.5-15.5,6.7-23.8c6.5-3.8,10.9-8.5,11.9-12.8c4.1-16.4,16.8-18,25.1-3.4
			c4.4,7.9,7,10.1,11.1,9.7c6.5-0.9,6.5-10.8,0-22.7c-3.6-7-5.7-8.3-12.7-8.3c-4.4,0-12.4,1.1-17.9,2.5c-9.6,2.2-9.8,2-26.6-11.2
			c-9.8-7.9-20.4-14.2-25.1-15.1c-12.4-2.2-12.4-2.5-5.7-13.7c3.6-5.6,5.7-11,4.9-12.1c-0.8-1.1-6.5-2-12.9-2
			c-10.1,0-11.9-0.7-14-5.8c-5.7-13,0-27.9,10.9-27.9c9.3,0,25.6,9.7,30.8,18.4c2.8,4.7,7,9.4,9.8,10.6c6,2.9,20.4-0.4,30-7
			c5.7-3.8,6.7-5.8,5.4-11.2l-1.6-6.7l9.3,4.9l9.6,4.7l5.7-4.7c6.5-5.4,13.2-5.8,15-1.1c1.3,2.7,2.6,2.7,8.5,0
			c3.9-1.6,11.6-3.8,17.1-4.5c12.7-2,17.1-8.1,11.4-16c-5.2-6.5-14.5-8.8-24.6-5.8c-4.4,1.3-14.2,1.8-22,1.1
			c-14-1.3-14-1.1-25.6,9.2c-11.4,10.1-12.2,10.3-27.4,10.3c-16.3,0-37.8-3.1-49.9-7.2c-10.3-3.4-36-34.2-40.9-49
			c-2.8-8.5,1.8-30.1,9.1-43c10.1-17.1,15.3-19.1,48.4-18.2c31.6,0.9,39.3-1.1,36.7-9.4c-0.8-3.1,1.3-11.9,5.2-21.4
			c6.7-16,24.8-88.8,24.8-99.6c0-9.7,5.7-11.9,22.3-8.8c17.3,3.4,29.5,13,34.4,27.4c5.7,17.1,10.6,23.8,21.2,29.9
			c10.1,5.8,10.1,5.8,10.1,21.1c0,25,2.1,30.6,16,44.8c15,15.3,24.6,28.8,25.9,36.4c0.8,5.2-0.5,5.8-14.7,8.1
			c-8.5,1.3-17.9,3.6-20.7,4.9c-7.5,3.6-25.6,33.5-21.5,35.8c1.6,0.9,3.9,0.2,5.2-1.6c1.3-1.8,6-8.8,10.6-15.5
			c4.7-6.7,11.4-13.7,15-15.5c6.2-2.9,8-2.7,21.5,2c17.9,6.3,27.4,12.4,27.4,17.8c0,6.3-10.1,16-16.6,16c-6.2,0-16.6,8.1-13.5,10.6
			c0.8,0.9,8-1.1,16-4.5c7.8-3.4,16-6.1,18.6-6.1c7.2,0,29.8-10.6,37.5-17.5c3.9-3.6,11.6-15.3,17.3-26.5
			c5.4-11,11.6-20.2,13.5-20.7c1.8-0.2,7.2,5.8,12.2,13.5c8.5,13.7,28.5,37.6,31.6,37.8c0.8,0,8-6.1,16-13.3
			c13.7-12.4,14.7-14.2,14.7-24.3v-10.8l6.2,6.7l6.5,6.7l4.1-4.9l4.1-5.2l9.8,4.3c15.5,7,17.3,9.9,11.9,20.7
			c-6.5,12.1-3.6,15.5,16,20.5c27.7,7.2,34.4,17.5,25.4,40c-4.7,11.2-3.9,14.6,5.2,23.2c8,7.4,12.7,5.8,10.9-3.8
			c-1.8-11-0.3-12.4,11.1-9.9c10.3,2.2,10.3,2.5,10.3,13.3c0,10.3,0.8,11.9,17.3,27.2c25.6,24.5,32.9,42.1,21.2,52.6
			c-5.2,4.7-5.2,5.2-1,10.8c6.2,8.1,21,15.5,30.5,15.3"/>
		<path class="st11" d="M535.7,4661c-4.1-3.8-6.2-9.3-5.4-14.9c0.9-6.1,1.5-12.4,1.7-16.3c0-7.4,1.6-12.8,4.7-17.3
			c4.5-5.8,4.5-7.2,2-17.8c-3.4-14.2-0.9-25.4,10.1-48.8c7.4-15.3,21.8-30.4,25.4-26.8c0.9,0.7,4.7,10.6,8.3,22l5,15.3
			c1.1,3.5,3.4,6.6,6.5,8.7l15.1,10.5c10.8,7.4,24.3,18.2,29.9,23.6l4.4,4.2c3.8,3.6,5.7,8.7,5.1,13.9l-0.8,7.8
			c-1.1,11.8-1,15.6-9.1,24c-5.1,5.2-8.4,10.2-5.1,16.7l-7,4.6l-28.9-1.4c-3.1-0.2-6.2,0.6-9,2.1v0c-15.7,8.6-35.2,6.3-48.4-5.8
			L535.7,4661z"/>
		<path class="st11" d="M298.2,4474.8c5.2-8.3,7.2-17.1,8.2-31c2.1-26.8,5.4-36.9,23-68.1l16.5-28.8l1.9,7.2l2.1,7.2l5.2-10.3
			c6.2-12.8,10.7-16.6,24.9-21.1c6-1.8,14.6-6.7,19.3-10.8s11.4-9,15-11.2c15.4-9.2,17.4-15.3,11.8-36.4l-3.2-11.9l6.6-16.4
			c3.6-8.8,9.7-20.7,14-26.3c4.3-5.6,8.1-12.4,8.6-15.1c0.7-2.9-0.4-17.5-2.2-32.6c-4.1-35.5-7.5-74.2-7.5-89.1
			c0-9.7,0.9-12.8,5.8-19.6c5.1-7,18.9-14.8,21.3-12.1c0.4,0.7-0.4,5.2-1.9,10.3c-2.4,8.3-2.4,10.6,0.2,19.1
			c1.9,6.3,2.2,12.8,1.5,19.3l-1.3,10.1l14,16c7.9,8.8,19.5,23.6,26,32.8c6.4,9.2,17,23.6,23.6,31.9c12.9,16.2,15.9,22.9,21.3,48.6
			c2.4,11.5,3,18,1.7,20.7c-2.1,4.5-11.2,9.2-25.7,13.5c-8.1,2.2-12.4,5.6-24.5,19.1c-15.9,17.3-25.3,23.2-46.4,28.1
			c-9.7,2.2-12.2,2.2-17.2-0.9c-9.4-5.8-13.3-4.5-23,7.4c-6.9,8.5-9,12.8-9.6,19.3c-0.7,10.8-3.2,11.9-10.3,4.7
			c-9-9-12.2-8.5-15,3.1c-4.9,19.3,0.4,27,18.4,27c6.6,0,9.9-1.1,12-3.8c1.3-2.2,4.3-6.5,6.4-9.7l3.6-5.6l2.1,6.3
			c1.1,3.6,2.1,8.1,2.1,10.3c0,2.2,2.8,8.5,6.4,13.9c3.4,5.4,8.1,14.2,10.3,19.3c2.8,7,7.5,12.4,16.7,19.3
			c18,14.2,31.3,21.8,37.8,21.8c3.7,0,5.6,1.1,5.6,3.4c0,5.2-11,37.3-15.9,46.3c-2.2,4.3-6.9,14.4-10.3,22.3l-6,14.4l-4.1-6.1
			c-5.2-7.9-7.9-7.6-11.4,0.7c-4.7,11-21.5,18.2-24,10.3c-3-9.4-3.2-23.2-0.4-31.3c1.9-5.8,2.4-9.7,1.1-11.2c-0.9-1.6-2.2-6.5-3-11
			c-0.9-6.3-2.2-8.5-4.9-8.5c-2.4,0-3.6,2-3.9,8.5c-0.6,7.4-1.3,8.5-7.7,11c-3.9,1.6-10.9,5.6-15.5,8.8c-8.1,5.6-8.2,6.1-8.2,17.1
			c0,9.9,0.7,12.1,6.4,18.9c5.4,6.5,7.3,7.4,12.2,6.3c5.4-1.3,17,2.5,17,5.6c0,0.7-1.3,3.1-2.6,5.4c-2.2,3.6-2.2,5.4,0.2,12.4
			c3.4,9.9,1.1,21.6-5.8,29.5l-4.3,4.9l-10.7-6.3c-9.2-5.2-11-5.8-14.4-3.4c-3,2.2-5.2,2.5-10.5,0.2c-6.8-2.5-23.1-2.2-37,0.3"/>
		<path class="st11" d="M1172.3,4450.3c-1.8-2.9-6.1-13-9.4-22.3c-7.2-19.6-8.5-21.4-19.3-28.3c-7-4.3-16-18.9-11.7-18.9
			c2.9,0,31.7,18.2,35.1,22c1.8,2,3.8,8.8,4.5,14.6c0.4,5.8,2.7,12.6,4.7,14.8c3.8,4.3,4.7,15.1,1.6,20.2
			C1176.1,4455.1,1175,4454.6,1172.3,4450.3z"/>
		<path class="st11" d="M996,4269.8c2.7-4.7,8.5-14.2,13-20.9c7.6-11.2,9.2-12.4,16.2-11.9c4.3,0.2,12.8-1.6,18.9-4
			c10.1-4.3,11.5-4.5,13.7-1.1c1.6,2,5.6,3.4,10.3,3.1c11.9-0.4,17.8,3.8,17.8,12.8c0,16-6.3,18.9-19.6,8.8l-7.4-5.6v8.8
			c0,4.7-0.7,9.2-1.3,9.9c-2.5,2.7-20.9-5.4-24.5-10.8c-1.8-2.9-4.5-5.4-5.6-5.4c-1.3,0-9,5.6-17.3,12.4
			c-8.5,6.7-16.2,12.4-17.1,12.4C992,4278.1,993.3,4274.3,996,4269.8z"/>
		<path class="st11" d="M1139.2,4267.5c0-2.2,3.4-5.2,8.1-7.2c5.4-2.2,7.6-4.5,6.7-6.7c-2-5.2,10.8-11.5,27.2-13.3
			c15.3-1.6,19.1-0.7,14.6,3.8c-1.6,1.6-2.7,4.3-2.7,6.1c-0.2,5.8-16,14.2-30.4,16.2c-7.4,0.9-15.7,2.5-18.4,3.4
			C1140.3,4270.9,1139.2,4270.2,1139.2,4267.5z"/>
		<path class="st11" d="M1197.4,4197.8c-6.3,7-13.9,18.2-17.1,24.7c-2.9,6.7-6.1,12.4-7,12.8s-4-2-7.2-5.4
			c-7.9-8.8-14.4-9.4-15.3-1.3c-0.9,7.9-8.8,8.3-18,0.4c-3.8-3.1-9.2-5.6-12.4-5.6c-4,0-7.9-2.7-12.8-9c-4.5-5.8-9.9-9.7-15.3-11.2
			c-14.2-3.8-16-6.3-13.9-19.1c0.9-6.1,1.3-16.2,0.7-22c-2-17.1,4.9-18.9,33.1-9.4c23.6,8.1,25.9,7.6,40.7-7
			c11.9-11.7,13.5-12.6,24.1-12.8"/>
	</g>
</g>
<g>
	<circle class="st8" cx="75.1" cy="77.3" r="47.1"/>
</g>
<path class="st15" d="M16.8,41.1c2.2,6.5,21.1,25.4,23.2,27.6c0.1,0.1,0.2,0,0.2-0.1c0.4-3,3.7-29.5,1.5-36
	C39.4,25.6,31.9,22,25,24.3C18.2,26.7,14.5,34.2,16.8,41.1z M24.4,39.9c-2.3-3.7,0-8.5,4.4-8.9c2.2-0.2,4.4,0.8,5.5,2.7
	c2.3,3.7,0,8.5-4.4,9C27.7,42.9,25.5,41.8,24.4,39.9z"/>
<path class="st16" d="M27.5,31.5c0.4-0.1,0.9-0.2,1.3-0.3c2.2-0.2,4.4,0.8,5.5,2.7c2,3.3,0.4,7.5-3.1,8.7l8.9,26.3
	c0.1,0.1,0.2,0,0.2-0.1c0.4-3,3.7-29.5,1.5-36c-2.4-6.9-9.9-10.6-16.7-8.2L27.5,31.5z"/>
<path class="st8" d="M16.8,41c2.2,6.5,21.1,25.4,23.2,27.6c0.1,0.1,0.2,0,0.2-0.1c0.4-3,3.7-29.5,1.5-36c-2.4-6.9-9.9-10.6-16.7-8.2
	C18.1,26.6,14.5,34.1,16.8,41z M24.3,39.8c-2.3-3.7,0-8.5,4.4-8.9c2.2-0.2,4.4,0.8,5.5,2.7c2.3,3.7,0,8.5-4.4,9
	C27.7,42.8,25.5,41.7,24.3,39.8z"/>
<g>
	<path class="st15" d="M59.3,23.7c0.1,6.9,12,30.8,13.4,33.5c0.1,0.1,0.2,0.1,0.2,0c1.3-2.7,12.8-26.9,12.8-33.7
		c-0.1-7.3-6-13.1-13.3-13.1C65.1,10.5,59.3,16.4,59.3,23.7z M66.8,25c-1-4.3,2.7-8,7-7.1c2.2,0.5,3.9,2.2,4.4,4.3
		c1,4.3-2.7,8-7,7.1C69.1,28.9,67.3,27.1,66.8,25z"/>
	<path class="st16" d="M72.4,18c0.4,0,0.9,0,1.4,0.1c2.2,0.5,3.9,2.2,4.4,4.3c0.9,3.8-2,7.2-5.7,7.2l0.2,27.8c0.1,0.1,0.2,0.1,0.2,0
		c1.3-2.7,12.8-26.9,12.8-33.7c-0.1-7.3-6-13.1-13.3-13.1L72.4,18z"/>
	<path class="st8" d="M59.3,23.6c0.1,6.9,12,30.8,13.4,33.5c0.1,0.1,0.2,0.1,0.2,0c1.3-2.7,12.8-26.9,12.8-33.7
		c-0.1-7.3-6-13.1-13.3-13.1C65.1,10.4,59.3,16.4,59.3,23.6z M66.8,24.9c-1-4.3,2.7-8,7-7.1c2.2,0.5,3.9,2.2,4.4,4.3
		c1,4.3-2.7,8-7,7.1C69.1,28.8,67.3,27.1,66.8,24.9z"/>
	<path class="st17" d="M62.8,25.5c-1.1-5,2.1-9.9,7.1-11"/>
</g>
<g>
	<path class="st15" d="M102.9,32.8c-2.2,6.5,1.1,33,1.5,36c0,0.1,0.2,0.2,0.2,0.1c2.1-2.1,21-21.1,23.2-27.6
		c2.3-6.9-1.3-14.4-8.2-16.7C112.8,22.2,105.3,25.9,102.9,32.8z M109.6,36.4c0.5-4.3,5.2-6.7,8.9-4.4c1.9,1.1,3,3.3,2.7,5.5
		c-0.5,4.4-5.2,6.7-8.9,4.4C110.4,40.8,109.3,38.6,109.6,36.4z"/>
	<path class="st16" d="M117.2,31.7c0.4,0.1,0.8,0.3,1.2,0.6c1.9,1.1,3,3.3,2.7,5.5c-0.4,3.9-4.3,6.1-7.8,5l-9,26.3
		c0,0.1,0.2,0.2,0.2,0.1c2.1-2.1,21-21.1,23.2-27.6c2.3-6.9-1.3-14.4-8.2-16.7L117.2,31.7z"/>
	<path class="st8" d="M103,32.7c-2.2,6.5,1.1,33,1.5,36c0,0.1,0.2,0.2,0.2,0.1c2.1-2.1,21-21.1,23.2-27.6c2.3-6.9-1.3-14.4-8.2-16.7
		C112.8,22.1,105.3,25.8,103,32.7z M109.6,36.4c0.5-4.3,5.2-6.7,8.9-4.4c1.9,1.1,3,3.3,2.7,5.5c-0.5,4.4-5.2,6.7-8.9,4.4
		C110.5,40.8,109.4,38.6,109.6,36.4z"/>
	<path class="st17" d="M105.6,35.6c0.6-5.1,5.2-8.7,10.3-8.1"/>
</g>
<path class="st17" d="M20.9,41.2c-2.6-4.4-1.1-10.1,3.3-12.7"/>
</svg>
