<?xml version="1.0" encoding="utf-8"?>
<!-- Generator: Adobe Illustrator 19.1.0, SVG Export Plug-In . SVG Version: 6.00 Build 0)  -->
<svg version="1.1" id="Слой_1" xmlns="http://www.w3.org/2000/svg" xmlns:xlink="http://www.w3.org/1999/xlink" x="0px" y="0px"
	 viewBox="-217 220.7 132.7 126.2" style="enable-background:new -217 220.7 132.7 126.2;" xml:space="preserve">
<style type="text/css">
	.st0{fill:#55B3FD;}
	.st1{fill:#3599FD;stroke:#000000;stroke-width:1.5;}
	.st2{fill:#93CE89;stroke:#000000;stroke-width:1.5;}
	.st3{fill:#2BA0FD;}
	.st4{fill:#87C27D;}
	.st5{fill:none;stroke:#000000;stroke-width:1.5;}
</style>
<g>
	<g>
		<path class="st0" d="M-150.2,268.5c2.8,0,5.4,0.1,7.7,0.3v5.2c-2.3-0.2-4.9-0.3-7.7-0.3s-5.4,0.1-7.7,0.3v-5.2
			C-155.6,268.6-153,268.5-150.2,268.5z M-176.4,266.6c0.6-0.2,1.4-0.5,2.2-0.8c1.9-0.6,3.2-2.1,3.6-4l2.6-12.2
			c3.1-1.1,9.3-2.7,17.8-2.7s14.7,1.7,17.8,2.7l2.6,12.2c0.4,1.9,1.8,3.4,3.6,4c0.8,0.3,1.6,0.5,2.2,0.8l4,18.7c2.1,1,4.2,2,6.2,3.1
			l-5-23.8c-0.3-1.2-1.1-2.2-2.3-2.7c-0.9-0.3-2-0.8-3.4-1.2l-2.8-13.1c-0.3-1.2-1.1-2.3-2.3-2.7c-2.3-0.9-6.8-2.3-12.8-3v-12.1
			c0-2.1-1.7-3.9-3.9-3.9h-7.7c-2.1,0-3.9,1.7-3.9,3.9v12.1c-6.1,0.7-10.5,2.1-12.8,3c-1.2,0.4-2.1,1.5-2.3,2.7l-2.8,13.1
			c-1.4,0.4-2.5,0.9-3.4,1.2c-1.2,0.5-2,1.5-2.3,2.7l-5,23.8c2-1,4.1-2.1,6.2-3.1L-176.4,266.6z M-138.1,254.4
			c-2.7-0.8-6.7-1.4-12.1-1.4s-9.3,0.7-12.1,1.4l-1,5.3c2.8-0.9,6.9-1.7,13-1.7c6.1,0,10.3,0.8,13,1.7L-138.1,254.4z M-104.4,300.6
			c-11.9-8.5-39.4-20.5-45.8-20.5c-6.4,0-33.9,12-45.8,20.5c-0.3,0.2-0.5,0.6-0.6,0.9c0,0.4,0.1,0.8,0.3,1
			c4.3,4.9,7.6,11.2,9.7,18.4c0.6,2,2.1,3.5,4,4.3c6.8,2.5,20.5,7.2,30.2,15.8c0.6,0.6,1.4,0.9,2.2,0.9s1.6-0.3,2.2-0.9
			c9.7-8.6,23.4-13.3,30.2-15.8c1.9-0.7,3.4-2.3,4-4.3c2.1-7.2,5.4-13.5,9.7-18.4c0.2-0.3,0.4-0.7,0.3-1
			C-103.8,301.1-104,300.8-104.4,300.6z M-161.8,307.1c-2.2,0-4.1-2.6-4.1-5.8c0-3.2,1.8-5.8,4.1-5.8c2.2,0,4.1,2.6,4.1,5.8
			C-157.7,304.5-159.6,307.1-161.8,307.1z M-138.6,307.1c-2.2,0-4.1-2.6-4.1-5.8c0-3.2,1.8-5.8,4.1-5.8c2.2,0,4.1,2.6,4.1,5.8
			C-134.5,304.5-136.4,307.1-138.6,307.1z M-172.7,277.4c2.4-1,6-2.1,10.9-2.9v-5.2c-4.3,0.6-7.5,1.6-9.9,2.5L-172.7,277.4z
			 M-128.7,271.8c-2.4-0.9-5.6-1.8-9.9-2.5v5.2c4.9,0.7,8.5,1.9,10.9,2.9L-128.7,271.8z"/>
	</g>
</g>
<g>
	<path class="st1" d="M-150.2,341.9c0.8,0,1.6-0.3,2.2-0.9c9.7-8.6,23.4-13.3,30.2-15.8c1.9-0.7,3.4-2.3,4-4.3
		c2.1-7.2,5.4-13.5,9.7-18.4c0.2-0.3,0.4-0.7,0.3-1c0-0.4-0.2-0.7-0.6-0.9c-11.9-8.5-39.4-20.5-45.8-20.5 M-138.6,307.1
		c-2.2,0-4.1-2.6-4.1-5.8c0-3.2,1.8-5.8,4.1-5.8c2.2,0,4.1,2.6,4.1,5.8C-134.6,304.5-136.4,307.1-138.6,307.1z"/>
</g>
<path class="st2" d="M-150.2,268.5c2.8,0,5.4,0.1,7.7,0.3v5.2c-2.3-0.2-4.9-0.3-7.7-0.3s-5.4,0.1-7.7,0.3v-5.2
	C-155.6,268.6-153,268.5-150.2,268.5z"/>
<path class="st0" d="M-176.4,266.6c0.6-0.2,1.4-0.5,2.2-0.8c1.9-0.6,3.2-2.1,3.6-4l2.6-12.2c3.1-1.1,9.3-2.7,17.8-2.7
	s14.7,1.7,17.8,2.7l2.6,12.2c0.4,1.9,1.8,3.4,3.6,4c0.8,0.3,1.6,0.5,2.2,0.8l4,18.7c2.1,1,4.2,2,6.2,3.1l-5-23.8
	c-0.3-1.2-1.1-2.2-2.3-2.7c-0.9-0.3-2-0.8-3.4-1.2l-2.8-13.1c-0.3-1.2-1.1-2.3-2.3-2.7c-2.3-0.9-6.8-2.3-12.8-3v-12.1
	c0-2.1-1.7-3.9-3.9-3.9h-7.7c-2.1,0-3.9,1.7-3.9,3.9v12.1c-6.1,0.7-10.5,2.1-12.8,3c-1.2,0.4-2.1,1.5-2.3,2.7l-2.8,13.1
	c-1.4,0.4-2.5,0.9-3.4,1.2c-1.2,0.5-2,1.5-2.3,2.7l-5,23.8c2-1,4.1-2.1,6.2-3.1L-176.4,266.6z"/>
<path class="st2" d="M-138.1,254.4c-2.7-0.8-6.7-1.4-12.1-1.4s-9.3,0.7-12.1,1.4l-1,5.3c2.8-0.9,6.9-1.7,13-1.7
	c6.1,0,10.3,0.8,13,1.7L-138.1,254.4z"/>
<path class="st2" d="M-172.7,277.4c2.4-1,6-2.1,10.9-2.9v-5.2c-4.3,0.6-7.5,1.6-9.9,2.5L-172.7,277.4z"/>
<path class="st3" d="M-128.7,271.8c-2.4-0.9-5.6-1.8-9.9-2.5v5.2c4.9,0.7,8.5,1.9,10.9,2.9L-128.7,271.8z"/>
<path class="st4" d="M-150.2,268.5c2.8,0,5.4,0.1,7.7,0.3v5.2c-2.3-0.2-4.9-0.3-7.7-0.3"/>
<path class="st1" d="M-150.2,246.8c8.5,0,14.7,1.7,17.8,2.7l2.6,12.2c0.4,1.9,1.8,3.4,3.6,4c0.8,0.3,1.6,0.5,2.2,0.8l3.9,18.7
	c2.1,1,4.2,2,6.2,3.1l-5-23.8c-0.3-1.2-1.1-2.2-2.3-2.7c-0.9-0.3-2-0.8-3.4-1.2l-2.8-13.1c-0.3-1.2-1.1-2.3-2.3-2.7
	c-2.3-0.9-6.8-2.3-12.8-3v-12c0-2.1-1.7-3.9-3.9-3.9h-3.9"/>
<path class="st4" d="M-150.2,258c6.1,0,10.3,0.8,13,1.7l-1-5.3c-2.7-0.8-6.7-1.4-12.1-1.4"/>
<path class="st4" d="M-128.7,271.8c-2.4-0.9-5.6-1.8-9.9-2.5v5.2c4.9,0.7,8.5,1.9,10.9,2.9L-128.7,271.8z"/>
<g>
	<path class="st5" d="M-150.2,268.5c2.8,0,5.4,0.1,7.7,0.3v5.2c-2.3-0.2-4.9-0.3-7.7-0.3s-5.4,0.1-7.7,0.3v-5.2
		C-155.6,268.6-153,268.5-150.2,268.5z M-176.4,266.6c0.6-0.2,1.4-0.5,2.2-0.8c1.9-0.6,3.2-2.1,3.6-4l2.6-12.2
		c3.1-1.1,9.3-2.7,17.8-2.7s14.7,1.7,17.8,2.7l2.6,12.2c0.4,1.9,1.8,3.4,3.6,4c0.8,0.3,1.6,0.5,2.2,0.8l4,18.7c2.1,1,4.2,2,6.2,3.1
		l-5-23.8c-0.3-1.2-1.1-2.2-2.3-2.7c-0.9-0.3-2-0.8-3.4-1.2l-2.8-13.1c-0.3-1.2-1.1-2.3-2.3-2.7c-2.3-0.9-6.8-2.3-12.8-3v-12.1
		c0-2.1-1.7-3.9-3.9-3.9h-7.7c-2.1,0-3.9,1.7-3.9,3.9v12.1c-6.1,0.7-10.5,2.1-12.8,3c-1.2,0.4-2.1,1.5-2.3,2.7l-2.8,13.1
		c-1.4,0.4-2.5,0.9-3.4,1.2c-1.2,0.5-2,1.5-2.3,2.7l-5,23.8c2-1,4.1-2.1,6.2-3.1L-176.4,266.6z M-138.1,254.4
		c-2.7-0.8-6.7-1.4-12.1-1.4s-9.3,0.7-12.1,1.4l-1,5.3c2.8-0.9,6.9-1.7,13-1.7c6.1,0,10.3,0.8,13,1.7L-138.1,254.4z M-104.4,300.6
		c-11.9-8.5-39.4-20.5-45.8-20.5c-6.4,0-33.9,12-45.8,20.5c-0.3,0.2-0.5,0.6-0.6,0.9c0,0.4,0.1,0.8,0.3,1c4.3,4.9,7.6,11.2,9.7,18.4
		c0.6,2,2.1,3.5,4,4.3c6.8,2.5,20.5,7.2,30.2,15.8c0.6,0.6,1.4,0.9,2.2,0.9s1.6-0.3,2.2-0.9c9.7-8.6,23.4-13.3,30.2-15.8
		c1.9-0.7,3.4-2.3,4-4.3c2.1-7.2,5.4-13.5,9.7-18.4c0.2-0.3,0.4-0.7,0.3-1C-103.8,301.1-104,300.8-104.4,300.6z M-161.8,307.1
		c-2.2,0-4.1-2.6-4.1-5.8c0-3.2,1.8-5.8,4.1-5.8c2.2,0,4.1,2.6,4.1,5.8C-157.7,304.5-159.6,307.1-161.8,307.1z M-138.6,307.1
		c-2.2,0-4.1-2.6-4.1-5.8c0-3.2,1.8-5.8,4.1-5.8c2.2,0,4.1,2.6,4.1,5.8C-134.5,304.5-136.4,307.1-138.6,307.1z M-172.7,277.4
		c2.4-1,6-2.1,10.9-2.9v-5.2c-4.3,0.6-7.5,1.6-9.9,2.5L-172.7,277.4z M-128.7,271.8c-2.4-0.9-5.6-1.8-9.9-2.5v5.2
		c4.9,0.7,8.5,1.9,10.9,2.9L-128.7,271.8z"/>
</g>
</svg>
