<?xml version="1.0" encoding="utf-8"?>
<!-- Generator: Adobe Illustrator 19.1.0, SVG Export Plug-In . SVG Version: 6.00 Build 0)  -->
<svg version="1.1" id="Слой_1" xmlns="http://www.w3.org/2000/svg" xmlns:xlink="http://www.w3.org/1999/xlink" x="0px" y="0px"
	 viewBox="0 0 142.1 135.3" style="enable-background:new 0 0 142.1 135.3;" xml:space="preserve">
<style type="text/css">
	.st0{fill:#93CE89;}
	.st1{fill:none;stroke:#000000;stroke-width:2;}
	.st2{fill:#FFFFFF;}
	.st3{fill:#78C26B;}
	.st4{fill:#FFFFFF;fill-opacity:0.4;}
	.st5{fill:#3599FD;stroke:#000000;stroke-width:1.5;}
	.st6{fill:#55B3FD;stroke:#000000;stroke-width:1.5;}
	.st7{fill:#3599FD;}
	.st8{fill:none;stroke:#000000;stroke-width:1.5;}
	.st9{fill:none;stroke:#000000;}
	.st10{fill:#55B3FD;}
	.st11{fill:none;stroke:#000000;stroke-width:0.7;}
	.st12{fill:#93CE89;stroke:#000000;}
	.st13{font-family:'OpenSans-Extrabold';}
	.st14{font-size:29.9146px;}
	.st15{fill:#FFFFFF;stroke:#000000;stroke-width:0.5;}
	.st16{fill:none;stroke:#000000;stroke-width:0.5;}
	.st17{fill:none;stroke:#000000;stroke-width:1.5;stroke-linecap:round;}
	.st18{fill:#93CE89;stroke:#000000;stroke-width:1.5;}
	.st19{fill:#87C27D;}
	.st20{fill:none;stroke:#FFFFFF;stroke-width:2;stroke-linecap:round;}
	.st21{fill:#55B3FD;stroke:#000000;stroke-width:1.5;stroke-linecap:round;}
	.st22{fill:#2BA0FD;}
</style>
<g>
	<path class="st5" d="M63.8,56.2L63.8,108c0,0.2,0.2,0.4,0.4,0.3l34.7-14.6c0.1,0,0.2-0.2,0.2-0.3l1.6-47.7c0-0.2-0.2-0.4-0.4-0.3
		L64,55.9C63.9,55.9,63.8,56,63.8,56.2z"/>
	<path class="st6" d="M28.4,93.8L63,108.3c0.2,0.1,0.4-0.1,0.4-0.3l0.1-51.7c0-0.1-0.1-0.3-0.2-0.3l-37.2-7.2
		c-0.2,0-0.4,0.1-0.4,0.3l2.5,44.4C28.2,93.7,28.3,93.8,28.4,93.8z"/>
	<path class="st5" d="M63.1,36.4L26.2,48.5c-0.1,0-0.1,0.1,0,0.1l37.1,7.3c0,0,0,0,0,0L100,45.2c0.1,0,0.1-0.1,0-0.1L63.1,36.4
		C63.1,36.3,63.1,36.3,63.1,36.4z"/>
</g>
<g>
	<text transform="matrix(1 0 0 1 27.0206 30.6753)" class="st12 st13 st14">100% </text>
	<g>
		<text transform="matrix(1 0 0 1 27.0206 30.6753)" class="st2 st13 st14">100% </text>
	</g>
	<text transform="matrix(1 0 0 1 27.0206 30.6753)" class="st12 st13 st14">100% </text>
</g>
<path class="st15" d="M40.7,72.4c0.6,0.5,1.3,0.9,1.9,1.3c0.3,0.2,0.6,0.4,0.9,0.5c0.3,0.2,0.7,0.5,0.9,0.8c0.5,0.4,0.6,1.1,0.3,1.6
	c-0.1,0.2-0.3,0.3-0.5,0.3c-0.5,0.1-1.1,0-1.6-0.2c-0.9-0.3-1.8-0.8-2.6-1.3c-0.2-0.1-0.4-0.2-0.6-0.3c-0.5-0.1-0.6,0.3-0.7,0.5
	c-0.1,0.4-0.3,0.9-0.4,1.3c-0.2,0.7-0.1,1,0.6,1.5c0.8,0.5,1.6,1,2.5,1.3c0.1,0,0.3,0.1,0.4,0.2c0,0.1,0,0.3,0,0.4v0.9
	c0,0.5,0.3,0.9,0.8,1.1c0,0,0.1,0,0.1,0l0.6,0.1l0.8,0.2c0.4,0.1,0.8-0.1,0.9-0.6c0,0,0-0.1,0-0.1c0-0.1,0-0.3,0-0.4
	c0-0.3,0-0.6,0-0.9c0-0.3,0.1-0.4,0.4-0.4c1,0,1.9-0.4,2.5-1.1c0.9-0.8,1.2-2.1,1-3.5c-0.3-1.5-1.2-2.8-2.4-3.8
	c-0.7-0.5-1.4-1-2.2-1.5l-0.3-0.2c-0.4-0.3-0.8-0.6-1.2-1c-0.3-0.2-0.4-0.6-0.4-0.9c0.1-0.3,0.3-0.5,0.6-0.6c0.2,0,0.5,0,0.7,0
	c1,0.2,2,0.6,2.9,1.2c0.9,0.6,1.1,0,1.2-0.2c0.1-0.3,0.2-0.7,0.3-1.1l0.1-0.4c0.2-0.4-0.1-0.9-0.5-1.2c0,0,0,0,0,0
	c-0.6-0.4-1.3-0.8-2-1c-0.6-0.2-0.6-0.2-0.6-0.9c0-1.3-0.1-1.5-1.4-1.8l-0.7-0.2c-0.8-0.1-1,0-1,0.8c0,0.2,0,0.3,0,0.5V64
	c0,0.5,0,0.5-0.5,0.6c-2,0.3-3.1,1.4-3.2,3.3C38.3,69.6,39.1,71.1,40.7,72.4z"/>
<g>
	<g>
		<path d="M82.4,66.3c-0.6,0.4-2.3,2.3-4.8,5.3c-2.4,2.9-4.3,5.5-5.1,7.1c-0.3,0.6-0.5,0.8-0.6,0.8c-0.7,0-1,0.1-1.5,0.5
			c-0.5,0.4-0.6,0.4-0.5,0.8c0.1,0.5,0.4,0.7,1.1,0.6c0.5-0.1,0.6-0.1,0.5,0.1c0,0.1-0.1,0.3-0.2,0.4c-0.1,0.1-0.2,0.4-0.2,0.6
			c0,0.3,0.1,0.4,0.5,0.5c0.4,0.1,0.6,0,1.1-0.2c0.7-0.3,1.1-0.2,1.1,0.2c0,0.1,0.2,0.3,0.3,0.4c0.3,0.2,0.4,0.2,0.7,0.1
			c0.3-0.1,0.3-0.1,0.6,0.2c0.2,0.2,0.4,0.4,0.5,0.3c0.5-0.2,1.6-0.8,1.9-1.1c0.5-0.5,1.4-0.7,2.4-0.5c0.8,0.1,1.5,0,1.9-0.4
			c0.1-0.1,0.7-0.4,1.4-0.6l1.2-0.4l0.4,0.2c0.4,0.2,0.5,0.2,1.2,0c0.5-0.1,0.9-0.2,1.1-0.2c0.2,0.1,0.6,0,1.1-0.2
			c0.8-0.2,0.9-0.3,1.1-0.7c0.2-0.2,0.4-0.6,0.4-0.8c0.1-0.4,0.1-0.4,0.8-0.5c0.4-0.1,0.9-0.1,1.2-0.1c0.3,0,0.7,0,1.1-0.1
			c0.4-0.1,0.6-0.2,0.8-0.6c0.5-0.7,0.3-1.1-0.5-1.1c-0.5,0-0.5-0.5,0-0.8c0.5-0.3,1.2-1.2,1.3-1.6c0.1-0.3,0.2-0.3,0.5-0.4
			c0.8-0.2,1.2-0.7,1.4-1.5c0.1-0.2,0-0.3-0.4-0.4c-0.3-0.1-0.8,0-1.2,0.1l-0.6,0.2l-0.4-0.7c-0.6-1.1-1.8-2.2-3.6-3.4
			c-2.7-1.8-4.7-2.8-6-3C84,65.5,83.2,65.7,82.4,66.3z"/>
	</g>
	<g>
		<path class="st2" d="M82.4,66.3c-0.6,0.4-2.3,2.3-4.8,5.3c-2.4,2.9-4.3,5.5-5.1,7.1c-0.3,0.6-0.5,0.8-0.6,0.8
			c-0.7,0-1,0.1-1.5,0.5c-0.5,0.4-0.6,0.4-0.5,0.8c0.1,0.5,0.4,0.7,1.1,0.6c0.5-0.1,0.6-0.1,0.5,0.1c0,0.1-0.1,0.3-0.2,0.4
			c-0.1,0.1-0.2,0.4-0.2,0.6c0,0.3,0.1,0.4,0.5,0.5c0.4,0.1,0.6,0,1.1-0.2c0.7-0.3,1.1-0.2,1.1,0.2c0,0.1,0.2,0.3,0.3,0.4
			c0.3,0.2,0.4,0.2,0.7,0.1c0.3-0.1,0.3-0.1,0.6,0.2c0.2,0.2,0.4,0.4,0.5,0.3c0.5-0.2,1.6-0.8,1.9-1.1c0.5-0.5,1.4-0.7,2.4-0.5
			c0.8,0.1,1.5,0,1.9-0.4c0.1-0.1,0.7-0.4,1.4-0.6l1.2-0.4l0.4,0.2c0.4,0.2,0.5,0.2,1.2,0c0.5-0.1,0.9-0.2,1.1-0.2
			c0.2,0.1,0.6,0,1.1-0.2c0.8-0.2,0.9-0.3,1.1-0.7c0.2-0.2,0.4-0.6,0.4-0.8c0.1-0.4,0.1-0.4,0.8-0.5c0.4-0.1,0.9-0.1,1.2-0.1
			c0.3,0,0.7,0,1.1-0.1c0.4-0.1,0.6-0.2,0.8-0.6c0.5-0.7,0.3-1.1-0.5-1.1c-0.5,0-0.5-0.5,0-0.8c0.5-0.3,1.2-1.2,1.3-1.6
			c0.1-0.3,0.2-0.3,0.5-0.4c0.8-0.2,1.2-0.7,1.4-1.5c0.1-0.2,0-0.3-0.4-0.4c-0.3-0.1-0.8,0-1.2,0.1l-0.6,0.2l-0.4-0.7
			c-0.6-1.1-1.8-2.2-3.6-3.4c-2.7-1.8-4.7-2.8-6-3C84,65.5,83.2,65.7,82.4,66.3z"/>
	</g>
	<g>
		<path class="st16" d="M82.4,66.3c-0.6,0.4-2.3,2.3-4.8,5.3c-2.4,2.9-4.3,5.5-5.1,7.1c-0.3,0.6-0.5,0.8-0.6,0.8
			c-0.7,0-1,0.1-1.5,0.5c-0.5,0.4-0.6,0.4-0.5,0.8c0.1,0.5,0.4,0.7,1.1,0.6c0.5-0.1,0.6-0.1,0.5,0.1c0,0.1-0.1,0.3-0.2,0.4
			c-0.1,0.1-0.2,0.4-0.2,0.6c0,0.3,0.1,0.4,0.5,0.5c0.4,0.1,0.6,0,1.1-0.2c0.7-0.3,1.1-0.2,1.1,0.2c0,0.1,0.2,0.3,0.3,0.4
			c0.3,0.2,0.4,0.2,0.7,0.1c0.3-0.1,0.3-0.1,0.6,0.2c0.2,0.2,0.4,0.4,0.5,0.3c0.5-0.2,1.6-0.8,1.9-1.1c0.5-0.5,1.4-0.7,2.4-0.5
			c0.8,0.1,1.5,0,1.9-0.4c0.1-0.1,0.7-0.4,1.4-0.6l1.2-0.4l0.4,0.2c0.4,0.2,0.5,0.2,1.2,0c0.5-0.1,0.9-0.2,1.1-0.2
			c0.2,0.1,0.6,0,1.1-0.2c0.8-0.2,0.9-0.3,1.1-0.7c0.2-0.2,0.4-0.6,0.4-0.8c0.1-0.4,0.1-0.4,0.8-0.5c0.4-0.1,0.9-0.1,1.2-0.1
			c0.3,0,0.7,0,1.1-0.1c0.4-0.1,0.6-0.2,0.8-0.6c0.5-0.7,0.3-1.1-0.5-1.1c-0.5,0-0.5-0.5,0-0.8c0.5-0.3,1.2-1.2,1.3-1.6
			c0.1-0.3,0.2-0.3,0.5-0.4c0.8-0.2,1.2-0.7,1.4-1.5c0.1-0.2,0-0.3-0.4-0.4c-0.3-0.1-0.8,0-1.2,0.1l-0.6,0.2l-0.4-0.7
			c-0.6-1.1-1.8-2.2-3.6-3.4c-2.7-1.8-4.7-2.8-6-3C84,65.5,83.2,65.7,82.4,66.3z"/>
	</g>
</g>
<g>
	<path class="st18" d="M12.2,41L12.2,41c-3.1,9.4-4.2,24,0,35.9c0.4,1.3,1,2.6,1.6,3.8c0,0,0,0.1,0.1,0.1l0,0
		c7.5,14.6,27.9,26,55.6,30.4l0.6,15.3l45.3-23.6l-45.9-32l-0.1,19c-27.1-4.6-48.2-16.1-55.5-30.5C12.5,56.7,9.3,50.1,12.2,41z"/>
</g>
<g>
	<path class="st20" d="M68.3,94.4c-27.1-4.6-37.5-11-47.6-20.1"/>
</g>
<polygon class="st15" points="88.3,48.2 76.4,51.7 41.2,44 52.9,40.2 "/>
<polygon class="st15" points="88.6,61.9 77.1,65.7 77.1,52.5 88.6,49.2 "/>
<line class="st15" x1="47.9" y1="41.6" x2="83.2" y2="49.7"/>
</svg>
