<?xml version="1.0" encoding="utf-8"?>
<!-- Generator: Adobe Illustrator 19.1.0, SVG Export Plug-In . SVG Version: 6.00 Build 0)  -->
<svg version="1.1" id="Слой_1" xmlns="http://www.w3.org/2000/svg" xmlns:xlink="http://www.w3.org/1999/xlink" x="0px" y="0px"
	 viewBox="0 0 147.7 126.2" style="enable-background:new 0 0 147.7 126.2;" xml:space="preserve">
<style type="text/css">
	.st0{fill:#93CE89;}
	.st1{fill:none;stroke:#000000;stroke-width:2;}
	.st2{fill:#FFFFFF;}
	.st3{fill:#78C26B;}
	.st4{fill:#FFFFFF;fill-opacity:0.4;}
	.st5{fill:#3599FD;stroke:#000000;stroke-width:1.5;}
	.st6{fill:#55B3FD;stroke:#000000;stroke-width:1.5;}
	.st7{fill:#3599FD;}
	.st8{fill:none;stroke:#000000;stroke-width:1.5;}
	.st9{fill:none;stroke:#000000;}
	.st10{fill:#55B3FD;}
	.st11{fill:none;stroke:#000000;stroke-width:0.7;}
	.st12{fill:#FFFFFF;stroke:#000000;stroke-width:0.5;}
	.st13{fill:none;stroke:#000000;stroke-width:0.5;}
	.st14{fill:none;stroke:#000000;stroke-width:1.5;stroke-linecap:round;}
	.st15{fill:#93CE89;stroke:#000000;stroke-width:1.5;}
	.st16{fill:#87C27D;}
	.st17{fill:none;stroke:#FFFFFF;stroke-width:2;stroke-linecap:round;}
	.st18{fill:#55B3FD;stroke:#000000;stroke-width:1.5;stroke-linecap:round;}
	.st19{fill:#2BA0FD;}
</style>
<g>
	<path class="st18" d="M8.1,41.1c0,15.6,26.5,70,29.5,76.1c0.1,0.2,0.4,0.2,0.6,0c3-6.2,29.6-60.5,29.7-76.1
		c0-16.5-13.3-29.9-29.8-29.9C21.5,11.3,8.1,24.6,8.1,41.1z M25,44.2c-2.1-9.7,6.3-18.1,16-15.9c4.9,1.1,8.8,5,9.9,9.9
		c2.1,9.7-6.3,18.1-16,15.9C30,53,26.1,49,25,44.2z"/>
	<path class="st7" d="M37.9,28.5c1,0,2,0.1,3.1,0.3c4.9,1.1,8.8,5,9.9,9.9c1.9,8.7-4.7,16.3-13,16.3l-0.2,62.9
		c0.1,0.2,0.4,0.2,0.6,0c3-6.2,29.6-60.5,29.7-76.1c0-16.5-13.3-29.9-29.8-29.9L37.9,28.5z"/>
	<path class="st8" d="M8.1,40.9c0,15.6,26.5,70,29.5,76.1c0.1,0.2,0.4,0.2,0.6,0c3-6.2,29.6-60.5,29.7-76.1
		c0-16.5-13.3-29.9-29.8-29.9C21.5,11.1,8.1,24.4,8.1,40.9z M25,44c-2.1-9.7,6.3-18.1,16-15.9c4.9,1.1,8.8,5,9.9,9.9
		c2.1,9.7-6.3,18.1-16,15.9C30,52.8,26.1,48.9,25,44z"/>
	<path class="st17" d="M17.8,46.5c-3.4-11.1,2.9-22.8,13.9-26.1"/>
</g>
<g>
	<path class="st18" d="M78.1,47c0,4.3,7.4,19.4,8.2,21.2c0,0.1,0.1,0.1,0.2,0c0.8-1.7,8.2-16.8,8.2-21.1c0-4.6-3.7-8.3-8.3-8.3
		C81.8,38.7,78.1,42.4,78.1,47z M82.8,47.9c-0.6-2.7,1.7-5,4.4-4.4c1.4,0.3,2.4,1.4,2.7,2.7c0.6,2.7-1.8,5-4.4,4.4
		C84.2,50.3,83.1,49.2,82.8,47.9z"/>
	<path class="st7" d="M86.4,43.5c0.3,0,0.6,0,0.9,0.1c1.4,0.3,2.4,1.4,2.7,2.7c0.5,2.4-1.3,4.5-3.6,4.5l-0.1,17.5
		c0,0.1,0.1,0.1,0.2,0c0.8-1.7,8.2-16.8,8.2-21.1c0-4.6-3.7-8.3-8.3-8.3L86.4,43.5z"/>
	<path class="st8" d="M78.1,47c0,4.3,7.4,19.4,8.2,21.2c0,0.1,0.1,0.1,0.2,0c0.8-1.7,8.2-16.8,8.2-21.1c0-4.6-3.7-8.3-8.3-8.3
		C81.8,38.7,78.1,42.4,78.1,47z M82.8,47.8c-0.6-2.7,1.7-5,4.4-4.4c1.4,0.3,2.4,1.4,2.7,2.7c0.6,2.7-1.8,5-4.4,4.4
		C84.2,50.3,83.1,49.2,82.8,47.8z"/>
	<path class="st17" d="M80.8,48.5c-0.9-3.1,0.8-6.3,3.9-7.3"/>
</g>
<g>
	<path class="st18" d="M102.5,47.3c0,9.7,16.5,43.7,18.4,47.5c0.1,0.1,0.3,0.1,0.4,0c1.9-3.8,18.5-37.8,18.5-47.5
		c0-10.3-8.3-18.6-18.6-18.7C110.9,28.7,102.5,37,102.5,47.3z M113.1,49.2c-1.3-6,3.9-11.3,10-9.9c3,0.7,5.5,3.1,6.2,6.2
		c1.3,6-3.9,11.3-10,10C116.2,54.7,113.7,52.3,113.1,49.2z"/>
	<path class="st7" d="M121.1,39.4c0.6,0,1.3,0.1,1.9,0.2c3,0.7,5.5,3.1,6.2,6.2c1.2,5.4-2.9,10.2-8.1,10.2l-0.1,39.2
		c0.1,0.1,0.3,0.1,0.4,0c1.9-3.8,18.5-37.8,18.5-47.5c0-10.3-8.3-18.6-18.6-18.7L121.1,39.4z"/>
	<path class="st8" d="M102.5,47.2c0,9.7,16.5,43.7,18.4,47.5c0.1,0.1,0.3,0.1,0.4,0c1.9-3.8,18.5-37.8,18.5-47.5
		c0-10.3-8.3-18.6-18.6-18.7C110.9,28.6,102.5,36.9,102.5,47.2z M113.1,49.1c-1.3-6,3.9-11.3,10-9.9c3,0.7,5.5,3.1,6.2,6.2
		c1.3,6-3.9,11.3-10,10C116.2,54.6,113.7,52.2,113.1,49.1z"/>
	<path class="st17" d="M108.6,50.7c-2.1-6.9,1.8-14.2,8.7-16.3"/>
</g>
<path class="st15" d="M47.9,117.1l12.5-18.6l21.3-5.2l-10.5-6.8l13-14.3l-5,11.8l32.5,12.2L47.9,117.1z"/>
</svg>
