<?xml version="1.0" encoding="utf-8"?>
<!-- Generator: Adobe Illustrator 18.1.1, SVG Export Plug-In . SVG Version: 6.00 Build 0)  -->
<svg version="1.1" id="Слой_1" xmlns="http://www.w3.org/2000/svg" xmlns:xlink="http://www.w3.org/1999/xlink" x="0px" y="0px"
	 viewBox="468.2 1.9 416.6 595.3" enable-background="new 468.2 1.9 416.6 595.3" xml:space="preserve">
<path fill="#FFFFFF" d="M855.1,1.9H497.9c-16.4,0-29.7,13.4-29.7,29.7v535.8c0,16.4,13.4,29.7,29.7,29.7h357.2
	c16.4,0,29.7-13.4,29.7-29.7V31.6C884.8,15.3,871.4,1.9,855.1,1.9z M587.2,525.6c0,6.6-5.3,12-12,12h-35.8c-6.6,0-12-5.3-12-12
	v-35.8c0-6.6,5.3-12,12-12h35.8c6.6,0,12,5.3,12,12V525.6z M587.2,406.6c0,6.6-5.3,12-12,12h-35.8c-6.6,0-12-5.3-12-12v-35.7
	c0-6.6,5.3-12,12-12h35.8c6.6,0,12,5.3,12,12V406.6z M587.2,287.5c0,6.6-5.3,12-12,12h-35.8c-6.6,0-12-5.3-12-12v-35.8
	c0-6.6,5.3-12,12-12h35.8c6.6,0,12,5.3,12,12V287.5z M706.3,525.6c0,6.6-5.3,12-12,12h-35.8c-6.6,0-12-5.3-12-12v-35.8
	c0-6.6,5.3-12,12-12h35.8c6.6,0,12,5.3,12,12V525.6z M706.3,406.6c0,6.6-5.3,12-12,12h-35.8c-6.6,0-12-5.3-12-12v-35.7
	c0-6.6,5.3-12,12-12h35.8c6.6,0,12,5.3,12,12V406.6z M706.3,287.5c0,6.6-5.3,12-12,12h-35.8c-6.6,0-12-5.3-12-12v-35.8
	c0-6.6,5.3-12,12-12h35.8c6.6,0,12,5.3,12,12V287.5z M825.3,525.6c0,6.6-5.3,12-12,12h-35.8c-6.6,0-12-5.3-12-12V370.9
	c0-6.6,5.3-12,12-12h35.8c6.6,0,12,5.3,12,12V525.6z M825.3,287.5c0,6.6-5.3,12-12,12h-35.8c-6.6,0-12-5.3-12-12v-35.8
	c0-6.6,5.3-12,12-12h35.8c6.6,0,12,5.3,12,12V287.5z M825.3,168.5c0,6.6-5.3,12-12,12H539.6c-6.6,0-12-5.3-12-12V73.3
	c0-6.6,5.3-12,12-12h273.9c6.6,0,12,5.3,12,12L825.3,168.5L825.3,168.5z"/>
</svg>
