<?xml version="1.0" encoding="utf-8"?>
<!-- Generator: Adobe Illustrator 18.1.1, SVG Export Plug-In . SVG Version: 6.00 Build 0)  -->
<svg version="1.1" id="Слой_1" xmlns="http://www.w3.org/2000/svg" xmlns:xlink="http://www.w3.org/1999/xlink" x="0px" y="0px"
	 viewBox="281.3 73.2 283.4 326.2" enable-background="new 281.3 73.2 283.4 326.2" xml:space="preserve">
<g>
	<path fill="#FFFFFF" d="M551.3,112.3h-65.5V99.9c0-14.8-11.9-26.7-26.7-26.7h-72.9c-14.8,0-26.7,11.9-26.7,26.7v12.4h-66
		c-6.7,0-12.4,5.7-12.4,12.4c0,6.7,5.7,12.4,12.4,12.4h13.1v217.6c0,24.8,20,44.8,44.8,44.8h142.9c24.8,0,44.8-20,44.8-44.8V136.6
		h13.1c6.7,0,12.4-5.7,12.4-12.4C564.6,117.5,558.9,112.3,551.3,112.3z M386.3,97.1h72.9c1.4,0,2.9,1.4,2.9,2.9v12.4h-78.6V99.9
		C383.4,98.5,384.8,97.1,386.3,97.1z M331,354.2V136.6h182.9v217.6c0,11-9,20-20,20H351C340.1,373.7,331,365.2,331,354.2z"/>
	<path fill="#FFFFFF" d="M422.5,325.9c6.7,0,11.9-5.2,11.9-12.4V196.8c0-6.7-5.2-12.4-11.9-12.4s-12.4,5.7-12.4,12.4V314
		C410.1,320.6,415.8,325.9,422.5,325.9z"/>
	<path fill="#FFFFFF" d="M476.3,325.9c6.7,0,12.4-5.7,12.4-12.4V196.8c0-6.7-5.7-12.4-12.4-12.4s-12.4,5.7-12.4,12.4V314
		C464.9,321.1,470.1,325.9,476.3,325.9z"/>
	<path fill="#FFFFFF" d="M369.1,325.9c6.7,0,12.4-5.7,12.4-12.4V196.8c0-6.7-5.7-12.4-12.4-12.4c-6.7,0-12.4,5.7-12.4,12.4V314
		C356.7,320.6,362,325.9,369.1,325.9z"/>
</g>
</svg>
